<svg width="110" height="110" viewBox="0 0 110 110" fill="none" xmlns="http://www.w3.org/2000/svg">
<path d="M55.0059 7.34033C53.662 7.34033 52.3191 7.99174 51.5326 9.30257L50 11.8592C49.34 12.9592 48.2493 13.699 47.0137 14.0363C46.999 14.04 46.9925 14.047 46.9779 14.0506C45.7275 14.3953 44.4012 14.2946 43.2682 13.6639L40.6615 12.2173C37.9885 10.7323 34.6972 12.6326 34.6458 15.6906L34.5885 18.7056C34.5665 19.9816 34.001 21.1695 33.099 22.0715C33.088 22.0788 33.0776 22.0891 33.0703 22.1001C32.1683 23.0058 30.9804 23.5677 29.7044 23.5897L26.6823 23.6398C23.6243 23.6911 21.724 26.9859 23.209 29.6626L24.6628 32.2765C25.2861 33.4022 25.3905 34.7182 25.0495 35.9575C25.0385 35.9795 25.0353 36 25.028 36.022C24.6943 37.2503 23.9542 38.3305 22.8652 38.9868L20.3014 40.5265C17.6798 42.0995 17.6798 45.9001 20.3014 47.4731L22.8652 49.0129C23.9579 49.6692 24.6943 50.7494 25.028 51.9777C25.0353 51.9997 25.035 52.0237 25.0423 52.0493C25.3833 53.2886 25.2861 54.6083 24.6628 55.7303L23.209 58.3442C21.724 61.0172 23.6243 64.3085 26.6823 64.3599L29.6973 64.41C30.9769 64.432 32.1612 65.0047 33.0632 65.9067L33.0918 65.9354C33.9975 66.8374 34.5665 68.0253 34.5885 69.3013L34.6387 72.3162C34.69 75.3742 37.9813 77.2746 40.6543 75.7896L43.2682 74.3358C44.3939 73.7124 45.7099 73.6152 46.9492 73.9562C46.9712 73.9636 46.9988 73.9632 47.0208 73.9705C48.2492 74.3042 49.3293 75.0406 49.9857 76.1333L51.5254 78.6971C53.0984 81.3188 56.899 81.3188 58.472 78.6971L60.0117 76.1333C60.668 75.0406 61.7482 74.3042 62.9766 73.9705C62.9986 73.9632 63.019 73.9636 63.041 73.9562C64.2804 73.6152 65.6 73.7124 66.722 74.3358L69.3359 75.7896C72.0089 77.2746 75.3074 75.3742 75.3587 72.3162L75.4089 69.3013C75.4309 68.0216 75.9964 66.8374 76.8984 65.9354L76.9271 65.9067C77.8291 65.0011 79.017 64.432 80.293 64.41L83.3151 64.3599C86.3731 64.3085 88.2734 61.0172 86.7884 58.3442L85.3346 55.7303C84.7113 54.6046 84.6069 53.2887 84.9479 52.0493C84.9553 52.0273 84.9621 52.0034 84.9694 51.9777C85.3031 50.7494 86.0395 49.6692 87.1322 49.0129L89.696 47.4731C92.325 45.8965 92.3248 42.0995 89.7031 40.5265L87.1393 38.9868C86.0467 38.3305 85.3102 37.2503 84.9766 36.022C84.9692 36 84.9624 35.9832 84.9551 35.9575C84.6141 34.7182 84.7185 33.3985 85.3418 32.2765L86.7956 29.6626C88.2806 26.9896 86.3803 23.6911 83.3223 23.6398L80.3001 23.5897C79.0205 23.5677 77.8362 23.0021 76.9342 22.1001L76.9056 22.0715C75.9999 21.1695 75.438 19.9816 75.416 18.7056L75.3659 15.6834C75.3146 12.6254 72.0161 10.7251 69.3431 12.2101L66.7292 13.6639C65.6035 14.2872 64.2875 14.3916 63.0482 14.0506C63.0262 14.0433 63.0094 14.0365 62.9837 14.0291C61.7554 13.6955 60.6752 12.959 60.0189 11.8664L58.4792 9.30257C57.6927 7.99174 56.3497 7.34033 55.0059 7.34033ZM88.6289 70.2967C87.0596 71.1437 85.3069 71.6602 83.4369 71.6932L82.6992 71.7004L82.6921 72.438C82.5894 78.6127 77.4728 83.6313 71.2982 83.6313C69.3805 83.6313 67.4707 83.1414 65.7767 82.1991L65.1393 81.841L64.7598 82.4712C64.6828 82.5995 64.5683 82.6974 64.4876 82.8221L84.332 102.667V84.3332H102.665L88.6289 70.2967ZM21.3613 70.3039L7.33203 84.3332H25.6654V102.667L45.5098 82.8221C45.4291 82.6974 45.3146 82.5995 45.2376 82.4712L44.8581 81.841L44.2135 82.1991C42.5195 83.1377 40.6134 83.6385 38.6921 83.6385C32.5174 83.6385 27.408 78.6127 27.3053 72.438L27.291 71.7075L26.5605 71.6932C24.6942 71.6602 22.9307 71.1509 21.3613 70.3039Z" fill="url(#paint0_radial_1208_1289)"/>
<defs>
<radialGradient id="paint0_radial_1208_1289" cx="0" cy="0" r="1" gradientTransform="matrix(40.0957 33.9959 -33.9984 458.884 21.8969 35.1342)" gradientUnits="userSpaceOnUse">
<stop stop-color="#AD32AE"/>
<stop offset="1" stop-color="#3C49C2"/>
</radialGradient>
</defs>
</svg>
