<svg width="148" height="148" viewBox="0 0 148 148" fill="none" xmlns="http://www.w3.org/2000/svg">
<path d="M74.0008 133.2C41.3569 133.2 14.8008 106.644 14.8008 74.0002C14.8008 50.1475 29.0076 29.5933 49.3823 20.2249C49.4514 23.7424 50.2747 27.0583 51.6659 30.0627C35.672 38.2323 24.6674 54.8391 24.6674 74.0002C24.6674 101.203 46.7984 123.334 74.0008 123.334C101.203 123.334 123.334 101.203 123.334 74.0002C123.334 54.8391 112.325 38.237 96.326 30.0723C97.7222 27.063 98.5406 23.752 98.6096 20.2346C118.989 29.598 133.201 50.1475 133.201 74.0002C133.201 106.644 106.645 133.2 74.0008 133.2ZM74.0008 34.5335C70.0756 34.5335 66.3111 32.9742 63.5356 30.1987C60.7601 27.4232 59.2008 23.6587 59.2008 19.7335C59.2008 15.8083 60.7601 12.0439 63.5356 9.26834C66.3111 6.49281 70.0756 4.93353 74.0008 4.93353C77.926 4.93353 81.6904 6.49281 84.466 9.26834C87.2415 12.0439 88.8008 15.8083 88.8008 19.7335C88.8008 23.6587 87.2415 27.4232 84.466 30.1987C81.6904 32.9742 77.926 34.5335 74.0008 34.5335Z" fill="url(#paint0_radial_795_15085)"/>
<defs>
<radialGradient id="paint0_radial_795_15085" cx="0" cy="0" r="1" gradientTransform="matrix(49.7971 -45.7433 -42.2246 -617.454 32.8897 95.802)" gradientUnits="userSpaceOnUse">
<stop stop-color="#AD32AE"/>
<stop offset="1" stop-color="#3C49C2"/>
</radialGradient>
</defs>
</svg>
