<svg width="120" height="120" viewBox="0 0 120 120" fill="none" xmlns="http://www.w3.org/2000/svg">
<path d="M21.0923 16C19.7903 16 18.4848 16.4982 17.4908 17.4922C15.5413 19.4416 15.5153 22.5749 17.3892 24.5703C15.459 26.8923 15.5558 30.3385 17.7329 32.5156L45.9361 60.7188L24.0454 82.6172L28.0454 83.9531L29.3814 90.6172L36.0454 91.9531L37.3814 95.9531L90.7798 42.5547L77.4439 29.2188L60.7173 45.9375L32.5142 17.7344C30.3371 15.5573 26.8909 15.4605 24.5689 17.3906C23.5909 16.4722 22.3438 16 21.0923 16ZM92.8736 16.0078C91.5091 16.0078 90.1401 16.5283 89.1001 17.5703L82.7798 23.8906L96.1158 37.2188L102.436 30.8984C104.52 28.8144 104.52 25.4394 102.436 23.3594L96.6392 17.5703C95.5972 16.5283 94.2381 16.0078 92.8736 16.0078ZM27.9986 24C29.0216 24 30.0447 24.3899 30.8267 25.1719L38.8267 33.1719C40.3907 34.7359 40.3907 37.2641 38.8267 38.8281C38.0467 39.6081 37.0226 40 35.9986 40C34.9746 40 33.9504 39.6081 33.1704 38.8281L25.1704 30.8281C23.6064 29.2641 23.6064 26.7359 25.1704 25.1719C25.9524 24.3899 26.9756 24 27.9986 24ZM79.8423 65.0625L65.0533 79.8438L80.0142 94.7969C81.4822 96.2649 83.3109 97.3272 85.3189 97.8672L92.5064 99.7812L93.5298 98.6797L100.288 103.562C101.084 104.135 102.19 104.163 103.03 103.555C104.078 102.799 104.317 101.337 103.561 100.289L98.5298 93.3203L99.6548 92.1094L97.8658 85.3438C97.3258 83.3277 96.2596 81.4876 94.7876 80.0156L79.8423 65.0625ZM19.6158 92.0156L16.2173 101.094L16.2017 101.133C16.0552 101.437 15.9882 101.774 16.007 102.111C16.0258 102.449 16.1298 102.776 16.3092 103.062C16.4886 103.348 16.7377 103.585 17.0331 103.749C17.3285 103.913 17.6607 103.999 17.9986 104C18.1971 104.001 18.3945 103.972 18.5845 103.914H18.5923L18.6001 103.93L27.9986 100.391L19.6158 92.0156Z" fill="url(#paint0_radial_812_1196)"/>
<defs>
<radialGradient id="paint0_radial_812_1196" cx="0" cy="0" r="1" gradientTransform="matrix(37.0108 31.3836 -31.3827 423.622 29.4482 41.6582)" gradientUnits="userSpaceOnUse">
<stop stop-color="#AD32AE"/>
<stop offset="1" stop-color="#3C49C2"/>
</radialGradient>
</defs>
</svg>
