<svg width="50" height="50" viewBox="0 0 50 50" fill="none" xmlns="http://www.w3.org/2000/svg">
<path d="M37.75 9.91699C38.7921 9.91699 39.6032 9.91616 40.2529 9.96777C40.9079 10.0198 41.4428 10.1275 41.9248 10.3662C42.7231 10.7618 43.3749 11.3947 43.7842 12.1758C44.0321 12.649 44.1435 13.1738 44.1973 13.8135C44.2505 14.4471 44.25 15.2379 44.25 16.25V33.75C44.25 34.7622 44.2505 35.5529 44.1973 36.1865C44.1435 36.8264 44.0322 37.3519 43.7842 37.8252C43.3748 38.6062 42.7231 39.2393 41.9248 39.6348C41.4429 39.8735 40.9079 39.9802 40.2529 40.0322C39.6032 40.0838 38.7921 40.084 37.75 40.084H12.25C11.2079 40.084 10.3968 40.0838 9.74707 40.0322C9.09214 39.9802 8.55713 39.8735 8.0752 39.6348C7.27687 39.2393 6.6252 38.6062 6.21582 37.8252C5.96776 37.3519 5.85653 36.8264 5.80273 36.1865C5.7495 35.5529 5.75 34.7622 5.75 33.75V16.25C5.75 15.2379 5.74951 14.4471 5.80273 13.8135C5.85651 13.1738 5.96793 12.649 6.21582 12.1758C6.62515 11.3947 7.27688 10.7618 8.0752 10.3662C8.55717 10.1275 9.09207 10.0198 9.74707 9.96777C10.3968 9.91616 11.2079 9.91699 12.25 9.91699H37.75ZM12.25 10.917C11.1919 10.917 10.4271 10.9171 9.82617 10.9648C9.23092 11.0122 8.83956 11.1042 8.51953 11.2627C7.90693 11.5662 7.41118 12.0489 7.10156 12.6396C6.94104 12.946 6.84819 13.3218 6.7998 13.8975C6.75091 14.4795 6.75 15.2209 6.75 16.25V33.75C6.75 34.7792 6.75089 35.5214 6.7998 36.1035C6.84822 36.6789 6.94102 37.055 7.10156 37.3613C7.41124 37.9519 7.90702 38.4349 8.51953 38.7383C8.83953 38.8968 9.23105 38.9879 9.82617 39.0352C10.4271 39.0829 11.1919 39.084 12.25 39.084H37.75C38.8081 39.084 39.5729 39.0829 40.1738 39.0352C40.7689 38.9879 41.1605 38.8968 41.4805 38.7383C42.093 38.4349 42.5888 37.9519 42.8984 37.3613C43.059 37.055 43.1518 36.6789 43.2002 36.1035C43.2491 35.5214 43.25 34.7792 43.25 33.75V16.25C43.25 15.2209 43.2491 14.4795 43.2002 13.8975C43.1518 13.3218 43.059 12.946 42.8984 12.6396C42.5888 12.0489 42.0931 11.5662 41.4805 11.2627C41.1604 11.1042 40.7691 11.0122 40.1738 10.9648C39.5729 10.9171 38.8081 10.917 37.75 10.917H12.25ZM41.875 12.2402L42.1768 12.6387L27.6035 23.6582C26.0711 24.8167 23.9289 24.8167 22.3965 23.6582L7.82324 12.6387L8.125 12.2402L8.42676 11.8408L22.999 22.8604C24.1747 23.7493 25.8253 23.7493 27.001 22.8604L41.5732 11.8408L41.875 12.2402Z" fill="#6D85F4"/>
</svg>
