<svg width="53" height="12" viewBox="0 0 53 12" fill="none" xmlns="http://www.w3.org/2000/svg">
<g clip-path="url(#clip0_2034_1424)">
<path d="M5.73706 0C2.57804 0 0 2.59816 0 5.78182C0 8.96548 2.57804 11.5636 5.73706 11.5636C8.93238 11.5636 11.4741 8.96548 11.4741 5.78182C11.4741 2.59816 8.93238 0 5.73706 0ZM5.73706 8.89229C4.03046 8.89229 2.65067 7.50172 2.65067 5.78182C2.65067 4.06191 4.03046 2.67134 5.73706 2.67134C7.44366 2.67134 8.82344 4.06191 8.82344 5.78182C8.82344 7.50172 7.44366 8.89229 5.73706 8.89229ZM32.2074 0C27.7412 0 24.1465 2.59816 24.1465 5.78182C24.1465 8.96548 27.7412 11.5636 32.2074 11.5636C36.6735 11.5636 40.2683 8.96548 40.2683 5.78182C40.2683 2.59816 36.6373 0 32.2074 0ZM32.2074 8.89229C29.121 8.89229 26.8334 7.24558 26.8334 5.81839C26.8334 4.39125 29.121 2.74453 32.2074 2.74453C35.2938 2.74453 37.5813 4.39125 37.5813 5.81839C37.5813 7.24558 35.2574 8.89229 32.2074 8.89229ZM51.4158 0.256157C50.6892 0.256157 50.072 0.878248 50.072 1.61013V6.14776L42.81 0.329344C42.5559 0.109781 42.1927 0.29275 42.1927 0.622095V9.9535C42.1927 10.6854 42.81 11.3075 43.5362 11.3075C44.2624 11.3075 44.8797 10.6854 44.8797 9.9535V5.4525L52.1419 11.2709C52.3958 11.4904 52.7591 11.3075 52.7591 10.9781V1.61013C52.7591 0.878248 52.1419 0.256157 51.4158 0.256157ZM22.0404 8.63616H17.4653L23.275 0.878249C23.4565 0.622095 23.275 0.256157 22.9845 0.256157H14.5605C13.8343 0.256157 13.217 0.878248 13.217 1.61013C13.217 2.342 13.8343 2.9641 14.5605 2.9641H18.3731L12.5271 10.722C12.3455 10.9781 12.5271 11.3441 12.8539 11.3441H22.0404C22.7666 11.3441 23.3839 10.722 23.3839 9.99011C23.3839 9.25823 22.7666 8.63616 22.0404 8.63616Z" fill="#02AEFF"/>
</g>
<defs>
<clipPath id="clip0_2034_1424">
<rect width="53" height="12" fill="white"/>
</clipPath>
</defs>
</svg>
