<svg width="27" height="27" viewBox="0 0 27 27" fill="none" xmlns="http://www.w3.org/2000/svg">
<path d="M13.9836 7.58605C13.7008 7.5902 13.4313 7.70641 13.2343 7.90915C13.0372 8.11189 12.9286 8.38458 12.9325 8.6673V12.934H8.66584C8.5245 12.932 8.38416 12.9581 8.253 13.0108C8.12183 13.0635 8.00245 13.1418 7.90179 13.241C7.80113 13.3402 7.72119 13.4585 7.66664 13.5889C7.61208 13.7193 7.58398 13.8593 7.58398 14.0006C7.58398 14.142 7.61208 14.2819 7.66664 14.4124C7.72119 14.5428 7.80113 14.661 7.90179 14.7603C8.00245 14.8595 8.12183 14.9378 8.253 14.9905C8.38416 15.0432 8.5245 15.0693 8.66584 15.0673H12.9325V19.334C12.9305 19.4753 12.9566 19.6156 13.0093 19.7468C13.062 19.878 13.1403 19.9974 13.2395 20.098C13.3388 20.1987 13.4571 20.2786 13.5875 20.3332C13.7179 20.3877 13.8578 20.4158 13.9992 20.4158C14.1405 20.4158 14.2805 20.3877 14.4109 20.3332C14.5413 20.2786 14.6596 20.1987 14.7588 20.098C14.8581 19.9974 14.9363 19.878 14.989 19.7468C15.0417 19.6156 15.0678 19.4753 15.0658 19.334V15.0673H19.3325C19.4739 15.0693 19.6142 15.0432 19.7454 14.9905C19.8765 14.9378 19.9959 14.8595 20.0966 14.7603C20.1972 14.661 20.2772 14.5428 20.3317 14.4124C20.3863 14.2819 20.4144 14.142 20.4144 14.0006C20.4144 13.8593 20.3863 13.7193 20.3317 13.5889C20.2772 13.4585 20.1972 13.3402 20.0966 13.241C19.9959 13.1418 19.8765 13.0635 19.7454 13.0108C19.6142 12.9581 19.4739 12.932 19.3325 12.934H15.0658V8.6673C15.0678 8.52468 15.0411 8.38312 14.9874 8.25099C14.9337 8.11885 14.854 7.99883 14.7531 7.89803C14.6522 7.79722 14.5321 7.71767 14.3999 7.66408C14.2678 7.6105 14.1262 7.58396 13.9836 7.58605Z" fill="#6D85F4"/>
</svg>
