<svg width="93" height="12" viewBox="0 0 93 12" fill="none" xmlns="http://www.w3.org/2000/svg">
<g clip-path="url(#clip0_2034_1423)">
<g opacity="0.5">
<path d="M2.8233 11.5942L0 1.18624H1.852L4.02124 9.18011L6.34608 1.18555L8.07246 1.18624L10.4054 9.22258L12.5844 1.18821L14.4364 1.18555L11.6119 11.5924L9.46522 11.5902L7.20998 3.81764L4.95262 11.5922L2.8233 11.5942Z" fill="#AD32AE"/>
<path d="M15.7109 1.19141H17.4739V11.5872H15.7109V1.19141Z" fill="#AD32AE"/>
<path d="M21.246 9.95652H25.5378V11.5872H19.5195V1.19141H21.246V9.95652Z" fill="#AD32AE"/>
<path d="M30.9585 1.20339C32.4053 1.20339 33.6089 1.70701 34.5573 2.70222C35.5178 3.69743 36.0041 4.93249 36.0041 6.39532C36.0041 7.8462 35.5178 9.08122 34.5573 10.0884C33.6089 11.0837 32.4053 11.5872 30.9585 11.5872H26.8125V1.19141H30.9585V1.20339ZM30.9585 9.96851C31.9554 9.96851 32.77 9.63278 33.3779 8.96131C34.0101 8.28985 34.3263 7.42653 34.3263 6.4073C34.3263 5.36415 34.0101 4.5248 33.3779 3.85333C32.7579 3.18183 31.9433 2.8461 30.9585 2.8461H28.5511V9.96851H30.9585Z" fill="#AD32AE"/>
<path d="M45.305 8.61745C45.305 9.46921 45.0013 10.177 44.3811 10.7409C43.761 11.3047 43.0314 11.5926 42.1319 11.5926H37.6211V1.19141H41.8035C42.6668 1.19141 43.396 1.47935 43.9919 2.01919C44.6001 2.57103 44.8918 3.25486 44.8918 4.07063C44.8918 4.9824 44.5268 5.67822 43.8219 6.19409C44.7457 6.67397 45.305 7.53772 45.305 8.61745ZM39.3596 2.799V5.53427H41.8155C42.5817 5.53427 43.1652 4.93441 43.1652 4.16663C43.1652 3.39882 42.5817 2.799 41.8155 2.799H39.3596ZM42.1438 9.98508C42.9463 9.98508 43.5787 9.34923 43.5787 8.53347C43.5787 7.71767 42.9463 7.08185 42.1438 7.08185H39.3596V9.99707H42.1438V9.98508Z" fill="#AD32AE"/>
<path d="M48.6716 9.96107H53.3405V11.5926H46.9453V1.19141H53.2676V2.82297H48.6716V5.52224H52.8907V7.14182H48.6716V9.96107Z" fill="#AD32AE"/>
<path d="M60.9047 11.5926L58.6674 7.80165H56.6247V11.5926H54.8984V1.19141H59.1172C60.0657 1.19141 60.8681 1.51531 61.5125 2.17513C62.1688 2.81099 62.5096 3.60278 62.5096 4.53852C62.5096 5.85817 61.6705 7.06983 60.4183 7.5497L62.8133 11.5926H60.9047ZM56.6247 2.79896V6.27804H59.1052C60.029 6.27804 60.7586 5.51026 60.7586 4.53852C60.7586 3.57876 60.0171 2.79896 59.1052 2.79896H56.6247Z" fill="#AD32AE"/>
<path d="M70.1345 11.5927L67.9096 7.79971H65.8669V11.5927H64.1406V1.18604H68.3593C69.3078 1.18604 70.1103 1.51013 70.7547 2.1703C71.411 2.80646 71.7517 3.59864 71.7517 4.53488C71.7517 5.85523 70.9127 7.06754 69.6605 7.54765L72.0554 11.5927H70.1345ZM65.8669 2.79444V6.27532H68.3474C69.2712 6.27532 70.0008 5.50712 70.0008 4.53488C70.0008 3.57466 69.2593 2.79444 68.3474 2.79444H65.8669Z" fill="#AD32AE"/>
<path d="M73.3203 1.18701H75.047V11.5925H73.3203V1.18701Z" fill="#AD32AE"/>
<path d="M78.8126 9.96107H83.4815V11.5926H77.0859V1.19141H83.4082V2.82297H78.8126V5.52224H83.0313V7.14182H78.8126V9.96107Z" fill="#AD32AE"/>
<path d="M84.6875 9.22554L86.1829 8.36222C86.6084 9.5373 87.4717 10.1128 88.7968 10.1128C90.1099 10.1128 90.7543 9.56128 90.7543 8.74594C90.7543 8.31427 90.572 8.00251 90.2317 7.78668C89.891 7.55887 89.2589 7.30704 88.3593 7.04326C87.3499 6.74349 86.8516 6.55163 86.1463 6.096C85.4656 5.61639 85.1249 4.9329 85.1249 3.99766C85.1249 3.07436 85.4533 2.35496 86.122 1.81538C86.7787 1.26378 87.5812 1 88.5173 1C90.2074 1 91.5081 1.86332 92.1892 3.2902L90.73 4.11756C90.2922 3.15831 89.5506 2.66668 88.5173 2.66668C87.508 2.66668 86.8635 3.17029 86.8635 3.96166C86.8635 4.72909 87.3742 5.0888 88.9914 5.58039C89.3926 5.71232 89.6844 5.80825 89.8667 5.88017C90.0613 5.94014 90.3164 6.04805 90.6448 6.17994C90.9855 6.31183 91.253 6.46773 91.411 6.59961C91.9702 7.03128 92.5657 7.7387 92.4929 8.73395C92.4929 9.66919 92.1525 10.4246 91.4596 10.9762C90.7786 11.5278 89.879 11.7915 88.7605 11.7915C86.7179 11.7796 85.2344 10.8203 84.6875 9.22554Z" fill="#AD32AE"/>
</g>
</g>
<defs>
<clipPath id="clip0_2034_1423">
<rect width="92.5" height="12" fill="white"/>
</clipPath>
</defs>
</svg>
