<svg width="95" height="95" viewBox="0 0 95 95" fill="none" xmlns="http://www.w3.org/2000/svg">
<circle cx="47.5" cy="47.5" r="47.5" fill="url(#paint0_radial_3014_1233)"/>
<path d="M54 58V54C54.9 53.554 57.474 50.49 57.744 48.096C58.452 48.042 59.564 47.392 59.892 44.826C60.068 43.448 59.368 42.674 58.944 42.43C58.944 42.43 60 40.424 60 38.002C60 33.146 58.094 29.002 54 29.002C54 29.002 52.578 26.002 48 26.002C39.516 26.002 36 31.444 36 38.002C36 40.21 37.056 42.43 37.056 42.43C36.632 42.674 35.932 43.45 36.108 44.826C36.436 47.392 37.548 48.042 38.256 48.096C38.526 50.49 41.1 53.554 42 54V58C40 64 24 60 24 74H72C72 60 56 64 54 58Z" fill="#6D85F4"/>
<defs>
<radialGradient id="paint0_radial_3014_1233" cx="0" cy="0" r="1" gradientTransform="matrix(39.9555 33.8795 -33.8795 457.314 14.5139 27.6988)" gradientUnits="userSpaceOnUse">
<stop stop-color="#AD32AE"/>
<stop offset="1" stop-color="#3C49C2"/>
</radialGradient>
</defs>
</svg>
