<svg width="184" height="150" viewBox="0 0 184 150" fill="none" xmlns="http://www.w3.org/2000/svg">
<path d="M59.7976 73.7743C63.5505 65.776 71.7412 61.7023 80.4854 60.1549C88.6948 58.7007 97.7017 61.8328 102.796 68.3303C102.796 68.3023 102.778 68.265 102.768 68.237C102.459 67.165 102.13 66.0277 102.412 64.9464C102.627 64.0888 103.2 63.371 103.781 62.6905C109.054 56.4634 116.063 51.3363 124.122 49.8914C132.125 48.4465 140.747 50.9261 146.743 56.3888C153.704 62.7278 156.81 72.5811 156.134 81.9404C155.449 91.2996 151.312 100.156 145.692 107.697C140.991 114.008 135.24 119.527 130.802 126.033C129.057 128.597 123.7 145.246 121.307 144.267C121.26 144.248 121.223 144.211 121.176 144.193L121.898 147.297C118.024 142.067 113.182 137.537 107.703 134.004C103.735 131.449 99.4562 129.417 95.1873 127.394C88.6104 124.281 82.0335 121.167 75.4565 118.044C71.2158 116.04 66.853 113.933 63.7851 110.41C61.6459 107.958 60.2574 104.947 59.2722 101.871C56.5608 93.4716 56.0541 81.7819 59.8164 73.7929L59.7976 73.7743Z" fill="#995CA1"/>
<path d="M105.123 76.832C99.1184 73.2896 92.898 69.8032 86.0396 68.5354C79.1719 67.2676 71.4409 68.5913 66.5809 73.5599C64.9109 75.2659 63.6537 77.3167 62.5184 79.4141C60.0978 83.9167 58.2495 88.7268 57.0298 93.6861C56.2886 87.7573 56.0635 81.6421 57.696 75.8904C59.3285 70.1388 63.0251 64.7507 68.448 62.1778C72.3228 60.3414 76.7512 60.0617 81.0389 60.2948C93.1326 60.9566 103.05 63.7252 105.114 76.832H105.123Z" fill="#543359"/>
<path d="M126.985 125.707C130.663 118.1 135.711 111.239 139.839 103.866C143.958 96.492 147.204 88.2794 146.763 79.8523C146.322 71.4252 141.453 62.8117 133.45 59.9778C123.373 56.3982 112.687 62.5973 103.811 68.5354C104.928 60.8727 110.022 53.8999 117.003 50.4694C123.983 47.0389 132.662 47.2533 139.464 51.0287C144.22 53.6668 147.926 57.8151 151.36 62.0287C154.7 66.1303 155.507 70.465 156.014 75.7226C156.408 79.7963 157.553 84.0285 156.042 87.8319C151.276 99.8293 144.539 111.053 136.18 120.925C132.774 124.952 129.04 128.839 126.779 133.593C124.405 138.599 124.79 144.071 123.054 149.077C120.005 142.347 123.936 131.99 126.976 125.707H126.985Z" fill="#543359"/>
<path d="M157.851 80.5977C159.137 76.7757 161.248 73.224 163.997 70.2596C165.085 69.085 166.267 68.0037 167.234 66.7266C168.772 64.6757 169.664 62.2334 170.536 59.8283C172.084 55.5402 173.642 51.2055 174.054 46.6657C178.295 41.6132 179.327 34.631 177.226 28.3946C178.67 26.5209 180.378 24.5633 180.979 22.2794C181.579 19.9955 181.082 17.2641 179.168 15.8658C181.476 12.3701 182.846 8.93962 183.033 4.76337C183.08 3.64473 182.939 2.31169 181.954 1.76169C180.66 1.02525 179.14 2.21847 178.145 3.31846C174.261 7.56929 170.386 11.8294 166.502 16.0896C164.55 18.2243 162.58 20.387 160.178 22.0184C156.679 24.3955 152.503 25.4955 148.525 26.9497C137.98 30.781 128.598 37.1573 119.337 43.4589C114.562 46.7123 109.617 50.1335 106.737 55.1207C104.842 58.4021 103.951 62.1775 102.065 65.4681C105.686 58.9614 112.695 52.669 119.797 50.3012C126.899 47.9335 134.677 49.4809 141.517 52.4919C144.181 53.6665 146.705 55.2605 148.572 57.4885C150.195 59.4275 151.237 61.7673 152.166 64.1164C154.586 70.213 156.772 74.1469 157.851 80.607V80.5977Z" fill="#02AEFF"/>
<path d="M58.7088 104.07C55.9036 101.162 52.4697 98.8501 48.7074 97.34C47.225 96.7433 45.6769 96.2679 44.2602 95.5222C41.9897 94.329 40.1321 92.4925 38.3119 90.6841C35.0751 87.468 31.7913 84.2053 29.4645 80.2807C23.4599 77.5214 19.5194 71.6486 18.7312 65.1139C16.6202 64.0418 14.2372 62.9885 12.7079 61.18C11.1786 59.3715 10.4467 56.6868 11.582 54.6173C7.98861 52.436 5.27716 49.9097 3.30689 46.2089C2.78149 45.2208 2.34053 43.953 2.9879 43.0394C3.84168 41.8182 5.72751 42.2657 7.10669 42.825C12.4452 45.025 17.7836 47.225 23.1315 49.4157C25.8148 50.525 28.5263 51.6343 31.3972 52.0911C35.5817 52.7529 39.8318 51.9792 44.0538 51.597C55.2374 50.5809 66.4585 52.3521 77.5483 54.1233C83.2715 55.0368 89.201 56.0249 93.9578 59.3156C97.0821 61.4783 99.5121 64.5173 102.627 66.6893C96.5473 62.3452 87.5028 59.6325 80.0721 60.5088C72.632 61.3851 66.2709 66.0834 61.3828 71.7232C59.4782 73.9138 57.8832 76.4308 57.1608 79.2367C56.5322 81.679 56.5885 84.2426 56.7573 86.7595C57.1889 93.2942 56.9075 97.7781 58.7088 104.08V104.07Z" fill="#02AEFF"/>
<path d="M102.601 68.1807C95.1421 60.8723 84.4089 58.3647 75.0548 61.4129C65.1941 64.6197 58.7204 74.0349 57.7446 85.0162C56.7032 96.706 61.976 107.147 71.0017 113.942C79.5113 120.347 89.5691 123.591 99.0263 127.795C108.146 131.85 117.566 136.958 122.763 146.476C123.148 147.175 122.144 147.753 121.759 147.054C115.314 135.252 102.32 130.433 91.1641 125.763C81.0406 121.53 70.0541 117.009 62.8955 107.631C50.8205 91.8213 56.5249 66.4748 74.2761 60.3596C84.1368 56.9664 95.5174 59.5858 103.408 67.3324C103.971 67.8824 103.145 68.7214 102.592 68.1714L102.601 68.1807Z" fill="#09070B"/>
<path d="M101.885 67.7055C108.115 49.1641 130.651 41.7997 145.568 55.1022C152.68 61.4411 157.268 71.3224 156.855 81.1198C156.377 92.5765 149.65 101.982 142.96 110.102C134.263 120.636 122.995 131.524 122.591 146.858C122.573 147.651 121.419 147.595 121.437 146.793C122.178 118.725 156.18 107.706 155.729 79.4046C155.523 65.9902 145.803 52.7717 133.39 49.9471C120.565 47.0386 107.308 55.2606 102.992 68.097C102.748 68.8334 101.631 68.4606 101.875 67.7148L101.885 67.7055Z" fill="#09070B"/>
<path d="M98.9959 64.4521C84.9038 54.5708 68.1378 52.9302 52.0286 52.1005C43.9599 51.681 35.863 51.4013 27.8131 50.2175C24.3229 49.7047 20.8421 49.0336 17.4082 48.1014C15.2972 47.5327 13.205 46.8709 11.1503 46.0878C10.3247 45.7802 9.5084 45.4446 8.69215 45.0997C8.10107 44.8294 7.50062 44.5683 6.90954 44.326C5.79305 43.6641 4.84545 44.1675 4.04796 45.8268C4.52645 46.4514 3.71021 47.2997 3.23171 46.6658C2.16214 45.2582 2.38731 43.5429 3.99167 42.7506C5.18321 42.1633 6.66559 42.9556 7.78207 43.3844C10.2684 44.326 12.6702 45.4073 15.2034 46.1904C25.308 49.3225 35.7974 50.0217 46.1553 50.5624C64.3568 51.5039 83.534 52.1564 99.587 63.4081C100.216 63.8555 99.6339 64.8996 99.0053 64.4521H98.9959Z" fill="#09070B"/>
<path d="M3.87737 44.9786C5.60369 51.5692 11.6927 54.1794 17.2752 55.7455C22.7825 57.2929 28.2805 58.8684 33.8348 60.1641C34.5666 60.3319 34.2476 61.5158 33.5251 61.348C26.5917 59.726 19.0578 58.2811 12.4152 55.4379C7.93986 53.5362 4.10254 50.3667 2.76088 45.2489C2.55447 44.4752 3.68034 44.2049 3.87737 44.9786Z" fill="#09070B"/>
<path d="M71.7316 62.0469C61.5238 58.458 50.8468 57.1809 40.3388 58.5698C38.9877 58.7469 37.8337 58.4766 37.3083 60.0054C36.7454 61.6181 37.9088 62.3266 39.166 63.3613C41.2207 65.0393 43.6507 66.1113 46.0713 66.941C50.7436 68.5537 55.6318 69.4765 60.4073 70.6418C61.1391 70.8189 60.8201 72.0028 60.0977 71.8257C53.943 70.3248 47.1596 69.3926 41.4177 66.2698C39.7383 65.3562 33.2927 61.2918 35.2161 58.4673C36.22 56.9851 41.1456 57.2181 42.7031 57.0783C45.8461 56.78 49.0079 56.7054 52.1697 56.8639C58.9155 57.1995 65.5769 58.6071 72.0506 60.8817C72.7637 61.1334 72.4541 62.3173 71.741 62.0656L71.7316 62.0469Z" fill="#09070B"/>
<path d="M21.5554 58.0945C20.073 57.908 18.6 57.7309 17.1176 57.5538C16.6579 57.4979 13.0176 56.7335 12.6798 57.0038C10.794 58.5606 18.8158 63.986 19.6602 64.5919C24.2762 67.9198 29.0705 70.9402 33.9868 73.7088C34.653 74.0817 34.0713 75.1257 33.4051 74.7529C29.3051 72.441 25.2989 69.9707 21.4053 67.2766C18.281 65.1232 13.9464 62.7834 11.5352 59.6978C6.69396 53.4894 19.7728 56.6309 21.5835 56.8453C22.3247 56.9385 22.3153 58.1784 21.5648 58.0851L21.5554 58.0945Z" fill="#09070B"/>
<path d="M20.0236 66.8199C17.0307 66.8199 21.112 71.9004 22.3692 73.047C23.8516 74.3987 25.4559 75.5732 27.1072 76.6826C30.4942 78.9571 34.0594 80.8868 37.4558 83.1613C44.0796 87.5986 49.9904 95.6062 58.2561 95.6155C58.9973 95.6155 58.9786 96.8553 58.2374 96.8553C49.1835 96.8553 42.5409 87.7944 35.1571 83.0961C29.4152 79.4419 17.603 74.7622 17.4998 66.1674C17.4998 65.8225 17.7813 65.5801 18.0815 65.5801C18.7289 65.5801 19.3763 65.5801 20.0236 65.5801C20.7648 65.5801 20.7554 66.8199 20.0049 66.8199H20.0236Z" fill="#09070B"/>
<path d="M30.1393 78.6867C32.5506 85.4079 37.7014 89.8917 43.2369 93.6392C48.4347 97.1536 54.0827 101.059 60.2093 101.898C60.9411 102.001 60.9411 103.241 60.1906 103.138C53.4917 102.225 47.2337 97.9087 41.6044 93.9655C36.1721 90.1621 31.3872 85.557 29.0229 78.9571C28.7508 78.202 29.8766 77.941 30.1393 78.6961V78.6867Z" fill="#09070B"/>
<path d="M43.208 66.0926C41.5661 66.2604 34.8203 65.7849 36.2464 69.7561C36.8281 71.3874 41.6881 73.7925 43.0579 74.6315C47.749 77.512 52.7216 79.6654 57.8818 81.2408C58.6042 81.4645 58.2946 82.6391 57.5722 82.4247C50.2916 80.1967 42.2604 76.7383 36.3402 71.4061C30.3356 66.0087 39.6897 65.2163 42.9265 64.89C43.649 64.8154 43.9586 66.0273 43.2174 66.1019L43.208 66.0926Z" fill="#09070B"/>
<path d="M43.2838 76.1419C40.7975 76.1419 36.1439 76.086 39.3526 79.6376C40.9476 81.3995 43.5371 82.4249 45.5261 83.5063C49.5605 85.6969 53.5948 87.8969 57.6291 90.0876C58.3047 90.4511 57.7136 91.4952 57.0475 91.1316C52.4408 88.624 47.8247 86.1351 43.2181 83.6088C40.3659 82.0427 37.1853 80.3927 36.7444 76.6546C36.7068 76.291 36.8288 76.03 37.1572 75.9182C39.2025 75.2004 41.1258 74.8927 43.3025 74.9021C44.0437 74.9021 44.0343 76.1419 43.2838 76.1419Z" fill="#09070B"/>
<path d="M65.3419 66.8942C55.5938 64.3959 45.7894 62.4103 35.9006 61.0027C35.1687 60.9001 35.1687 59.6603 35.9193 59.7629C45.9114 61.1798 55.819 63.1933 65.6609 65.7196C66.3927 65.906 66.0737 67.0899 65.3513 66.9035L65.3419 66.8942Z" fill="#09070B"/>
<path d="M59.0927 76.9061C51.3993 73.9977 43.6121 71.5087 35.7123 69.4392C34.9805 69.2435 35.2995 68.0689 36.0219 68.2553C43.9217 70.3248 51.7089 72.8138 59.4024 75.7222C60.106 75.9926 59.8058 77.1765 59.0927 76.9061Z" fill="#09070B"/>
<path d="M56.6256 87.9525C50.696 84.6712 44.7477 81.4551 38.9307 77.9407C38.274 77.5399 38.8557 76.4958 39.5124 76.8967C45.3294 80.4111 51.2777 83.6271 57.2073 86.9085C57.8828 87.2814 57.2917 88.3254 56.6256 87.9525Z" fill="#09070B"/>
<path d="M30.9741 53.4709C22.2205 52.3336 13.7015 49.9938 5.44514 46.4421C4.75085 46.1438 5.06047 44.9599 5.75475 45.2582C13.9173 48.7726 22.3331 51.1031 30.9929 52.2311C31.7341 52.3243 31.7247 53.5641 30.9741 53.4709Z" fill="#09070B"/>
<path d="M32.6627 66.0551C25.9919 62.5687 19.0772 59.9492 11.8999 58.1594C11.168 57.9823 11.487 56.7984 12.2095 56.9755C19.4807 58.784 26.4892 61.4687 33.2444 65.0111C33.9199 65.3653 33.3288 66.4094 32.6627 66.0551Z" fill="#09070B"/>
<path d="M28.7975 76.0487C24.8851 73.914 21.2448 71.3225 17.8672 68.2928C17.2855 67.7708 18.1111 66.9318 18.6834 67.4539C21.986 70.4183 25.5606 72.9259 29.3791 75.0047C30.0547 75.3682 29.4636 76.4123 28.7975 76.0487Z" fill="#09070B"/>
<path d="M29.9522 59.3342C26.4902 57.0596 23.2533 54.4495 20.2416 51.5224C19.9601 51.2521 20.373 50.8326 20.6544 51.1029C23.638 53.9927 26.8373 56.5563 30.2524 58.8122C30.5714 59.0266 30.2806 59.5486 29.9616 59.3342H29.9522Z" fill="#09070B"/>
<path d="M21.5938 54.0859C20.7775 53.2376 19.9519 52.3893 19.1357 51.541C18.8636 51.2614 19.2764 50.8419 19.5485 51.1215C20.3647 51.9698 21.1904 52.8181 22.0066 53.6664C22.2787 53.9461 21.8659 54.3656 21.5938 54.0859Z" fill="#09070B"/>
<path d="M23.1501 55.6893C24.745 56.7893 26.2462 58.0385 27.6442 59.4088C27.9256 59.6885 27.5128 60.0986 27.2313 59.8283C25.8615 58.4859 24.4073 57.2834 22.8592 56.2114C22.5402 55.9876 22.8311 55.4656 23.1501 55.6893Z" fill="#09070B"/>
<path d="M16.6565 49.8912C18.5704 53.2471 21.0567 56.025 24.1059 58.2157C24.4249 58.4394 24.1341 58.9615 23.8151 58.7377C20.6908 56.5004 18.1107 53.62 16.1592 50.1801C15.9622 49.8352 16.4594 49.5463 16.6565 49.8912Z" fill="#09070B"/>
<path d="M16.7037 52.1468C17.8484 54.3001 19.3589 56.0993 21.2447 57.5349C21.5543 57.7679 21.2635 58.29 20.9539 58.0569C18.993 56.5654 17.398 54.6823 16.2065 52.4357C16.0188 52.0815 16.5161 51.7925 16.7037 52.1468Z" fill="#09070B"/>
<path d="M12.7179 48.5301C14.3035 51.7089 16.3769 54.4402 18.9476 56.7707C19.2385 57.0317 18.8257 57.4512 18.5348 57.1902C15.9266 54.8317 13.8156 52.0351 12.2112 48.819C12.0329 48.4648 12.5302 48.1758 12.7085 48.5301H12.7179Z" fill="#09070B"/>
<path d="M12.4281 50.8978C13.31 52.3613 14.3233 53.7037 15.4773 54.9342C15.7494 55.2232 15.3366 55.6427 15.0645 55.3537C13.8823 54.0766 12.8409 52.6876 11.9308 51.1868C11.7244 50.8418 12.2217 50.5622 12.4281 50.8978Z" fill="#09070B"/>
<path d="M11.4765 49.1267C11.6548 49.4623 11.8237 49.7979 12.0019 50.1335C12.1896 50.4878 11.6829 50.7767 11.5047 50.4225C11.3264 50.0869 11.1575 49.7513 10.9793 49.4157C10.7916 49.0615 11.2983 48.7725 11.4765 49.1267Z" fill="#09070B"/>
<path d="M8.29795 47.2807C9.93046 49.5367 11.5536 51.7926 13.1861 54.0485C13.4206 54.3654 13.0078 54.7943 12.7733 54.468C11.1501 52.2121 9.51764 49.9562 7.88513 47.7002C7.65058 47.3833 8.0634 46.9545 8.29795 47.2807Z" fill="#09070B"/>
<path d="M6.7792 47.1128C7.57668 48.8467 8.62749 50.3755 9.941 51.7086C10.2131 51.9882 9.80964 52.4077 9.52818 52.1281C8.17714 50.7577 7.08881 49.1823 6.27256 47.4018C6.10368 47.0383 6.60094 46.7493 6.76982 47.1128H6.7792Z" fill="#09070B"/>
<path d="M32.5785 50.6833C30.0359 51.0655 27.5402 51.6062 25.0821 52.324C24.7256 52.4265 24.5848 51.8206 24.932 51.718C27.3901 51.0002 29.8858 50.4596 32.4284 50.0774C32.7943 50.0214 32.9444 50.6274 32.5691 50.6833H32.5785Z" fill="#09070B"/>
<path d="M27.8031 50.5251C26.1236 50.8048 24.4348 51.0844 22.7554 51.3641C22.3895 51.42 22.2394 50.8141 22.6053 50.7581C24.2847 50.4785 25.9735 50.1988 27.6529 49.9192C28.0188 49.8632 28.169 50.4692 27.8031 50.5251Z" fill="#09070B"/>
<path d="M23.675 49.7794C23.3467 49.854 23.0089 49.9379 22.6805 50.0125C22.324 50.0964 22.1739 49.4904 22.5304 49.4065C22.8588 49.332 23.1966 49.2481 23.5249 49.1735C23.8815 49.0896 24.0316 49.6955 23.675 49.7794Z" fill="#09070B"/>
<path d="M21.179 49.2291C19.4432 49.6393 17.6981 50.0588 15.9624 50.4689C15.6059 50.5528 15.4558 49.9469 15.8123 49.863C17.548 49.4528 19.2931 49.0334 21.0288 48.6232C21.3854 48.5393 21.5355 49.1452 21.179 49.2291Z" fill="#09070B"/>
<path d="M18.8704 48.3531C17.6225 48.6514 16.3841 48.9404 15.1456 49.2387C14.7891 49.3226 14.639 48.7167 14.9955 48.6328C16.234 48.3345 17.4818 48.0455 18.7202 47.7472C19.0768 47.6633 19.2269 48.2692 18.8704 48.3531Z" fill="#09070B"/>
<path d="M16.6204 47.7472C15.8792 47.9243 15.1286 48.1014 14.3874 48.2785C14.0309 48.3624 13.8807 47.7565 14.2373 47.6726C14.9785 47.4955 15.729 47.3184 16.4702 47.1413C16.8268 47.0574 16.9769 47.6633 16.6204 47.7472Z" fill="#09070B"/>
<path d="M14.4413 47.4582C13.5876 47.5514 12.7338 47.6446 11.88 47.7378C11.5141 47.7751 11.364 47.1692 11.7299 47.1319C12.5837 47.0387 13.4374 46.9455 14.2818 46.8522C14.6478 46.815 14.7979 47.4209 14.432 47.4582H14.4413Z" fill="#09070B"/>
<path d="M27.7483 55.5683C29.8311 57.1344 31.8671 58.7565 33.8561 60.4437C34.1469 60.6954 33.8561 61.2175 33.5652 60.9658C31.5762 59.2785 29.5403 57.6471 27.4574 56.0904C27.1478 55.8573 27.4387 55.3353 27.7483 55.5683Z" fill="#09070B"/>
<path d="M31.1059 56.8823C32.7665 57.8984 34.3709 59.0171 35.9283 60.2196C36.2379 60.4526 35.9471 60.984 35.6375 60.7416C34.08 59.5298 32.4757 58.4205 30.815 57.4044C30.4866 57.1993 30.7775 56.6772 31.1059 56.8823Z" fill="#09070B"/>
<path d="M33.548 57.358C34.5426 57.6749 35.3776 58.3554 35.9593 59.2783C36.1751 59.6139 35.6684 59.9029 35.462 59.5673C34.9647 58.7749 34.2423 58.2156 33.3979 57.9452C33.0414 57.8334 33.1915 57.2368 33.5574 57.358H33.548Z" fill="#09070B"/>
<path d="M36.3126 69.8775C33.6575 69.8775 31.0305 70.1012 28.4222 70.558C28.0563 70.6232 27.9156 70.0173 28.2815 69.952C30.9366 69.4859 33.62 69.2622 36.3314 69.2622C36.7067 69.2622 36.6973 69.8868 36.3314 69.8868L36.3126 69.8775Z" fill="#09070B"/>
<path d="M35.6937 68.0598C32.485 68.5165 29.3138 69.1598 26.1801 69.9894C25.8236 70.0826 25.6735 69.4767 26.03 69.3835C29.1637 68.5538 32.3349 67.9106 35.5436 67.4538C35.9095 67.3979 36.0596 68.0038 35.6937 68.0598Z" fill="#09070B"/>
<path d="M34.606 67.0712C33.5646 67.1178 32.5326 67.1738 31.4911 67.2204C31.1252 67.239 31.1346 66.6144 31.4911 66.6051C32.5326 66.5585 33.5646 66.5026 34.606 66.456C34.9719 66.4373 34.9626 67.0619 34.606 67.0805V67.0712Z" fill="#09070B"/>
<path d="M29.7467 67.6494C27.9734 67.7986 26.2471 68.1528 24.5489 68.6748C24.1924 68.7867 24.0517 68.1808 24.3988 68.0689C26.1439 67.5282 27.9265 67.1833 29.7467 67.0249C30.1126 66.9969 30.1032 67.6121 29.7467 67.6494Z" fill="#09070B"/>
<path d="M31.8656 66.3072C29.0603 66.6614 26.2644 67.025 23.4591 67.3792C23.0932 67.4258 22.9431 66.8199 23.309 66.7733C26.1143 66.4191 28.9102 66.0555 31.7154 65.7013C32.0813 65.6547 32.2315 66.2606 31.8656 66.3072Z" fill="#09070B"/>
<path d="M30.5424 65.4959C29.8387 65.4959 29.135 65.4772 28.422 65.4679C28.0467 65.4679 28.0561 64.8433 28.422 64.8526C29.1256 64.8526 29.8293 64.8713 30.5424 64.8806C30.9176 64.8806 30.9083 65.5052 30.5424 65.5052V65.4959Z" fill="#09070B"/>
<path d="M27.9808 65.4494C25.7854 65.813 23.5993 66.1765 21.4039 66.5401C21.038 66.596 20.8878 65.9994 21.2537 65.9342C23.4398 65.5706 25.6352 65.207 27.8307 64.8435C28.1966 64.7876 28.3467 65.3935 27.9808 65.4494Z" fill="#09070B"/>
<path d="M28.582 64.2933C27.5781 64.0509 26.593 64.0975 25.6266 64.4144C25.2795 64.5263 25.1294 63.9204 25.4765 63.8085C26.5367 63.4636 27.625 63.4356 28.7321 63.706C29.098 63.7992 28.9385 64.3865 28.5726 64.2933H28.582Z" fill="#09070B"/>
<path d="M24.8033 64.5825C23.2834 64.6757 21.801 64.9461 20.3467 65.3935C19.9902 65.5054 19.8495 64.8995 20.1966 64.7876C21.7072 64.3308 23.2365 64.0605 24.8033 63.9579C25.1692 63.9393 25.1598 64.5545 24.8033 64.5732V64.5825Z" fill="#09070B"/>
<path d="M26.9678 62.7183C25.87 62.7462 24.8005 62.8861 23.7403 63.1471C23.3838 63.231 23.2336 62.6251 23.5902 62.5412C24.6973 62.2708 25.8231 62.131 26.9678 62.103C27.3337 62.103 27.3337 62.7183 26.9678 62.7276V62.7183Z" fill="#09070B"/>
<path d="M22.4368 63.1749C21.0294 63.5105 19.6221 63.8461 18.2148 64.1817C17.8583 64.2656 17.7081 63.6597 18.0647 63.5758C19.472 63.2402 20.8793 62.9046 22.2866 62.569C22.6432 62.4851 22.7933 63.091 22.4368 63.1749Z" fill="#09070B"/>
<path d="M23.4769 62.0285C21.5911 62.2056 19.7615 62.5692 17.9601 63.1285C17.6036 63.2403 17.4629 62.6344 17.81 62.5225C19.6114 61.9632 21.4503 61.5997 23.3268 61.4226C23.6927 61.3853 23.8428 61.9912 23.4769 62.0285Z" fill="#09070B"/>
<path d="M21.6761 61.1427C19.7246 61.3944 17.7731 61.6554 15.8216 61.9071C15.4557 61.9537 15.3056 61.3477 15.6715 61.3011C17.623 61.0494 19.5745 60.7884 21.526 60.5367C21.8919 60.4901 22.042 61.096 21.6761 61.1427Z" fill="#09070B"/>
<path d="M19.1058 60.2198C18.177 60.3503 17.2387 60.4715 16.3099 60.602C15.944 60.6486 15.7939 60.0427 16.1598 59.9961C17.0886 59.8749 18.0268 59.7444 18.9557 59.6139C19.3216 59.5673 19.4717 60.1732 19.1058 60.2198Z" fill="#09070B"/>
<path d="M29.8668 58.9054C31.1897 60.6113 32.6533 62.1588 34.2858 63.5291C34.5766 63.7808 34.2858 64.3028 33.9949 64.0511C32.3343 62.6435 30.8144 61.0774 29.4633 59.3249C29.2194 59.0172 29.6322 58.5884 29.8761 58.9054H29.8668Z" fill="#09070B"/>
<path d="M32.8801 59.9773C34.6627 61.9816 36.436 63.9765 38.2186 65.9807C38.4813 66.279 38.0685 66.6985 37.8058 66.4002C36.0232 64.396 34.2499 62.4011 32.4673 60.3968C32.2046 60.0985 32.6174 59.679 32.8801 59.9773Z" fill="#09070B"/>
<path d="M37.0351 62.8394C38.3111 63.5385 39.3244 64.6385 39.9811 66.0088C40.15 66.3724 39.6528 66.6614 39.4839 66.2978C38.8646 65.0114 37.9358 64.0233 36.7443 63.3707C36.4065 63.1843 36.7067 62.6623 37.0351 62.8487V62.8394Z" fill="#09070B"/>
<path d="M35.16 63.6598C35.9387 64.4801 36.6048 65.3936 37.1584 66.3911C37.3554 66.7453 36.8488 67.0343 36.6611 66.6801C36.1264 65.7199 35.4977 64.8623 34.7472 64.0792C34.4751 63.7903 34.8879 63.3708 35.16 63.6598Z" fill="#09070B"/>
<path d="M28.5343 58.9522C29.1723 59.7446 29.8197 60.537 30.4577 61.32C30.7016 61.6276 30.2982 62.0471 30.0449 61.7395C29.4069 60.9471 28.7595 60.1548 28.1215 59.3717C27.8776 59.0641 28.281 58.6446 28.5343 58.9522Z" fill="#09070B"/>
<path d="M27.2589 59.2783C27.6811 59.8283 28.1033 60.3783 28.5349 60.9283C28.7788 61.2359 28.366 61.6647 28.1221 61.3477C27.6999 60.7977 27.2777 60.2478 26.8461 59.6978C26.6022 59.3808 27.015 58.9613 27.2589 59.2783Z" fill="#09070B"/>
<path d="M25.27 58.5976C25.6734 59.1663 26.0675 59.7349 26.4709 60.3036C26.6961 60.6205 26.2927 61.0493 26.0675 60.723C25.664 60.1544 25.27 59.5858 24.8666 59.0171C24.6414 58.7002 25.0448 58.2714 25.2794 58.5976H25.27Z" fill="#09070B"/>
<path d="M40.3007 54.3188C53.8486 54.1324 67.3496 55.7917 80.6442 59.2595C81.0101 59.3527 80.8506 59.94 80.4847 59.8467C67.2371 56.3883 53.783 54.7476 40.2913 54.9341C39.9161 54.9341 39.9254 54.3188 40.2913 54.3188H40.3007Z" fill="#09070B"/>
<path d="M102.392 67.5471C100.984 65.3284 99.0423 63.6412 96.7342 62.6251C96.3871 62.4759 96.5372 61.8793 96.8937 62.0378C99.3425 63.1191 101.388 64.8996 102.889 67.2581C103.105 67.5937 102.598 67.8827 102.392 67.5471Z" fill="#09070B"/>
<path d="M86.5193 57.9079C83.6577 57.7494 80.8243 57.8333 78.0002 58.1782C77.6343 58.2248 77.4842 57.6189 77.8501 57.5723C80.7305 57.2274 83.6108 57.1341 86.5287 57.2926C86.904 57.3113 86.8946 57.9358 86.5287 57.9079H86.5193Z" fill="#09070B"/>
<path d="M83.7572 56.3048C82.3123 56.3048 80.8862 56.4446 79.4695 56.7149C79.1036 56.7895 78.9629 56.1836 79.3194 56.109C80.783 55.82 82.256 55.6802 83.7572 55.6802C84.1325 55.6802 84.1231 56.3048 83.7572 56.3048Z" fill="#09070B"/>
<path d="M79.5185 55.0834C76.732 55.2979 74.0581 55.9131 71.4686 56.9572C71.1308 57.097 70.84 56.547 71.1777 56.4072C73.8704 55.3258 76.6288 54.6826 79.5279 54.4682C79.8938 54.4402 79.8844 55.0648 79.5279 55.0928L79.5185 55.0834Z" fill="#09070B"/>
<path d="M75.2705 54.8037C73.6661 54.9249 72.0993 55.2512 70.5794 55.7452C70.2322 55.8571 70.0821 55.2512 70.4293 55.1393C72.0055 54.6266 73.6192 54.3097 75.2799 54.1791C75.6458 54.1512 75.6364 54.7664 75.2799 54.8037H75.2705Z" fill="#09070B"/>
<path d="M70.6321 55.9972C69.9659 56.1557 69.3092 56.3141 68.6431 56.4726C68.2865 56.5565 68.1364 55.9506 68.4929 55.8667C69.1591 55.7082 69.8158 55.5497 70.482 55.3913C70.8385 55.3074 70.9886 55.9133 70.6321 55.9972Z" fill="#09070B"/>
<path d="M71.5346 54.2909C69.1609 54.9807 66.7966 55.6799 64.4229 56.3697C64.0663 56.4723 63.9256 55.8663 64.2727 55.7638C66.6464 55.074 69.0108 54.3748 71.3845 53.685C71.741 53.5824 71.8817 54.1884 71.5346 54.2909Z" fill="#09070B"/>
<path d="M64.6477 55.1393C63.9816 55.2977 63.3248 55.4562 62.6587 55.6147C62.3022 55.6986 62.152 55.0927 62.5086 55.0088C63.1747 54.8503 63.8315 54.6918 64.4976 54.5333C64.8541 54.4494 65.0042 55.0554 64.6477 55.1393Z" fill="#09070B"/>
<path d="M68.6273 53.1256C65.503 53.6197 62.4444 54.3189 59.414 55.2231C59.0574 55.3256 58.9167 54.7197 59.2638 54.6172C62.2943 53.7222 65.3623 53.0231 68.4772 52.529C68.8431 52.4731 68.9932 53.079 68.6273 53.135V53.1256Z" fill="#09070B"/>
<path d="M60.2747 54.4684C59.5335 54.6455 58.7829 54.8226 58.0417 54.9997C57.6852 55.0836 57.535 54.4777 57.8916 54.3938C58.6328 54.2167 59.3833 54.0396 60.1245 53.8624C60.4811 53.7785 60.6312 54.3845 60.2747 54.4684Z" fill="#09070B"/>
<path d="M61.6826 52.9394C59.7405 53.0513 57.9016 53.5267 56.1471 54.3657C55.8093 54.5241 55.5185 53.9741 55.8562 53.8157C57.7045 52.9394 59.6466 52.4453 61.692 52.3241C62.0579 52.3055 62.0485 52.9208 61.692 52.9394H61.6826Z" fill="#09070B"/>
<path d="M55.0322 53.7319C54.2066 53.7878 53.4372 54.0488 52.7242 54.4683C52.4052 54.6548 52.1143 54.1048 52.4333 53.9183C53.2402 53.4429 54.1034 53.1819 55.0416 53.1166C55.4075 53.0887 55.3981 53.7132 55.0416 53.7319H55.0322Z" fill="#09070B"/>
<path d="M54.0847 52.464C53.0996 53.0886 52.0581 53.5454 50.9417 53.8623C50.5851 53.9649 50.4444 53.3589 50.7916 53.2564C51.8517 52.9581 52.8463 52.5106 53.7939 51.914C54.1129 51.7183 54.3943 52.2683 54.0847 52.464Z" fill="#09070B"/>
<path d="M52.0938 52.1284C50.3206 52.4919 48.7068 53.2377 47.262 54.375C46.9711 54.608 46.5583 54.1513 46.8492 53.9182C48.3691 52.7063 50.0579 51.9047 51.9343 51.5225C52.3002 51.4479 52.441 52.0538 52.0844 52.1284H52.0938Z" fill="#09070B"/>
<path d="M48.2761 52.1095C47.5724 52.9299 46.6717 53.4612 45.6491 53.6943C45.2926 53.7782 45.1425 53.1722 45.499 53.0883C46.4372 52.8739 47.2253 52.3985 47.8727 51.6528C48.1166 51.3638 48.5294 51.8206 48.2761 52.1095Z" fill="#09070B"/>
<path d="M43.8482 53.5267C43.1633 53.9835 42.4128 54.2631 41.5965 54.3377C41.2306 54.375 41.0805 53.7691 41.4464 53.7318C42.2157 53.6572 42.91 53.4148 43.5574 52.9767C43.867 52.7716 44.1578 53.3216 43.8482 53.5267Z" fill="#09070B"/>
<path d="M44.4586 51.5598C42.6666 53.0886 40.6025 53.9276 38.2851 54.0768C37.9192 54.1047 37.9286 53.4802 38.2851 53.4522C40.4336 53.3124 42.3851 52.5107 44.0458 51.0937C44.3273 50.8514 44.7401 51.3081 44.4586 51.5505V51.5598Z" fill="#09070B"/>
<path d="M40.563 51.9606C38.9492 52.8741 37.2511 53.4894 35.4309 53.8157C35.065 53.8809 34.9243 53.275 35.2808 53.2097C37.0447 52.8928 38.7053 52.3055 40.2721 51.4106C40.5911 51.2241 40.882 51.7741 40.563 51.9606Z" fill="#09070B"/>
<path d="M38.1817 51.7741C37.3186 52.2681 36.4085 52.5664 35.414 52.6596C35.0481 52.6969 34.898 52.091 35.2639 52.0537C36.2021 51.9605 37.0652 51.6902 37.8815 51.2241C38.2005 51.0376 38.4913 51.5876 38.1724 51.7741H38.1817Z" fill="#09070B"/>
<path d="M39.6917 58.0945C38.8661 57.6377 38.0498 57.1903 37.2242 56.7335C36.8864 56.5471 37.1867 56.025 37.515 56.2115C38.3407 56.6683 39.1569 57.1157 39.9826 57.5725C40.3203 57.7589 40.0295 58.281 39.6917 58.0945Z" fill="#09070B"/>
<path d="M41.7366 57.8984C41.1361 57.5629 40.5263 57.2366 39.9258 56.901C39.5881 56.7146 39.8883 56.1925 40.2167 56.379C40.8171 56.7146 41.427 57.0408 42.0274 57.3764C42.3652 57.5629 42.065 58.0849 41.7366 57.8984Z" fill="#09070B"/>
<path d="M45.1785 56.7612C43.9963 55.9129 42.8235 55.0646 41.6414 54.2163C41.3318 53.9925 41.6132 53.4705 41.9322 53.6942C43.1144 54.5425 44.2872 55.3908 45.4693 56.2391C45.7789 56.4629 45.4881 56.9849 45.1785 56.7612Z" fill="#09070B"/>
<path d="M47.8359 57.0037C47.029 56.5656 46.3066 55.969 45.7061 55.2326C45.4528 54.9249 45.8656 54.5055 46.1095 54.8131C46.6819 55.5122 47.348 56.0622 48.1173 56.4817C48.4551 56.6682 48.1642 57.1902 47.8265 57.0037H47.8359Z" fill="#09070B"/>
<path d="M49.9918 57.2834C49.1755 56.2673 48.256 55.3724 47.2334 54.608C46.9238 54.3749 47.2146 53.8529 47.5242 54.0859C48.5844 54.8876 49.5414 55.8105 50.3952 56.8639C50.6391 57.1715 50.2357 57.591 49.9824 57.2834H49.9918Z" fill="#09070B"/>
<path d="M52.0085 56.8823C51.4831 56.5374 50.9576 56.1925 50.4322 55.8476C50.1132 55.6332 50.4041 55.1112 50.7231 55.3256C51.2485 55.6705 51.7739 56.0154 52.2993 56.3696C52.6183 56.584 52.3275 57.1061 52.0085 56.8917V56.8823Z" fill="#09070B"/>
<path d="M54.4304 57.181C53.267 56.3141 52.1036 55.4378 50.9309 54.5708C50.6212 54.3378 50.9121 53.8158 51.2217 54.0488C52.3851 54.9158 53.5485 55.792 54.7213 56.659C55.0309 56.892 54.74 57.414 54.4304 57.181Z" fill="#09070B"/>
<path d="M56.6081 57.5256C55.8763 57.0315 55.1444 56.5467 54.4126 56.0527C54.0936 55.8383 54.3845 55.3162 54.7035 55.5307C55.4353 56.0247 56.1671 56.5095 56.8989 57.0035C57.2179 57.2179 56.9271 57.74 56.6081 57.5256Z" fill="#09070B"/>
<path d="M57.9755 57.9921C57.1874 57.2183 56.3993 56.4446 55.6205 55.6709C55.3391 55.3912 55.7519 54.9717 56.0334 55.2514C56.8215 56.0251 57.6096 56.7989 58.3883 57.5726C58.6698 57.8522 58.2569 58.2624 57.9755 57.9921Z" fill="#09070B"/>
<path d="M61.1021 58.7375C60.117 57.9264 59.1319 57.1154 58.1467 56.3044C57.8465 56.062 58.1467 55.5307 58.4376 55.7824C59.4227 56.5934 60.4079 57.4044 61.393 58.2154C61.6932 58.4578 61.393 58.9891 61.1021 58.7375Z" fill="#09070B"/>
<path d="M63.2879 59.0731C62.406 58.3367 61.5334 57.591 60.6515 56.8545C60.3607 56.6028 60.6515 56.0808 60.9423 56.3325C61.8243 57.0689 62.6968 57.8147 63.5787 58.5511C63.8696 58.8028 63.5787 59.3248 63.2879 59.0731Z" fill="#09070B"/>
<path d="M66.1025 59.8095C64.8265 58.7561 63.6538 57.6002 62.5748 56.3231C62.3215 56.0248 62.7249 55.596 62.9876 55.9036C64.029 57.1434 65.1643 58.2714 66.4027 59.2875C66.703 59.5299 66.4027 60.0612 66.1119 59.8095H66.1025Z" fill="#09070B"/>
<path d="M68.9741 56.9945C70.4565 57.9733 71.77 59.1945 72.8865 60.6394C73.1304 60.9564 72.7176 61.3759 72.4736 61.0589C71.3947 59.6513 70.1281 58.4674 68.6832 57.5166C68.3642 57.3021 68.6551 56.7801 68.9741 56.9945Z" fill="#09070B"/>
<path d="M72.4734 58.2065C73.3084 59.0361 74.1528 59.8565 74.9878 60.6861C75.2693 60.9658 74.8564 61.3853 74.5843 61.1056C73.7493 60.276 72.9049 59.4556 72.0605 58.626C71.7791 58.3463 72.1919 57.9268 72.4734 58.2065Z" fill="#09070B"/>
<path d="M74.6598 58.7749C75.1007 59.1477 75.5323 59.5206 75.9733 59.8935C76.2641 60.1452 75.9733 60.6672 75.6824 60.4155C75.2415 60.0427 74.8099 59.6698 74.3689 59.2969C74.0781 59.0452 74.3689 58.5232 74.6598 58.7749Z" fill="#09070B"/>
<path d="M77.0141 58.5697C77.3518 58.868 77.6802 59.1663 78.018 59.4739C78.3088 59.735 77.896 60.1544 77.6051 59.8934C77.2674 59.5951 76.9296 59.2968 76.6012 58.9892C76.3104 58.7282 76.7232 58.3087 77.0141 58.5697Z" fill="#09070B"/>
<path d="M59.0999 71.0798C56.942 68.2179 54.4933 65.7103 51.7255 63.5476C51.4159 63.3052 51.7068 62.7832 52.0164 63.0256C54.8217 65.2162 57.3267 67.7518 59.5034 70.6603C59.7379 70.9772 59.3345 71.3967 59.0999 71.0798Z" fill="#09070B"/>
<path d="M56.7566 70.4554C56.1937 69.5885 55.5088 68.852 54.7207 68.2368C54.4111 68.0037 54.7019 67.4724 55.0116 67.7148C55.8935 68.3953 56.6441 69.2156 57.2633 70.1664C57.4791 70.502 56.9818 70.791 56.766 70.4554H56.7566Z" fill="#09070B"/>
<path d="M53.6783 67.2578C52.4398 65.6358 51.0512 64.1909 49.4938 62.9138C49.1936 62.6714 49.4844 62.1401 49.7846 62.3918C51.3796 63.6968 52.8057 65.1697 54.0817 66.8383C54.3256 67.1553 53.9128 67.5748 53.6783 67.2578Z" fill="#09070B"/>
<path d="M54.3184 69.6161C52.1699 67.2856 50.0214 64.9551 47.8728 62.6246C47.6007 62.3357 48.0136 61.9162 48.2856 62.2052C50.4342 64.5357 52.5827 66.8662 54.7312 69.1966C55.0033 69.4856 54.5905 69.9051 54.3184 69.6161Z" fill="#09070B"/>
<path d="M52.4307 69.8495C51.9053 69.2343 51.3705 68.619 50.8451 68.0038C50.5918 67.7055 50.9952 67.286 51.2579 67.5843C51.7833 68.1995 52.3181 68.8148 52.8435 69.43C53.0968 69.7283 52.6934 70.1478 52.4307 69.8495Z" fill="#09070B"/>
<path d="M49.1948 66.2602C48.3598 64.9551 47.3747 63.8085 46.2394 62.7924C45.9486 62.5314 46.3614 62.1119 46.6522 62.3729C47.825 63.417 48.8383 64.6195 49.7015 65.9712C49.9173 66.3068 49.4106 66.5958 49.2042 66.2602H49.1948Z" fill="#09070B"/>
<path d="M50.5437 69.1598C48.095 67.0623 45.8245 64.7598 43.7416 62.2335C43.4883 61.9259 43.9011 61.5064 44.1545 61.8141C46.1998 64.2937 48.4234 66.5683 50.8346 68.6377C51.1255 68.8894 50.8346 69.4115 50.5437 69.1598Z" fill="#09070B"/>
<path d="M48.3211 68.8893C45.9005 66.8198 43.827 64.4148 42.0819 61.6741C41.8661 61.3385 42.3728 61.0495 42.5792 61.3851C44.268 64.0326 46.2758 66.3631 48.6119 68.3673C48.9028 68.619 48.612 69.141 48.3211 68.8893Z" fill="#09070B"/>
<path d="M46.2859 68.2649C43.9779 66.3166 41.9795 64.0607 40.2813 61.4878C40.0655 61.1522 40.5628 60.8726 40.7786 61.1989C42.4205 63.6785 44.3532 65.8598 46.5768 67.7429C46.8676 67.9946 46.5768 68.5166 46.2859 68.2649Z" fill="#09070B"/>
<path d="M43.622 67.1085C42.0082 65.5051 40.5352 63.7713 39.2029 61.8882C38.9778 61.5713 39.3812 61.1425 39.6158 61.4687C40.948 63.3518 42.4117 65.0857 44.0348 66.689C44.3162 66.9687 43.9034 67.3882 43.622 67.1085Z" fill="#09070B"/>
<path d="M40.648 65.5051C39.5503 64.3119 38.6027 62.9975 37.7865 61.5713C37.5894 61.2264 38.0867 60.9374 38.2837 61.2823C39.0718 62.6619 39.9913 63.9297 41.0515 65.0856C41.3142 65.3746 40.9107 65.7941 40.6386 65.5051H40.648Z" fill="#09070B"/>
<path d="M58.0127 66.2604C59.3637 68.0036 60.7054 69.7468 62.0564 71.4807C62.3003 71.7977 61.8875 72.2171 61.6436 71.9002C60.2925 70.157 58.9509 68.4138 57.5998 66.6706C57.3559 66.3629 57.7687 65.9341 58.0127 66.2511V66.2604Z" fill="#09070B"/>
<path d="M58.4936 64.3681C59.4036 65.5706 60.3137 66.7825 61.2144 67.985C61.449 68.302 61.0455 68.7215 60.8016 68.4045C59.8915 67.202 58.9814 65.9901 58.0807 64.7876C57.8462 64.4707 58.2496 64.0512 58.4936 64.3681Z" fill="#09070B"/>
<path d="M61.2242 65.8036C61.759 67.0527 62.4533 68.1807 63.3258 69.2061C63.5791 69.5044 63.1757 69.9332 62.9224 69.6256C62.0217 68.5629 61.2899 67.3883 60.7363 66.0832C60.5768 65.7197 61.0835 65.4214 61.2336 65.7942L61.2242 65.8036Z" fill="#09070B"/>
<path d="M62.4627 65.9435C63.1007 66.4469 63.4666 67.1554 63.551 67.9944C63.5885 68.3952 63.0068 68.3579 62.9693 67.9571C62.913 67.3605 62.6222 66.8291 62.1718 66.4656C61.8716 66.2232 62.1624 65.7012 62.4627 65.9435Z" fill="#09070B"/>
<path d="M45.9111 55.2698C40.0472 54.2164 34.1833 53.1723 28.3101 52.2028C27.9442 52.1469 27.9442 51.5223 28.3101 51.5782C34.1833 52.5384 40.0472 53.5918 45.9111 54.6452C46.277 54.7104 46.277 55.335 45.9111 55.2698Z" fill="#09070B"/>
<path d="M68.9536 62.1123C66.1108 62.653 63.3524 63.4453 60.6691 64.5267C60.3313 64.6665 60.0405 64.1165 60.3783 63.9767C63.1085 62.8767 65.9138 62.0564 68.8035 61.5064C69.1694 61.4411 69.3101 62.047 68.9536 62.1123Z" fill="#09070B"/>
<path d="M64.1976 62.0281C62.6683 62.5781 61.1296 63.1281 59.6003 63.6781C59.2532 63.7993 59.1124 63.1934 59.4502 63.0722C60.9795 62.5222 62.5182 61.9722 64.0475 61.4222C64.3946 61.301 64.5353 61.9069 64.1976 62.0281Z" fill="#09070B"/>
<path d="M64.7514 61.3384C65.061 61.1706 65.3706 61.0028 65.6802 60.835C66.0086 60.6579 66.2994 61.2079 65.971 61.385C65.6614 61.5528 65.3518 61.7206 65.0422 61.8884C64.7138 62.0655 64.423 61.5155 64.7514 61.3384Z" fill="#09070B"/>
<path d="M61.4661 61.5717C59.8242 61.9819 58.248 62.5692 56.7187 63.3336C56.3903 63.5014 56.0994 62.9513 56.4278 62.7836C57.9946 62.0005 59.6178 61.3946 61.316 60.9658C61.6725 60.8726 61.8226 61.4785 61.4661 61.5717Z" fill="#09070B"/>
<path d="M59.0379 61.3198C56.8519 61.7486 54.7315 62.3545 52.658 63.1562C52.3109 63.2867 52.1702 62.6808 52.5079 62.5503C54.5814 61.7486 56.7112 61.1427 58.8972 60.7139C59.2631 60.6393 59.4039 61.2452 59.0473 61.3198H59.0379Z" fill="#09070B"/>
<path d="M57.2161 60.3036C54.3451 61.1146 51.4741 61.9256 48.6126 62.7366C48.2561 62.8392 48.1153 62.2333 48.4625 62.1307C51.3334 61.3197 54.195 60.5087 57.066 59.6977C57.4225 59.5951 57.5726 60.2011 57.2161 60.3036Z" fill="#09070B"/>
<path d="M52.6585 60.9563C51.1292 61.5435 49.5999 62.1215 48.0612 62.7088C47.7141 62.8393 47.5734 62.2334 47.9205 62.1029C49.4498 61.5156 50.9791 60.9376 52.5084 60.3503C52.8555 60.2198 52.9963 60.8258 52.6585 60.9563Z" fill="#09070B"/>
<path d="M53.7747 59.1103C49.9092 60.1637 46.0531 61.2077 42.1876 62.2611C41.8311 62.3543 41.681 61.7484 42.0375 61.6552C45.903 60.6018 49.7591 59.5577 53.6245 58.5043C53.9811 58.4111 54.1312 59.0171 53.7747 59.1103Z" fill="#09070B"/>
<path d="M48.1257 59.6416C46.7653 59.8746 45.5175 60.3407 44.3353 61.0585C44.0163 61.2543 43.7255 60.7043 44.0444 60.5085C45.2641 59.7628 46.5776 59.2687 47.985 59.0357C48.3509 58.9704 48.501 59.5763 48.1351 59.6416H48.1257Z" fill="#09070B"/>
<path d="M45.9962 59.2409C44.5045 59.9214 43.0033 60.5926 41.5115 61.2731C41.1738 61.4223 40.8829 60.8723 41.2207 60.7231C42.7125 60.0426 44.2136 59.3714 45.7054 58.6909C46.0432 58.5418 46.334 59.0918 45.9962 59.2409Z" fill="#09070B"/>
<path d="M42.2141 60.1827C41.7169 60.3039 41.2196 60.4158 40.7223 60.537C40.3658 60.6209 40.2157 60.0149 40.5722 59.931C41.0695 59.8098 41.5667 59.698 42.064 59.5768C42.4205 59.4929 42.5706 60.0988 42.2141 60.1827Z" fill="#09070B"/>
<path d="M44.3537 57.8704C42.1301 58.784 40.066 59.9679 38.1426 61.4594C37.8518 61.6924 37.5609 61.1331 37.8518 60.9094C39.7751 59.4272 41.8299 58.234 44.0628 57.3204C44.4006 57.1806 44.6914 57.7306 44.3537 57.8704Z" fill="#09070B"/>
<path d="M60.7067 72.6182C59.4119 72.9445 58.089 72.8513 56.8131 72.3386C56.4659 72.1987 56.616 71.6021 56.9726 71.7513C58.1547 72.2267 59.3556 72.3106 60.5659 72.0123C60.9225 71.9191 61.0726 72.525 60.7161 72.6182H60.7067Z" fill="#09070B"/>
<path d="M54.8812 71.9748C50.8281 71.1172 46.8031 70.129 42.7969 69.0104C42.431 68.9078 42.5905 68.3206 42.9564 68.4231C46.9626 69.5417 50.9876 70.5299 55.0407 71.3875C55.4066 71.4621 55.2471 72.0587 54.8812 71.9748Z" fill="#09070B"/>
<path d="M40.8561 68.3672C40.3307 68.0223 39.8053 67.6774 39.2799 67.3325C38.9609 67.1181 39.2518 66.596 39.5707 66.8104C40.0961 67.1554 40.6216 67.5003 41.147 67.8452C41.466 68.0596 41.1751 68.5816 40.8561 68.3672Z" fill="#09070B"/>
<path d="M57.7433 80.4389C56.6362 78.3135 55.4072 76.2627 54.0468 74.3144C53.8216 73.9881 54.225 73.5686 54.4596 73.8949C55.8575 75.8898 57.1241 77.9686 58.25 80.1499C58.4376 80.5042 57.931 80.7932 57.7527 80.4389H57.7433Z" fill="#09070B"/>
<path d="M56.6746 81.0171C55.2766 78.5561 53.7849 76.1697 52.1805 73.8578C51.9553 73.5316 52.3588 73.1121 52.5933 73.4383C54.2352 75.7968 55.7645 78.2205 57.1812 80.7281C57.3783 81.073 56.881 81.362 56.684 81.0171H56.6746Z" fill="#09070B"/>
<path d="M51.9918 73.5035C52.3296 74.7526 52.8831 75.8806 53.6619 76.8967C53.9058 77.2043 53.493 77.6331 53.249 77.3162C52.4046 76.2162 51.7948 74.995 51.4289 73.634C51.3257 73.2425 51.8886 73.112 51.9918 73.5035Z" fill="#09070B"/>
<path d="M53.8506 78.034C54.5355 78.7984 55.0327 79.684 55.3517 80.6814C55.4737 81.0636 54.9201 81.1941 54.7888 80.8119C54.4979 79.9264 54.0476 79.1433 53.4377 78.4535C53.175 78.1552 53.5879 77.7357 53.8506 78.034Z" fill="#09070B"/>
<path d="M51.1459 75.545C51.7558 76.3281 52.2531 77.1764 52.6283 78.1086C52.7785 78.4814 52.2812 78.7704 52.1311 78.3975C51.7746 77.5213 51.3148 76.7103 50.7425 75.9645C50.4986 75.6569 50.9114 75.2281 51.1553 75.545H51.1459Z" fill="#09070B"/>
<path d="M49.0732 73.2519C49.4954 73.9137 49.9176 74.5756 50.3304 75.2281C50.5462 75.5637 50.0395 75.8527 49.8331 75.5171C49.4109 74.8552 48.9887 74.1934 48.5759 73.5315C48.3601 73.1959 48.8667 72.907 49.0732 73.2425V73.2519Z" fill="#09070B"/>
<path d="M46.3787 72.1988C47.4295 74.4174 48.7149 76.431 50.2723 78.286C50.5256 78.5843 50.1128 79.0132 49.8595 78.7055C48.2739 76.8132 46.951 74.7437 45.872 72.4878C45.7032 72.1242 46.2004 71.8352 46.3693 72.1988H46.3787Z" fill="#09070B"/>
<path d="M44.185 71.2757C44.9356 73.2706 45.9489 75.0884 47.2624 76.7384C47.5063 77.0461 47.1029 77.4749 46.8496 77.1579C45.5079 75.4706 44.4571 73.6062 43.6878 71.5647C43.547 71.1918 44.0443 70.9029 44.185 71.2757Z" fill="#09070B"/>
<path d="M42.1036 71.7883C43.3327 73.5874 44.5524 75.3773 45.7814 77.1764C46.0066 77.5027 45.5 77.7916 45.2842 77.4654C44.0645 75.6662 42.8354 73.8764 41.6063 72.0773C41.3812 71.751 41.8878 71.462 42.1036 71.7883Z" fill="#09070B"/>
<path d="M40.2641 70.8003C41.0241 72.4597 41.9529 73.9885 43.0788 75.4054C43.3227 75.713 42.9193 76.1325 42.666 75.8249C41.5026 74.38 40.5362 72.8046 39.7575 71.0893C39.5886 70.7258 40.0952 70.4368 40.2547 70.8003H40.2641Z" fill="#09070B"/>
<path d="M38.3125 70.1106C38.8942 71.4903 39.7199 72.6649 40.7894 73.6623C41.0803 73.9327 40.6675 74.3428 40.3766 74.0818C39.2695 73.0564 38.4064 71.8166 37.8059 70.3996C37.6464 70.0361 38.153 69.7378 38.3032 70.1106H38.3125Z" fill="#09070B"/>
<path d="M56.3165 83.2637C55.519 82.8908 54.7215 82.518 53.9241 82.1451C53.5863 81.9866 53.7364 81.39 54.0836 81.5578C54.881 81.9307 55.6785 82.3035 56.476 82.6764C56.8232 82.8349 56.6637 83.4315 56.3165 83.2637Z" fill="#09070B"/>
<path d="M52.5527 81.9025C49.8975 81.2407 47.355 80.1873 44.9531 78.761C44.6247 78.5653 44.9156 78.0432 45.244 78.239C47.6083 79.6466 50.0946 80.672 52.7028 81.3152C53.0687 81.4085 52.9092 81.9957 52.5433 81.9025H52.5527Z" fill="#09070B"/>
<path d="M52.6308 84.8672C53.3157 85.8367 54.0006 86.8155 54.6761 87.7849C54.9013 88.1019 54.4978 88.5307 54.2633 88.2044C53.5784 87.235 52.8935 86.2561 52.2086 85.2867C51.9834 84.9697 52.3868 84.5409 52.6214 84.8672H52.6308Z" fill="#09070B"/>
<path d="M50.8099 83.9723C51.7762 85.4545 52.752 86.9274 53.7184 88.4096C53.9342 88.7451 53.4369 89.0248 53.2211 88.6985C52.2547 87.2163 51.279 85.7435 50.3126 84.2613C50.0968 83.9257 50.5941 83.646 50.8099 83.9723Z" fill="#09070B"/>
<path d="M48.4814 82.7977C49.4665 84.3731 50.4423 85.9485 51.4274 87.524C51.6338 87.8596 51.1365 88.1485 50.9301 87.8129C49.945 86.2375 48.9693 84.6621 47.9841 83.0867C47.7777 82.7511 48.275 82.4621 48.4814 82.7977Z" fill="#09070B"/>
<path d="M46.9443 82.0238C47.5729 83.6645 48.4548 85.1281 49.5995 86.4238C49.8622 86.7221 49.4493 87.1416 49.1866 86.8433C48.0045 85.5103 47.085 84.0001 46.4377 82.3035C46.2969 81.9306 46.7942 81.6416 46.9349 82.0145L46.9443 82.0238Z" fill="#09070B"/>
<path d="M44.2722 80.6722C45.1166 82.2755 46.158 83.6925 47.4058 84.9696C47.6779 85.2492 47.2745 85.6687 46.993 85.3891C45.717 84.084 44.6475 82.6018 43.7749 80.9611C43.5873 80.6069 44.0845 80.3179 44.2722 80.6722Z" fill="#09070B"/>
<path d="M42.4863 79.973C43.387 81.4272 44.4096 82.7603 45.573 83.9908C45.8451 84.2798 45.4323 84.6993 45.1602 84.4103C43.9687 83.1425 42.9085 81.7628 41.9796 80.262C41.7732 79.9264 42.2705 79.6374 42.4769 79.973H42.4863Z" fill="#09070B"/>
<path d="M40.959 78.8826C41.8222 80.2903 42.6853 81.7072 43.5485 83.1148C43.7549 83.4597 43.2576 83.7394 43.0512 83.4038C42.1881 81.9962 41.3249 80.5792 40.4711 79.1716C40.2647 78.8267 40.762 78.547 40.9684 78.8826H40.959Z" fill="#09070B"/>
<path d="M38.059 77.8758C38.8847 79.3953 39.8885 80.7469 41.0895 81.9588C41.3709 82.2385 40.9581 82.6579 40.6767 82.3783C39.4476 81.1385 38.4062 79.7308 37.5524 78.1647C37.3647 77.8105 37.862 77.5215 38.0496 77.8758H38.059Z" fill="#09070B"/>
<path d="M40.0848 87.8782C38.2459 86.4146 36.3319 85.0723 34.3429 83.8604C34.0145 83.6553 34.3053 83.1333 34.6337 83.3384C36.6227 84.5502 38.5367 85.8926 40.3756 87.3562C40.6759 87.5985 40.385 88.1206 40.0848 87.8782Z" fill="#09070B"/>
<path d="M38.151 87.8408C37.119 87.123 36.0776 86.4052 35.0455 85.6874C34.7265 85.4637 35.0174 84.9417 35.3364 85.1654C36.3684 85.8832 37.4098 86.601 38.4419 87.3188C38.7609 87.5425 38.47 88.0646 38.151 87.8408Z" fill="#09070B"/>
<path d="M38.1045 88.9316C37.5322 88.2698 36.8379 87.7944 36.0404 87.5333C35.6839 87.4122 35.834 86.8249 36.1999 86.9461C37.0912 87.235 37.8793 87.7757 38.5173 88.5122C38.7706 88.8105 38.3672 89.23 38.1045 88.9316Z" fill="#09070B"/>
<path d="M42.8063 89.8356C47.2441 93.5178 51.9821 97.2372 57.7427 96.8364C58.1087 96.8084 58.0993 97.433 57.7427 97.461C51.8695 97.8711 47.0377 94.1237 42.5154 90.3669C42.2152 90.1246 42.5154 89.5932 42.8063 89.8449V89.8356Z" fill="#09070B"/>
<path d="M53.3426 97.4424C54.4403 97.6568 55.5474 97.8712 56.6451 98.0856C57.011 98.1602 57.0016 98.7754 56.6451 98.7008C55.538 98.4864 54.4403 98.272 53.3426 98.0576C52.9767 97.9831 52.9767 97.3678 53.3426 97.4331V97.4424Z" fill="#09070B"/>
<path d="M56.2399 99.5397C56.9436 99.5304 57.6473 99.5118 58.3509 99.5024C58.7262 99.5024 58.7169 100.118 58.3509 100.127C57.6473 100.136 56.9436 100.155 56.2399 100.164C55.8647 100.164 55.874 99.5491 56.2399 99.5491V99.5397Z" fill="#09070B"/>
<path d="M57.5264 92.4271C55.5842 92.1941 53.7547 91.4483 52.1316 90.2178C51.822 89.9848 52.1128 89.4627 52.4224 89.6958C53.9611 90.861 55.6781 91.5881 57.5264 91.8119C57.8923 91.8585 57.8923 92.4737 57.5264 92.4364V92.4271Z" fill="#09070B"/>
<path d="M57.4228 94.1238C55.8841 93.8349 54.4487 93.2289 53.1164 92.3154C52.7974 92.0916 53.0882 91.5696 53.4072 91.7933C54.6457 92.651 55.9967 93.2382 57.4322 93.5086C57.7981 93.5738 57.7887 94.1984 57.4322 94.1332L57.4228 94.1238Z" fill="#09070B"/>
<path d="M57.6771 95.2517C56.1384 95.2051 54.6561 94.7576 53.2862 93.9373C52.9579 93.7415 53.2487 93.2195 53.5771 93.4153C54.8625 94.1797 56.2416 94.5898 57.6865 94.6364C58.0524 94.6458 58.0524 95.2703 57.6865 95.2517H57.6771Z" fill="#09070B"/>
<path d="M43.5299 84.7831C41.2031 83.4314 39.1015 81.7442 37.2251 79.7306C36.953 79.4416 37.3658 79.0221 37.6379 79.3111C39.4768 81.2874 41.5409 82.9374 43.8302 84.2611C44.1679 84.4569 43.8677 84.9789 43.5393 84.7831H43.5299Z" fill="#09070B"/>
<path d="M29.6056 71.8068C27.8511 72.5992 25.9465 72.6085 24.1452 71.7789C23.798 71.6204 23.9575 71.0238 24.3047 71.1916C25.9559 71.956 27.701 71.9933 29.3148 71.2661C29.6525 71.117 29.9434 71.667 29.6056 71.8161V71.8068Z" fill="#09070B"/>
<path d="M26.5576 70.7817C25.2722 70.8935 24.0056 70.7817 22.739 70.4834C22.3731 70.3995 22.5326 69.8029 22.8985 69.8961C24.1182 70.1851 25.3379 70.269 26.567 70.1664C26.9329 70.1385 26.9235 70.7537 26.567 70.791L26.5576 70.7817Z" fill="#09070B"/>
<path d="M24.7457 69.4858C23.329 69.8493 21.8842 69.8493 20.4393 69.4858C20.0734 69.3925 20.2329 68.8053 20.5988 68.8985C21.9498 69.2341 23.2821 69.2247 24.605 68.8798C24.9615 68.7866 25.1117 69.3925 24.7551 69.4858H24.7457Z" fill="#09070B"/>
<path d="M22.6243 68.2925C21.3295 68.6187 20.0254 68.684 18.6931 68.5069C18.3272 68.4602 18.3272 67.8357 18.6931 67.8823C19.9785 68.0501 21.2263 67.9941 22.4741 67.6772C22.8307 67.584 22.9808 68.1899 22.6243 68.2831V68.2925Z" fill="#09070B"/>
<path d="M21.8451 67.5656C20.8881 67.5936 19.9311 67.6215 18.9835 67.6495C18.6176 67.6588 18.627 67.0436 18.9835 67.0249C19.9405 66.997 20.8975 66.969 21.8451 66.941C22.2204 66.9317 22.211 67.547 21.8451 67.5563V67.5656Z" fill="#09070B"/>
<path d="M26.5744 73.9884C27.7284 75.4053 28.995 76.6917 30.393 77.829C30.6932 78.0714 30.393 78.6028 30.1021 78.3511C28.6667 77.1765 27.3531 75.8714 26.171 74.4079C25.927 74.1002 26.3305 73.6807 26.5838 73.9884H26.5744Z" fill="#09070B"/>
<path d="M23.1043 72.8602C24.446 74.0628 25.7876 75.256 27.1293 76.4585C27.4201 76.7195 27.0073 77.139 26.7165 76.878C25.3748 75.6755 24.0332 74.4823 22.6915 73.2797C22.4007 73.0187 22.8135 72.5992 23.1043 72.8602Z" fill="#09070B"/>
<path d="M20.3441 70.5674C21.8828 72.7114 23.6748 74.5665 25.7389 76.1233C26.0485 76.3563 25.7576 76.8784 25.448 76.6453C23.3464 75.0606 21.4981 73.1775 19.9406 70.9869C19.7155 70.6699 20.1189 70.2411 20.3535 70.5674H20.3441Z" fill="#09070B"/>
<path d="M34.3994 71.7046C33.5269 71.7233 32.6543 71.7419 31.7818 71.7606C31.4065 71.7606 31.4158 71.1453 31.7818 71.136C32.6543 71.1174 33.5269 71.0987 34.3994 71.0801C34.7653 71.0801 34.7653 71.6953 34.3994 71.7046Z" fill="#09070B"/>
<path d="M36.6878 72.8977C35.7402 73.4011 34.7551 73.7367 33.6949 73.8858C33.329 73.9417 33.1789 73.3358 33.5448 73.2799C34.5487 73.14 35.4963 72.8324 36.397 72.3477C36.7254 72.1706 37.0162 72.7205 36.6878 72.8977Z" fill="#09070B"/>
<path d="M38.2093 75.1723C37.4869 75.4334 36.755 75.7037 36.0326 75.9647C35.6855 76.0952 35.5447 75.48 35.8825 75.3588C36.6049 75.0978 37.3367 74.8367 38.0592 74.5664C38.4063 74.4359 38.5471 75.0512 38.2093 75.1723Z" fill="#09070B"/>
<path d="M103.622 62.4385C112.807 45.1929 129.61 35.9828 145.41 26.9591C154.398 21.8227 163.433 16.4812 171.014 9.13545C172.75 7.4575 174.364 5.66768 175.93 3.8126C176.775 2.80583 177.901 1.12787 179.364 1.03465C181.175 0.922789 182.216 2.43295 181.907 4.17616C181.766 4.95921 180.659 4.56768 180.79 3.79396C179.843 3.61684 178.895 3.44905 177.957 3.27193C177.544 3.74735 177.141 4.23209 176.747 4.71684C176.034 5.56514 175.321 6.40411 174.579 7.21513C173.247 8.66935 171.849 10.0583 170.395 11.3821C167.777 13.7778 165 15.9685 162.129 18.01C155.336 22.8481 148.065 26.8472 140.86 30.9582C126.88 38.9378 112.675 47.9522 104.607 63.0911C104.241 63.7716 103.246 63.1004 103.612 62.4199L103.622 62.4385Z" fill="#09070B"/>
<path d="M181.682 2.70317C182.818 7.86755 180.838 12.426 177.714 16.1361C173.079 21.6548 167.027 26.3344 161.576 30.8928C161.004 31.3683 160.188 30.464 160.76 29.9793C165.123 26.3251 169.307 22.4564 173.511 18.5971C177.789 14.6726 182.03 9.65737 180.566 2.97351C180.397 2.19046 181.514 1.92012 181.682 2.70317Z" fill="#09070B"/>
<path d="M127.012 47.7936C131.75 42.8436 137.042 38.6021 142.905 35.2649C145.654 33.6988 148.516 32.3471 151.443 31.1912C152.898 30.6225 157.185 28.1988 158.752 29.0657C161.754 30.7157 157.851 37.2504 156.772 38.8165C153.085 44.186 147.456 48.0639 142.652 52.1749C142.089 52.6597 141.264 51.7461 141.836 51.2614C145.561 48.0733 149.492 45.0529 152.935 41.5199C154.596 39.814 156.144 37.9403 157.213 35.731C157.532 35.0598 158.752 33.0183 158.424 32.1327C157.542 29.7742 155.571 31.0234 154.239 31.4895C144.247 34.9386 135.287 40.9233 127.838 48.7072C127.312 49.2572 126.496 48.3436 127.021 47.7936H127.012Z" fill="#09070B"/>
<path d="M170.199 21.5148C171.888 20.3869 181.795 11.8572 180.454 19.5386C179.825 23.1182 177.095 27.0055 175.444 30.1097C173.107 34.4817 170.546 38.7045 167.816 42.7969C167.394 43.4308 166.39 42.7689 166.821 42.1257C169.936 37.4461 172.835 32.5986 175.444 27.5555C176.063 26.3622 180.576 18.7648 178.211 17.6462C177.442 17.2826 171.475 22.1487 170.79 22.6148C170.171 23.0343 169.598 21.925 170.208 21.5148H170.199Z" fill="#09070B"/>
<path d="M175.537 28.609C176.118 28.32 176.691 28.0217 177.272 27.7327C177.544 27.5929 177.91 27.6768 178.06 27.9938C181.879 35.703 173.482 45.2115 170.029 51.0377C165.573 58.5419 163.799 69.6071 155.721 73.6808C155.055 74.0164 154.483 72.9164 155.14 72.5808C162.514 68.8613 164.128 59.0639 168.021 52.119C169.898 48.7631 172.065 45.6123 173.97 42.275C174.861 40.7183 175.715 39.1149 176.428 37.4462C176.925 36.2903 179.299 28.087 176.118 29.6997C175.462 30.0353 174.88 28.9353 175.537 28.5997V28.609Z" fill="#09070B"/>
<path d="M173.624 44.568C174.516 51.5222 172.348 57.7773 169.243 63.6128C166.025 69.6628 162.413 76.3187 156.849 80.15C156.23 80.5695 155.657 79.4695 156.267 79.05C161.343 75.5543 164.599 69.523 167.638 64.051C170.866 58.2247 173.418 51.9044 172.508 44.829C172.405 44.046 173.521 43.7663 173.624 44.5587V44.568Z" fill="#09070B"/>
<path d="M154.82 38.2759C157.926 37.0827 166.492 33.6522 163.659 41.1191C160.853 48.5394 155.196 55.2606 149.745 60.4995C149.201 61.0215 148.384 60.108 148.928 59.586C152.803 55.8572 156.256 51.7089 159.136 47.0292C159.784 45.9759 163.424 40.7835 162.983 39.6183C162.139 37.381 160.009 37.614 158.498 38.1827C157.363 38.6022 156.237 39.0496 155.111 39.4878C154.417 39.7488 154.136 38.5369 154.82 38.2759Z" fill="#09070B"/>
<path d="M159.042 47.3834C160.975 46.3953 162.823 45.8173 164.99 45.5283C165.328 45.4817 165.572 45.6588 165.694 46.0038C166.998 49.5368 164.915 52.4359 163.086 55.1113C160.13 59.4274 157.147 63.7342 154.182 68.0409C153.75 68.6655 152.746 68.0036 153.187 67.3697C155.786 63.5943 158.385 59.8283 160.975 56.0529C162.147 54.3563 163.555 52.6783 164.324 50.7114C166.444 45.3233 162.551 46.9919 159.624 48.4741C158.957 48.8097 158.385 47.7097 159.042 47.3741V47.3834Z" fill="#09070B"/>
<path d="M134.922 49.2386C142.549 42.5641 150.468 36.3184 158.724 30.5574C159.334 30.1286 159.916 31.2286 159.306 31.6574C151.125 37.3624 143.29 43.5429 135.738 50.1522C135.175 50.6463 134.359 49.7327 134.922 49.2386Z" fill="#09070B"/>
<path d="M145.053 55.363C150.589 49.3037 156.406 43.58 162.504 38.1826C163.067 37.6886 163.883 38.5928 163.32 39.0962C157.222 44.4936 151.405 50.2173 145.869 56.2766C145.353 56.8359 144.546 55.9224 145.053 55.363Z" fill="#09070B"/>
<path d="M152.109 64.3493C155.899 58.7561 159.746 53.2095 163.33 47.4579C163.733 46.8053 164.737 47.4765 164.324 48.1291C160.74 53.8807 156.893 59.4273 153.103 65.0205C152.681 65.6544 151.677 64.9832 152.109 64.3493Z" fill="#09070B"/>
<path d="M159.681 21.6361C166.886 16.742 173.332 10.8785 179.008 4.07345C179.496 3.48616 180.312 4.40904 179.825 4.987C174.083 11.8666 167.543 17.7861 160.263 22.7361C159.643 23.1555 159.071 22.0555 159.681 21.6361Z" fill="#09070B"/>
<path d="M163.498 34.0438C167.917 27.854 172.936 22.3075 178.594 17.4227C179.157 16.938 179.982 17.8422 179.41 18.3363C173.828 23.1558 168.855 28.5998 164.492 34.715C164.051 35.3303 163.047 34.6684 163.498 34.0438Z" fill="#09070B"/>
<path d="M171.502 41.212C173.96 37.6417 176.005 33.7918 177.6 29.6621C177.873 28.9443 178.998 29.3172 178.717 30.0443C177.084 34.2672 175.02 38.2197 172.506 41.8832C172.074 42.5078 171.07 41.8459 171.511 41.212H171.502Z" fill="#09070B"/>
<path d="M163.36 27.1643C165.377 23.6219 167.066 19.8931 168.407 15.9779C168.529 15.6143 169.092 15.8008 168.961 16.1737C167.6 20.1355 165.902 23.9202 163.857 27.5092C163.669 27.8448 163.163 27.5092 163.36 27.1736V27.1643Z" fill="#09070B"/>
<path d="M168.348 18.8674C168.696 17.7394 169.033 16.6208 169.38 15.4928C169.493 15.1199 170.056 15.3064 169.934 15.6792C169.587 16.8072 169.249 17.9352 168.902 19.0538C168.789 19.4267 168.236 19.2402 168.348 18.858V18.8674Z" fill="#09070B"/>
<path d="M168.752 21.5241C167.86 23.1835 167.11 24.908 166.5 26.7165C166.378 27.0894 165.815 26.8936 165.946 26.5207C166.575 24.6657 167.344 22.8852 168.264 21.1792C168.452 20.8343 168.949 21.1792 168.761 21.5148L168.752 21.5241Z" fill="#09070B"/>
<path d="M171.98 13.1344C171.802 17.0869 170.817 20.8064 169.053 24.2089C168.875 24.5538 168.378 24.2089 168.556 23.8733C170.282 20.5547 171.23 16.9564 171.408 13.0971C171.427 12.6962 172.009 12.7335 171.99 13.1344H171.98Z" fill="#09070B"/>
<path d="M172.967 15.1666C172.929 17.7021 172.357 20.0979 171.287 22.3165C171.119 22.6614 170.621 22.3258 170.79 21.9809C171.822 19.8555 172.348 17.5716 172.385 15.1386C172.385 14.7378 172.967 14.775 172.967 15.1759V15.1666Z" fill="#09070B"/>
<path d="M174.868 10.1515C174.896 13.7404 174.296 17.1802 173.039 20.4523C172.898 20.8158 172.344 20.6294 172.485 20.2565C173.714 17.0218 174.324 13.6565 174.286 10.1142C174.286 9.71334 174.859 9.75063 174.868 10.1515Z" fill="#09070B"/>
<path d="M176.21 12.1278C176.088 13.8803 175.788 15.5863 175.309 17.2549C175.197 17.6278 174.643 17.4413 174.756 17.0591C175.215 15.4371 175.506 13.7871 175.628 12.0905C175.656 11.699 176.238 11.727 176.21 12.1278Z" fill="#09070B"/>
<path d="M176.258 10.1236C176.258 10.5058 176.258 10.8787 176.258 11.2609C176.258 11.6618 175.676 11.6245 175.676 11.2236C175.676 10.8414 175.676 10.4686 175.676 10.0864C175.676 9.68551 176.258 9.72279 176.258 10.1236Z" fill="#09070B"/>
<path d="M178.217 7.19628C177.795 9.93695 177.373 12.6869 176.941 15.4276C176.885 15.8191 176.322 15.6234 176.388 15.2318C176.81 12.4912 177.242 9.74118 177.664 7.00052C177.72 6.609 178.283 6.80476 178.217 7.19628Z" fill="#09070B"/>
<path d="M179.534 6.21739C179.609 8.175 179.365 10.0674 178.783 11.8945C178.67 12.2674 178.108 12.0809 178.23 11.6987C178.792 9.91822 179.036 8.08178 178.961 6.1801C178.943 5.77926 179.524 5.81654 179.543 6.21739H179.534Z" fill="#09070B"/>
<path d="M157.42 20.3588C159.859 19.5571 162.327 18.9139 164.85 18.4478C165.216 18.3825 165.357 18.9885 165 19.0537C162.477 19.5198 160.009 20.163 157.57 20.9647C157.223 21.0766 157.072 20.4706 157.42 20.3588Z" fill="#09070B"/>
<path d="M161.614 18.0659C163.246 17.5532 164.869 17.0498 166.502 16.5464C166.858 16.4346 166.999 17.0405 166.652 17.1524C165.019 17.6557 163.396 18.1685 161.764 18.6718C161.407 18.7837 161.266 18.1778 161.614 18.0659Z" fill="#09070B"/>
<path d="M164.943 15.5486C165.271 15.474 165.609 15.3901 165.937 15.3156C166.294 15.2317 166.444 15.8376 166.087 15.9215C165.759 15.9961 165.421 16.08 165.093 16.1545C164.736 16.2384 164.586 15.6325 164.943 15.5486Z" fill="#09070B"/>
<path d="M166.924 13.9362C168.669 13.5261 170.404 13.1066 172.14 12.6964C172.497 12.6125 172.647 13.2185 172.29 13.3024C170.545 13.7125 168.809 14.132 167.074 14.5422C166.717 14.6261 166.567 14.0201 166.924 13.9362Z" fill="#09070B"/>
<path d="M168.583 12.1181C169.822 11.8198 171.07 11.5309 172.308 11.2326C172.665 11.1487 172.815 11.7546 172.458 11.8385C171.22 12.1368 169.972 12.4258 168.734 12.7241C168.377 12.808 168.227 12.202 168.583 12.1181Z" fill="#09070B"/>
<path d="M170.312 10.5618C171.053 10.3846 171.803 10.2075 172.545 10.0304C172.901 9.94651 173.051 10.5524 172.685 10.6363C171.944 10.8135 171.193 10.9906 170.452 11.1677C170.096 11.2516 169.946 10.6457 170.302 10.5618H170.312Z" fill="#09070B"/>
<path d="M172.122 9.33122C172.92 9.03292 173.727 8.72529 174.524 8.42699C174.871 8.29648 175.012 8.90241 174.674 9.03292C173.867 9.33122 173.07 9.63885 172.272 9.93715C171.925 10.0677 171.784 9.46173 172.122 9.33122Z" fill="#09070B"/>
<path d="M164.596 23.4819C163.452 25.8124 162.373 28.1802 161.369 30.5759C161.219 30.9301 160.722 30.5945 160.872 30.2403C161.885 27.8352 162.954 25.4675 164.099 23.1463C164.268 22.8014 164.765 23.137 164.596 23.4819Z" fill="#09070B"/>
<path d="M162.205 26.1668C161.192 27.8261 160.263 29.5414 159.428 31.3125C159.259 31.6668 158.762 31.3312 158.931 30.9769C159.766 29.2058 160.685 27.4812 161.708 25.8312C161.905 25.5049 162.412 25.8312 162.205 26.1668Z" fill="#09070B"/>
<path d="M160.159 27.8075C159.53 28.432 159.136 29.2524 159.061 30.1846C159.024 30.5761 158.451 30.5481 158.479 30.1473C158.573 29.0566 159.014 28.0778 159.746 27.3507C160.018 27.0803 160.422 27.5371 160.159 27.8075Z" fill="#09070B"/>
<path d="M162.693 39.2175C165.113 37.9964 167.6 36.9989 170.189 36.2159C170.546 36.104 170.686 36.7099 170.33 36.8218C167.797 37.5955 165.357 38.5743 162.984 39.7675C162.655 39.9353 162.364 39.3853 162.693 39.2175Z" fill="#09070B"/>
<path d="M162.561 37.2598C165.638 36.225 168.753 35.3767 171.925 34.7056C172.29 34.631 172.431 35.2369 172.075 35.3115C168.903 35.9827 165.789 36.831 162.711 37.875C162.364 37.9962 162.214 37.3903 162.561 37.2691V37.2598Z" fill="#09070B"/>
<path d="M162.935 35.9455C163.882 35.526 164.83 35.0972 165.778 34.6777C166.115 34.5286 166.406 35.0786 166.069 35.2277C165.121 35.6472 164.173 36.0667 163.226 36.4955C162.888 36.6447 162.597 36.0947 162.935 35.9455Z" fill="#09070B"/>
<path d="M167.531 34.2768C169.23 33.5963 170.965 33.1022 172.776 32.8039C173.142 32.748 173.283 33.3539 172.917 33.4099C171.162 33.6988 169.464 34.1649 167.813 34.8268C167.475 34.9666 167.184 34.4166 167.522 34.2768H167.531Z" fill="#09070B"/>
<path d="M165.178 33.9782C167.843 33.0367 170.498 32.0952 173.163 31.1536C173.51 31.0324 173.66 31.6384 173.303 31.7596C170.648 32.7011 167.984 33.6426 165.319 34.5841C164.972 34.7053 164.831 34.0994 165.169 33.9782H165.178Z" fill="#09070B"/>
<path d="M165.845 32.7105C166.473 32.3842 167.093 32.0579 167.721 31.7317C168.05 31.5639 168.34 32.1139 168.012 32.2817C167.383 32.6079 166.764 32.9342 166.136 33.2605C165.807 33.4283 165.516 32.8783 165.845 32.7105Z" fill="#09070B"/>
<path d="M168.246 31.4617C170.366 30.7998 172.487 30.138 174.607 29.4761C174.964 29.3643 175.104 29.9702 174.757 30.082C172.637 30.7439 170.516 31.4058 168.396 32.0676C168.04 32.1795 167.899 31.5736 168.246 31.4617Z" fill="#09070B"/>
<path d="M166.924 30.8461C167.778 30.1097 168.763 29.6436 169.87 29.4758C170.236 29.4199 170.386 30.0258 170.02 30.0817C169.016 30.2309 168.115 30.6317 167.337 31.3029C167.055 31.5453 166.642 31.0885 166.933 30.8461H166.924Z" fill="#09070B"/>
<path d="M170.545 29.3174C171.99 28.6929 173.482 28.2454 175.03 27.9844C175.396 27.9191 175.546 28.5251 175.18 28.5903C173.679 28.8513 172.234 29.2708 170.836 29.8674C170.498 30.0166 170.207 29.4666 170.545 29.3174Z" fill="#09070B"/>
<path d="M167.758 28.6183C168.79 28.1243 169.859 27.7514 170.966 27.4904C171.323 27.4065 171.473 28.0124 171.116 28.0963C170.056 28.348 169.034 28.6929 168.048 29.1683C167.711 29.3268 167.42 28.7768 167.758 28.6183Z" fill="#09070B"/>
<path d="M172.158 26.9405C173.566 26.6049 174.973 26.2693 176.38 25.9337C176.737 25.8498 176.887 26.4558 176.531 26.5397C175.123 26.8753 173.716 27.2108 172.309 27.5464C171.952 27.6303 171.802 27.0244 172.158 26.9405Z" fill="#09070B"/>
<path d="M170.705 26.3807C172.459 25.6909 174.27 25.1969 176.128 24.8799C176.493 24.8147 176.644 25.4206 176.278 25.4858C174.42 25.8028 172.609 26.2968 170.855 26.9867C170.508 27.1172 170.367 26.5113 170.705 26.3807Z" fill="#09070B"/>
<path d="M171.904 24.787C173.762 24.1344 175.619 23.4819 177.477 22.8387C177.824 22.7175 177.974 23.3234 177.618 23.4446C175.76 24.0972 173.902 24.7497 172.054 25.3929C171.707 25.5141 171.557 24.9082 171.904 24.787Z" fill="#09070B"/>
<path d="M173.781 22.8016C174.673 22.494 175.564 22.1864 176.446 21.8787C176.793 21.7575 176.943 22.3635 176.596 22.4847C175.705 22.7923 174.813 23.0999 173.931 23.4075C173.584 23.5287 173.434 22.9228 173.781 22.8016Z" fill="#09070B"/>
<path d="M164.298 27.2759C163.885 29.4479 163.256 31.5267 162.412 33.5309C162.262 33.8851 161.765 33.5496 161.915 33.1953C162.74 31.2377 163.341 29.2055 163.744 27.0894C163.819 26.6979 164.373 26.8937 164.298 27.2759Z" fill="#09070B"/>
<path d="M162.091 29.5876C161.415 32.1698 160.74 34.7613 160.064 37.3435C159.961 37.7257 159.407 37.53 159.511 37.1478C160.186 34.5656 160.862 31.9741 161.537 29.3919C161.64 29.0097 162.194 29.2054 162.091 29.5876Z" fill="#09070B"/>
<path d="M159.63 34.1462C158.861 35.2649 158.486 36.5699 158.523 37.9962C158.533 38.397 157.96 38.3598 157.942 37.9589C157.904 36.4394 158.308 35.0132 159.133 33.8106C159.349 33.4937 159.846 33.8293 159.63 34.1462Z" fill="#09070B"/>
<path d="M161.733 33.8946C161.423 34.9293 161.255 35.9827 161.217 37.0734C161.198 37.4742 160.626 37.4369 160.635 37.0361C160.673 35.8895 160.851 34.7802 161.179 33.6988C161.292 33.3259 161.846 33.5124 161.733 33.8946Z" fill="#09070B"/>
<path d="M165.496 26.7166C165.28 27.7047 165.074 28.7022 164.858 29.6997C164.774 30.0819 164.22 29.8954 164.305 29.5039C164.511 28.5064 164.727 27.5183 164.933 26.5209C165.018 26.1387 165.571 26.3251 165.487 26.7166H165.496Z" fill="#09070B"/>
<path d="M166.782 26.4277C166.651 27.1082 166.529 27.7887 166.397 28.4692C166.322 28.8608 165.769 28.665 165.844 28.2735C165.975 27.593 166.097 26.9125 166.229 26.232C166.304 25.8404 166.857 26.0362 166.782 26.4277Z" fill="#09070B"/>
<path d="M168.246 24.9361C168.152 25.6259 168.049 26.3157 167.955 26.9962C167.899 27.3877 167.345 27.192 167.402 26.8005C167.505 26.1106 167.599 25.4208 167.692 24.7403C167.749 24.3488 168.302 24.5445 168.246 24.9267V24.9361Z" fill="#09070B"/>
<path d="M152.625 28.2267C140.504 34.1368 129.254 41.6503 119.018 50.6833C118.737 50.935 118.324 50.4783 118.605 50.2266C128.879 41.1563 140.166 33.6055 152.334 27.6767C152.663 27.5182 152.954 28.0589 152.625 28.2267Z" fill="#09070B"/>
<path d="M102.421 67.37C102.683 64.5827 103.697 62.0844 105.386 60.0149C105.63 59.7166 106.033 60.1827 105.798 60.4717C104.213 62.4107 103.246 64.7971 103.002 67.4073C102.965 67.7988 102.383 67.7708 102.421 67.37Z" fill="#09070B"/>
<path d="M112.478 51.1122C115.002 49.658 117.62 48.4461 120.34 47.458C120.688 47.3275 120.828 47.9428 120.491 48.0639C117.817 49.0334 115.246 50.2266 112.769 51.6529C112.45 51.8393 112.159 51.2893 112.478 51.1029V51.1122Z" fill="#09070B"/>
<path d="M114.197 48.4461C115.529 47.7656 116.908 47.2343 118.353 46.8334C118.71 46.7309 118.85 47.3368 118.503 47.4393C117.115 47.8309 115.782 48.3436 114.497 48.9961C114.169 49.1639 113.878 48.6139 114.206 48.4461H114.197Z" fill="#09070B"/>
<path d="M117.425 45.454C120.108 44.3447 122.857 43.6828 125.747 43.4311C126.113 43.4031 126.103 44.0184 125.747 44.0464C122.96 44.2887 120.296 44.9319 117.715 45.9946C117.378 46.1345 117.087 45.5845 117.425 45.4446V45.454Z" fill="#09070B"/>
<path d="M121.091 43.2912C122.63 42.6573 124.206 42.2099 125.848 41.9675C126.214 41.9116 126.364 42.5175 125.998 42.5734C124.413 42.8158 122.874 43.2353 121.382 43.8412C121.045 43.9811 120.754 43.4311 121.091 43.2912Z" fill="#09070B"/>
<path d="M125.915 42.2099C126.581 42.0515 127.238 41.893 127.904 41.7345C128.26 41.6506 128.41 42.2565 128.054 42.3404C127.388 42.4989 126.731 42.6574 126.065 42.8159C125.708 42.8998 125.558 42.2938 125.915 42.2099Z" fill="#09070B"/>
<path d="M124.33 41.1002C126.76 40.6527 129.19 40.2053 131.62 39.7578C131.986 39.6926 132.127 40.2985 131.77 40.3638C129.34 40.8112 126.91 41.2587 124.48 41.7061C124.114 41.7714 123.973 41.1655 124.339 41.1002H124.33Z" fill="#09070B"/>
<path d="M130.858 38.7514C131.524 38.593 132.181 38.4345 132.847 38.276C133.204 38.1921 133.354 38.798 132.997 38.8819C132.331 39.0404 131.674 39.1989 131.008 39.3574C130.652 39.4413 130.502 38.8353 130.858 38.7514Z" fill="#09070B"/>
<path d="M126.391 38.7511C129.403 37.791 132.452 37.0359 135.557 36.4766C135.923 36.4113 136.073 37.0173 135.707 37.0825C132.602 37.6418 129.543 38.3969 126.541 39.3571C126.184 39.4689 126.044 38.863 126.391 38.7511Z" fill="#09070B"/>
<path d="M134.44 36.1877C135.182 36.0106 135.932 35.8335 136.673 35.6564C137.03 35.5725 137.18 36.1784 136.823 36.2623C136.082 36.4394 135.332 36.6166 134.591 36.7937C134.234 36.8776 134.084 36.2716 134.44 36.1877Z" fill="#09070B"/>
<path d="M132.359 35.5164C134.235 34.7054 136.187 34.2766 138.242 34.23C138.617 34.23 138.607 34.8359 138.242 34.8546C136.29 34.9012 134.442 35.302 132.65 36.0757C132.312 36.2249 132.021 35.6749 132.359 35.5257V35.5164Z" fill="#09070B"/>
<path d="M138.644 33.2328C139.507 32.8693 140.399 32.7108 141.337 32.7761C141.703 32.804 141.703 33.4193 141.337 33.4006C140.511 33.3447 139.704 33.4659 138.944 33.7828C138.607 33.9227 138.316 33.3727 138.654 33.2328H138.644Z" fill="#09070B"/>
<path d="M139.209 31.6106C140.316 31.7131 141.414 31.6665 142.493 31.4615C142.859 31.3962 143 32.0021 142.643 32.0674C141.508 32.2818 140.363 32.347 139.2 32.2352C138.824 32.1979 138.834 31.5826 139.2 31.6106H139.209Z" fill="#09070B"/>
<path d="M140.681 30.4265C142.539 29.9231 144.406 29.8858 146.31 30.2774C146.676 30.3519 146.517 30.9392 146.151 30.8646C144.349 30.4918 142.576 30.557 140.822 31.0324C140.465 31.1257 140.315 30.5197 140.672 30.4265H140.681Z" fill="#09070B"/>
<path d="M144.376 28.702C145.286 29.0749 146.215 29.1494 147.144 28.9164C147.501 28.8232 147.651 29.4291 147.294 29.5223C146.272 29.774 145.23 29.6994 144.226 29.2893C143.879 29.1494 144.029 28.5528 144.386 28.702H144.376Z" fill="#09070B"/>
<path d="M148.824 27.9469C149.593 28.0401 150.325 27.9469 151.047 27.6672C151.395 27.5367 151.535 28.1426 151.198 28.2732C150.438 28.5715 149.64 28.6647 148.824 28.5621C148.458 28.5155 148.458 27.8909 148.824 27.9376V27.9469Z" fill="#09070B"/>
<path d="M147.531 26.5023C149.652 27.015 151.753 26.8565 153.743 26.0175C154.08 25.8777 154.371 26.4184 154.033 26.5675C151.894 27.4717 149.671 27.6489 147.381 27.0989C147.015 27.0056 147.175 26.4184 147.541 26.5116L147.531 26.5023Z" fill="#09070B"/>
<path d="M151.039 25.0758C152.841 25.1597 154.595 24.9452 156.312 24.4325C156.669 24.33 156.809 24.9359 156.462 25.0385C154.689 25.5698 152.897 25.7842 151.039 25.691C150.664 25.6724 150.673 25.0571 151.039 25.0664V25.0758Z" fill="#09070B"/>
<path d="M153.084 23.8363C154.032 23.8922 154.923 23.7431 155.805 23.3982C156.152 23.2677 156.293 23.8736 155.955 24.0041C155.036 24.3677 154.079 24.5075 153.084 24.4516C152.709 24.4329 152.719 23.8083 153.084 23.827V23.8363Z" fill="#09070B"/>
<path d="M154.108 30.436C154.633 29.6623 155.159 28.8885 155.684 28.1148C155.9 27.7979 156.397 28.1335 156.181 28.4504C155.656 29.2241 155.13 29.9979 154.596 30.7716C154.38 31.0885 153.883 30.7529 154.098 30.436H154.108Z" fill="#09070B"/>
<path d="M152.194 31.1821C152.579 30.6134 152.973 30.0448 153.358 29.4762C153.574 29.1592 154.071 29.4948 153.855 29.8117C153.47 30.3804 153.076 30.949 152.692 31.5177C152.476 31.8346 151.979 31.499 152.194 31.1821Z" fill="#09070B"/>
<path d="M148.599 31.7226C149.265 30.4362 149.931 29.1498 150.598 27.8633C150.776 27.5184 151.273 27.8633 151.095 28.1989C150.429 29.4853 149.763 30.7718 149.096 32.0582C148.918 32.4031 148.421 32.0582 148.599 31.7226Z" fill="#09070B"/>
<path d="M146.339 33.13C146.837 32.4122 147.184 31.6198 147.371 30.7342C147.456 30.352 148.009 30.5385 147.925 30.93C147.728 31.8529 147.353 32.7105 146.837 33.4656C146.621 33.7732 146.123 33.4469 146.339 33.13Z" fill="#09070B"/>
<path d="M144.49 34.5003C144.771 33.1765 145.203 31.9181 145.785 30.7342C145.954 30.3893 146.451 30.7249 146.282 31.0698C145.719 32.2164 145.306 33.4189 145.043 34.696C144.959 35.0782 144.405 34.8918 144.49 34.5003Z" fill="#09070B"/>
<path d="M142.566 34.8919C142.876 34.3513 143.186 33.8013 143.495 33.2606C143.683 32.925 144.189 33.2606 143.992 33.5962C143.683 34.1369 143.373 34.6869 143.064 35.2275C142.876 35.5631 142.379 35.2275 142.566 34.8919Z" fill="#09070B"/>
<path d="M140.549 36.2528C141.187 34.9478 141.834 33.652 142.472 32.3562C142.641 32.0113 143.138 32.3469 142.969 32.6918C142.331 33.9876 141.684 35.2927 141.046 36.5884C140.877 36.9333 140.38 36.5977 140.549 36.2528Z" fill="#09070B"/>
<path d="M138.766 37.5392C139.197 36.7748 139.619 36.0104 140.051 35.2367C140.239 34.9011 140.736 35.2367 140.548 35.5723C140.117 36.3367 139.694 37.1104 139.263 37.8748C139.075 38.2104 138.578 37.8748 138.766 37.5392Z" fill="#09070B"/>
<path d="M137.686 38.7142C138.034 37.6702 138.381 36.6261 138.737 35.5914C138.859 35.2185 139.422 35.4142 139.291 35.7871C138.944 36.8312 138.597 37.8752 138.24 38.91C138.118 39.2829 137.555 39.0871 137.686 38.7235V38.7142Z" fill="#09070B"/>
<path d="M135.306 40.6342C135.812 39.469 136.319 38.3037 136.826 37.1385C136.976 36.7842 137.482 37.1198 137.323 37.4741C136.816 38.6393 136.31 39.8046 135.803 40.9698C135.653 41.324 135.146 40.9885 135.306 40.6342Z" fill="#09070B"/>
<path d="M133.512 41.9207C133.962 40.8674 134.403 39.8047 134.854 38.7513C135.004 38.397 135.501 38.7326 135.351 39.0869C134.901 40.1402 134.46 41.203 134.009 42.2563C133.859 42.6106 133.362 42.275 133.512 41.9207Z" fill="#09070B"/>
<path d="M131.335 43.8503C131.973 42.3867 132.47 40.8672 132.836 39.3011C132.93 38.9189 133.484 39.1054 133.39 39.4969C133.005 41.1189 132.489 42.685 131.832 44.1952C131.673 44.5494 131.176 44.2138 131.335 43.8596V43.8503Z" fill="#09070B"/>
<path d="M128.486 43.291C127.632 44.7918 127.041 46.4139 126.722 48.1571C126.647 48.5486 126.093 48.3528 126.168 47.9613C126.506 46.1715 127.116 44.5029 127.988 42.9554C128.176 42.6198 128.673 42.9554 128.486 43.291Z" fill="#09070B"/>
<path d="M125.978 45.8081C125.603 46.9174 125.237 48.0361 124.862 49.1454C124.74 49.5183 124.177 49.3225 124.308 48.9496C124.684 47.8403 125.049 46.7217 125.425 45.6124C125.547 45.2395 126.11 45.4352 125.978 45.8081Z" fill="#09070B"/>
<path d="M124.232 47.4394C124.007 47.9708 123.791 48.5021 123.566 49.0241C123.416 49.3784 122.918 49.0428 123.068 48.6885C123.294 48.1572 123.509 47.6352 123.735 47.1038C123.885 46.7496 124.382 47.0852 124.232 47.4394Z" fill="#09070B"/>
<path d="M122.096 48.1759C121.937 48.5954 121.768 49.0148 121.609 49.4343C121.468 49.7979 120.914 49.6115 121.055 49.2479C121.215 48.8284 121.383 48.4089 121.543 47.9894C121.684 47.6352 122.237 47.8123 122.096 48.1852V48.1759Z" fill="#09070B"/>
<path d="M142.661 50.8976C143.29 47.3273 144.36 43.9341 145.861 40.7273C146.03 40.3731 146.527 40.7087 146.358 41.0629C144.876 44.2324 143.825 47.579 143.215 51.0934C143.149 51.4849 142.586 51.2891 142.661 50.8976Z" fill="#09070B"/>
<path d="M144.446 49.4341C144.558 48.3061 144.859 47.2341 145.328 46.2366C145.497 45.8824 145.994 46.218 145.825 46.5722C145.393 47.4764 145.121 48.4459 145.018 49.4713C144.98 49.8629 144.399 49.8349 144.436 49.4341H144.446Z" fill="#09070B"/>
<path d="M145.747 45.0437C146.122 42.9928 146.732 41.0259 147.558 39.1429C147.717 38.7886 148.214 39.1242 148.055 39.4785C147.248 41.3149 146.676 43.2259 146.31 45.2301C146.235 45.6216 145.681 45.4259 145.756 45.0344L145.747 45.0437Z" fill="#09070B"/>
<path d="M146.255 47.4395C147.109 44.3912 147.963 41.3523 148.826 38.304C148.929 37.9218 149.492 38.1175 149.38 38.4997C148.526 41.548 147.672 44.587 146.809 47.6353C146.706 48.0175 146.143 47.8217 146.255 47.4395Z" fill="#09070B"/>
<path d="M148.047 46.7963C148.235 46.0133 148.432 45.2209 148.619 44.4378C148.713 44.0556 149.267 44.2421 149.173 44.6336C148.985 45.4167 148.788 46.209 148.601 46.9921C148.507 47.3743 147.953 47.1878 148.047 46.7963Z" fill="#09070B"/>
<path d="M149.265 42.2935C149.415 40.6995 149.771 39.18 150.344 37.7164C150.484 37.3622 151.038 37.5486 150.897 37.9122C150.344 39.3198 149.987 40.7927 149.837 42.3308C149.799 42.7223 149.218 42.6944 149.255 42.2935H149.265Z" fill="#09070B"/>
<path d="M149.461 45.1928C150.671 42.2657 151.609 39.2361 152.313 36.1039C152.397 35.7217 152.96 35.9081 152.866 36.2996C152.153 39.4784 151.187 42.5547 149.958 45.5284C149.808 45.8919 149.311 45.547 149.461 45.1928Z" fill="#09070B"/>
<path d="M151.332 43.9434C152.505 41.1002 153.237 38.1265 153.528 35.0036C153.565 34.6121 154.147 34.6401 154.11 35.0409C153.8 38.2663 153.04 41.3426 151.83 44.279C151.68 44.6425 151.182 44.2976 151.332 43.9434Z" fill="#09070B"/>
<path d="M152.85 42.48C153.976 39.8046 154.708 36.9894 155.045 34.0436C155.092 33.6521 155.665 33.6801 155.627 34.0809C155.28 37.1385 154.52 40.047 153.357 42.825C153.207 43.1792 152.709 42.8436 152.859 42.4894L152.85 42.48Z" fill="#09070B"/>
<path d="M154.653 40.3824C155.366 38.229 155.882 36.0197 156.21 33.7452C156.266 33.3536 156.82 33.5494 156.764 33.9409C156.435 36.2155 155.919 38.4248 155.206 40.5782C155.084 40.951 154.531 40.7646 154.653 40.3917V40.3824Z" fill="#09070B"/>
<path d="M156.575 37.6232C156.997 36.113 157.241 34.5749 157.307 32.9902C157.325 32.5893 157.907 32.6266 157.888 33.0274C157.813 34.6681 157.569 36.2622 157.128 37.8189C157.025 38.2011 156.462 38.0054 156.575 37.6232Z" fill="#09070B"/>
<path d="M142.54 46.4883C142.127 48.651 141.724 50.8044 141.32 52.9671C141.245 53.3586 140.692 53.1628 140.767 52.7713C141.17 50.6086 141.583 48.4552 141.986 46.2925C142.061 45.901 142.615 46.0968 142.54 46.479V46.4883Z" fill="#09070B"/>
<path d="M141.252 45.0063C140.99 46.4885 140.736 47.9801 140.474 49.4623C140.408 49.8538 139.845 49.658 139.92 49.2665C140.183 47.7843 140.446 46.3021 140.699 44.8106C140.765 44.4191 141.318 44.6148 141.252 45.0063Z" fill="#09070B"/>
<path d="M139.499 47.3648C139.593 48.7725 139.481 50.1521 139.162 51.5038C139.068 51.886 138.514 51.6996 138.608 51.308C138.918 50.003 139.021 48.6886 138.927 47.3276C138.899 46.9267 139.481 46.964 139.509 47.3648H139.499Z" fill="#09070B"/>
<path d="M138.373 48.3437C138.139 48.8657 138.12 49.481 138.336 50.031C138.486 50.4039 137.988 50.6928 137.838 50.32C137.529 49.5462 137.538 48.7445 137.876 48.0081C138.035 47.6539 138.533 47.9895 138.373 48.3437Z" fill="#09070B"/>
<path d="M147.474 30.5013C152.221 26.9217 156.978 23.3513 161.772 19.8556C162.073 19.6319 162.363 20.1912 162.063 20.4056C157.259 23.9013 152.512 27.481 147.765 31.0513C147.464 31.275 147.183 30.725 147.474 30.5013Z" fill="#09070B"/>
<path d="M130.192 46.9079C133.025 46.0969 135.896 45.5749 138.833 45.3232C139.198 45.2952 139.189 45.9105 138.833 45.9384C135.943 46.1808 133.119 46.7122 130.342 47.5139C129.985 47.6164 129.844 47.0105 130.192 46.9079Z" fill="#09070B"/>
<path d="M134.394 44.6988C136.008 44.503 137.631 44.2979 139.245 44.1022C139.611 44.0556 139.761 44.6615 139.386 44.7081C137.772 44.9132 136.158 45.1089 134.535 45.3047C134.169 45.3513 134.019 44.7454 134.385 44.6988H134.394Z" fill="#09070B"/>
<path d="M133.728 45.5565C133.371 45.5471 133.024 45.5378 132.668 45.5285C132.292 45.5192 132.302 44.8946 132.668 44.9039C133.024 44.9132 133.371 44.9226 133.728 44.9319C134.103 44.9412 134.094 45.5658 133.728 45.5565Z" fill="#09070B"/>
<path d="M136.627 43.0579C138.335 42.6757 140.052 42.4893 141.816 42.48C142.191 42.48 142.182 43.0952 141.816 43.1046C140.108 43.1046 138.438 43.3003 136.787 43.6732C136.421 43.7571 136.28 43.1512 136.637 43.0673L136.627 43.0579Z" fill="#09070B"/>
<path d="M138.674 41.7532C140.813 41.1473 142.99 40.7371 145.204 40.5134C145.57 40.4761 145.72 41.082 145.354 41.1193C143.14 41.343 140.963 41.7532 138.824 42.3591C138.467 42.4617 138.317 41.8557 138.683 41.7532H138.674Z" fill="#09070B"/>
<path d="M139.836 40.0189C142.763 39.4502 145.691 38.8816 148.618 38.3223C148.984 38.2477 149.125 38.8536 148.768 38.9282C145.841 39.4968 142.914 40.0655 139.986 40.6248C139.62 40.69 139.48 40.0841 139.836 40.0189Z" fill="#09070B"/>
<path d="M144.197 38.5461C145.829 38.3783 147.462 38.2105 149.094 38.0427C149.46 38.0054 149.61 38.6113 149.235 38.6486C147.603 38.8164 145.97 38.9842 144.347 39.152C143.981 39.1893 143.831 38.5833 144.197 38.5461Z" fill="#09070B"/>
<path d="M142.362 37.409C146.284 36.6073 150.206 35.8056 154.128 35.0039C154.494 34.9293 154.634 35.5353 154.278 35.6098C150.356 36.4115 146.434 37.2132 142.513 38.0149C142.147 38.0895 142.006 37.4836 142.362 37.409Z" fill="#09070B"/>
<path d="M147.643 35.3393C149.003 34.9198 150.392 34.7707 151.828 34.8825C152.203 34.9105 152.193 35.5351 151.828 35.5071C150.448 35.3953 149.107 35.5444 147.803 35.9453C147.446 36.0571 147.305 35.4512 147.652 35.3393H147.643Z" fill="#09070B"/>
<path d="M149.51 34.0156C151.152 33.9503 152.794 33.8757 154.436 33.8105C154.802 33.7918 154.793 34.4164 154.436 34.435C152.794 34.5003 151.152 34.5749 149.51 34.6401C149.145 34.6588 149.154 34.0342 149.51 34.0249V34.0156Z" fill="#09070B"/>
<path d="M153.16 33.1674C153.657 33.0462 154.155 32.9343 154.652 32.8131C155.008 32.7292 155.159 33.3352 154.802 33.4191C154.305 33.5402 153.807 33.6521 153.31 33.7733C152.954 33.8572 152.804 33.2513 153.16 33.1674Z" fill="#09070B"/>
<path d="M150.354 32.0486C152.756 31.8621 155.13 31.9926 157.522 32.4587C157.888 32.5333 157.879 33.1486 157.522 33.074C155.13 32.6172 152.747 32.4774 150.354 32.6638C149.988 32.6918 149.998 32.0765 150.354 32.0393V32.0486Z" fill="#09070B"/>
<path d="M142.331 52.5755C143.541 52.3052 144.574 51.6806 145.418 50.7298C145.671 50.4408 146.075 50.9069 145.831 51.1866C144.93 52.212 143.785 52.8925 142.481 53.1815C142.125 53.2654 141.975 52.6594 142.331 52.5755Z" fill="#09070B"/>
<path d="M146.974 49.5276C150.192 46.9361 153.335 44.2513 156.393 41.4454C156.675 41.1937 157.078 41.6505 156.806 41.9022C153.748 44.6988 150.605 47.3928 147.386 49.9843C147.096 50.2174 146.683 49.7606 146.974 49.5276Z" fill="#09070B"/>
<path d="M157.747 40.1214C158.057 39.5808 158.366 39.0308 158.676 38.4901C158.864 38.1545 159.361 38.4901 159.173 38.8257C158.864 39.3663 158.554 39.9163 158.244 40.457C158.057 40.7926 157.55 40.457 157.747 40.1214Z" fill="#09070B"/>
<path d="M148.112 58.7845C148.131 56.3328 148.309 53.9091 148.638 51.4947C148.694 51.1031 149.248 51.2989 149.191 51.6904C148.863 54.0489 148.694 56.426 148.685 58.8217C148.685 59.2226 148.103 59.1853 148.103 58.7845H148.112Z" fill="#09070B"/>
<path d="M149.331 58.8213C149.453 55.9408 149.716 53.0976 150.101 50.2544C150.157 49.8629 150.71 50.0587 150.654 50.4502C150.27 53.2375 150.026 56.0341 149.904 58.8586C149.885 59.2595 149.313 59.2222 149.322 58.8213H149.331Z" fill="#09070B"/>
<path d="M151.21 49.9098C151.501 51.2801 151.52 52.6505 151.266 54.0115C151.191 54.403 150.638 54.2072 150.713 53.8157C150.947 52.5666 150.929 51.3081 150.657 50.0403C150.572 49.6488 151.135 49.5089 151.21 49.9098Z" fill="#09070B"/>
<path d="M151.622 55.1115C151.387 55.9971 151.341 56.9014 151.491 57.8242C151.556 58.2158 150.993 58.3556 150.928 57.9547C150.759 56.92 150.806 55.9132 151.068 54.9251C151.172 54.5429 151.725 54.7387 151.622 55.1115Z" fill="#09070B"/>
<path d="M152.897 51.6714C152.719 52.5943 152.682 53.5171 152.766 54.4587C152.803 54.8595 152.222 54.8222 152.184 54.4214C152.1 53.4239 152.156 52.4451 152.344 51.4756C152.419 51.0841 152.972 51.2799 152.897 51.6714Z" fill="#09070B"/>
<path d="M153.721 48.5394C153.646 49.3225 153.571 50.0962 153.496 50.8699C153.458 51.2614 152.877 51.2335 152.914 50.8326C152.989 50.0589 153.064 49.2759 153.139 48.5021C153.177 48.1106 153.758 48.1386 153.721 48.5394Z" fill="#09070B"/>
<path d="M155.635 46.3951C155.71 48.8934 155.466 51.3358 154.922 53.7315C154.838 54.1137 154.275 53.9273 154.369 53.5451C154.913 51.1959 155.138 48.8095 155.063 46.3578C155.053 45.957 155.626 45.9943 155.645 46.3951H155.635Z" fill="#09070B"/>
<path d="M157.174 44.5775C157.418 46.7495 157.324 48.8843 156.902 50.991C156.827 51.3732 156.264 51.1868 156.348 50.7953C156.761 48.7351 156.836 46.6563 156.602 44.5402C156.555 44.1487 157.137 44.1767 157.183 44.5775H157.174Z" fill="#09070B"/>
<path d="M159.267 44.1019C158.995 46.2553 158.723 48.4087 158.451 50.5621C158.404 50.9536 157.822 50.9256 157.869 50.5248C158.141 48.3714 158.413 46.218 158.685 44.0646C158.732 43.6731 159.314 43.7011 159.267 44.1019Z" fill="#09070B"/>
<path d="M160.46 42.3961C160.544 44.2698 160.394 46.1062 160.028 47.924C159.953 48.3062 159.39 48.1198 159.474 47.7283C159.84 45.9664 159.972 44.1859 159.887 42.3588C159.868 41.958 160.45 41.9953 160.469 42.3961H160.46Z" fill="#09070B"/>
<path d="M161.884 40.9049C161.997 42.443 161.79 43.9345 161.274 45.3422C161.143 45.7057 160.58 45.5193 160.721 45.1464C161.227 43.7761 161.424 42.3591 161.312 40.8676C161.284 40.4668 161.856 40.504 161.894 40.9049H161.884Z" fill="#09070B"/>
<path d="M150.843 60.2384C151.387 59.5485 151.922 58.8587 152.466 58.1689C152.701 57.8706 153.104 58.3274 152.879 58.6257C152.344 59.3155 151.8 60.0053 151.256 60.6951C151.022 60.9935 150.618 60.5367 150.853 60.2384H150.843Z" fill="#09070B"/>
<path d="M153.573 57.3299C155.609 55.5774 157.363 53.5452 158.827 51.2333C159.033 50.9071 159.53 51.2427 159.324 51.5689C157.832 53.9274 156.049 56.0062 153.976 57.7867C153.695 58.0291 153.282 57.5723 153.563 57.3299H153.573Z" fill="#09070B"/>
<path d="M155.824 60.6577C155.655 61.8323 155.496 63.0068 155.327 64.1814C155.271 64.5729 154.717 64.3772 154.773 63.9857C154.942 62.8111 155.102 61.6365 155.271 60.4619C155.327 60.0704 155.88 60.2662 155.824 60.6577Z" fill="#09070B"/>
<path d="M157.051 58.8866C156.863 60.6391 156.666 62.401 156.479 64.1535C156.432 64.545 155.859 64.5171 155.897 64.1162C156.085 62.3637 156.282 60.6018 156.469 58.8493C156.507 58.4578 157.089 58.4858 157.051 58.8866Z" fill="#09070B"/>
<path d="M158.593 56.7802C158.433 58.6259 158.283 60.4717 158.124 62.3174C158.095 62.7089 157.514 62.681 157.542 62.2801C157.701 60.4344 157.861 58.5886 158.011 56.7429C158.049 56.3513 158.621 56.3793 158.593 56.7802Z" fill="#09070B"/>
<path d="M159.612 55.4098C159.809 57.2089 159.668 58.9708 159.227 60.686C159.124 61.0682 158.571 60.8725 158.674 60.4902C159.105 58.8216 159.218 57.1157 159.03 55.3725C158.993 54.9716 159.565 55.0089 159.612 55.4098Z" fill="#09070B"/>
<path d="M161.387 52.9952C161.359 54.8502 161.077 56.6494 160.533 58.3926C160.421 58.7655 159.858 58.579 159.98 58.2062C160.505 56.5096 160.787 54.7757 160.815 52.9672C160.815 52.5664 161.396 52.6037 161.396 53.0045L161.387 52.9952Z" fill="#09070B"/>
<path d="M162.652 51.5692C162.511 53.3217 162.192 55.0277 161.714 56.6963C161.601 57.0692 161.047 56.8827 161.16 56.5005C161.629 54.8785 161.939 53.2285 162.079 51.5319C162.117 51.1404 162.689 51.1684 162.661 51.5692H162.652Z" fill="#09070B"/>
<path d="M163.517 49.9188C163.395 51.5688 163.263 53.2095 163.141 54.8595C163.113 55.251 162.531 55.223 162.56 54.8222C162.682 53.1722 162.813 51.5315 162.935 49.8815C162.963 49.49 163.545 49.518 163.517 49.9188Z" fill="#09070B"/>
<path d="M165.647 47.7096C165.6 49.4808 165.318 51.2053 164.784 52.8646C164.662 53.2375 164.108 53.0511 164.23 52.6689C164.746 51.0562 165.028 49.3969 165.074 47.6723C165.084 47.2714 165.666 47.3087 165.656 47.7096H165.647Z" fill="#09070B"/>
<path d="M167.319 57.1713C168.295 55.0366 169.383 52.9764 170.603 51.0001C170.8 50.6739 171.306 51.0001 171.1 51.3357C169.88 53.312 168.783 55.3722 167.816 57.5069C167.657 57.8611 167.159 57.5255 167.319 57.1713Z" fill="#09070B"/>
<path d="M169.025 56.2765C169.625 55.1672 170.216 54.0672 170.817 52.9579C171.004 52.6223 171.502 52.9579 171.314 53.2934C170.713 54.4028 170.122 55.5028 169.522 56.6121C169.344 56.9477 168.837 56.6121 169.025 56.2765Z" fill="#09070B"/>
<path d="M169.511 57.3673C169.746 56.4257 170.206 55.5868 170.862 54.9249C171.125 54.6546 171.538 55.1113 171.275 55.3817C170.684 55.9783 170.281 56.7054 170.074 57.5537C169.98 57.9359 169.427 57.7495 169.521 57.3579L169.511 57.3673Z" fill="#09070B"/>
<path d="M166.782 60.8071C164.464 66.1859 161.856 71.7045 156.443 73.979C156.105 74.1189 155.814 73.5689 156.152 73.429C161.481 71.1918 164.014 65.7477 166.285 60.4715C166.435 60.1172 166.941 60.4528 166.782 60.8071Z" fill="#09070B"/>
<path d="M160.645 72.553C159.763 73.2428 158.872 73.9233 157.99 74.6131C157.699 74.8462 157.409 74.2869 157.699 74.0631C158.591 73.3733 159.473 72.6928 160.355 72.003C160.655 71.7699 160.936 72.3293 160.645 72.553Z" fill="#09070B"/>
<path d="M159.024 75.7224C158.386 76.03 157.757 76.3377 157.119 76.636C156.781 76.7944 156.5 76.2444 156.828 76.086C157.457 75.7783 158.095 75.48 158.733 75.1724C159.07 75.0139 159.361 75.5639 159.024 75.7224Z" fill="#09070B"/>
<path d="M154.053 68.8613C155.601 67.8266 156.802 66.4189 157.646 64.6851C157.815 64.3308 158.312 64.6757 158.143 65.0207C157.261 66.8478 155.967 68.33 154.343 69.4113C154.034 69.6164 153.743 69.0664 154.053 68.8613Z" fill="#09070B"/>
<path d="M154.916 70.3246C156.07 69.439 157.008 68.3111 157.721 66.9873C157.909 66.6424 158.406 66.9873 158.218 67.3229C157.458 68.7399 156.445 69.9238 155.206 70.8746C154.906 71.0983 154.625 70.5483 154.916 70.3246Z" fill="#09070B"/>
<path d="M155.204 71.4527C156.47 70.7629 157.521 69.784 158.309 68.5163C158.515 68.19 159.013 68.5163 158.806 68.8519C157.962 70.2035 156.845 71.2662 155.485 72.0027C155.157 72.1798 154.866 71.6298 155.194 71.4527H155.204Z" fill="#09070B"/>
<path d="M162.84 55.9598C164.266 53.7505 165.364 51.3548 166.105 48.7633C166.218 48.3904 166.771 48.5768 166.659 48.959C165.899 51.5972 164.792 54.0488 163.338 56.2954C163.131 56.6124 162.634 56.2861 162.84 55.9598Z" fill="#09070B"/>
<path d="M169.851 37.847C171.624 37.7724 173.163 36.9521 174.289 35.5258C174.523 35.2275 174.936 35.6843 174.702 35.9826C173.473 37.53 171.774 38.3877 169.851 38.4622C169.476 38.4809 169.485 37.8563 169.851 37.8377V37.847Z" fill="#09070B"/>
<path d="M171.811 35.6282C172.956 35.1714 174.007 34.5468 174.964 33.7358C175.245 33.4935 175.658 33.9502 175.377 34.1926C174.382 35.0316 173.303 35.6934 172.112 36.1782C171.774 36.318 171.483 35.768 171.821 35.6282H171.811Z" fill="#09070B"/>
<path d="M172.973 33.6057C174.305 33.3167 175.497 32.7295 176.548 31.8159C176.829 31.5735 177.242 32.0303 176.961 32.2727C175.835 33.2422 174.559 33.904 173.123 34.2117C172.767 34.2862 172.617 33.6803 172.973 33.6057Z" fill="#09070B"/>
<path d="M174.324 31.5829C175.572 31.3032 176.717 30.7905 177.786 30.0634C178.096 29.849 178.377 30.399 178.077 30.6134C176.97 31.3778 175.769 31.8998 174.474 32.1888C174.118 32.2727 173.968 31.6667 174.324 31.5829Z" fill="#09070B"/>
<path d="M174.542 30.6411C175.405 30.2403 176.268 29.8301 177.141 29.4292C177.479 29.2708 177.77 29.8208 177.432 29.9792C176.569 30.3801 175.705 30.7903 174.842 31.1911C174.505 31.3496 174.214 30.7996 174.551 30.6411H174.542Z" fill="#09070B"/>
<path d="M174.091 39.2362C173.697 41.0726 173.125 42.8344 172.383 44.5217C172.224 44.8759 171.727 44.5404 171.886 44.1861C172.608 42.5455 173.153 40.8302 173.537 39.0404C173.622 38.6582 174.175 38.8446 174.091 39.2362Z" fill="#09070B"/>
<path d="M176.673 36.6727C176.025 38.3506 175.378 40.0193 174.721 41.6972C174.58 42.0608 174.027 41.8744 174.168 41.5015C174.815 39.8328 175.462 38.1549 176.119 36.4769C176.26 36.1134 176.813 36.2998 176.673 36.6634V36.6727Z" fill="#09070B"/>
<path d="M178.098 33.3911C177.704 36.0479 176.916 38.5555 175.762 40.9139C175.593 41.2589 175.096 40.9233 175.265 40.5784C176.4 38.2665 177.151 35.8055 177.545 33.1953C177.601 32.8038 178.164 32.9996 178.098 33.3911Z" fill="#09070B"/>
<path d="M165.233 39.9815C166.022 39.6086 166.8 39.2264 167.588 38.8536C167.917 38.6951 168.208 39.2451 167.879 39.4036C167.091 39.7764 166.312 40.1586 165.524 40.5315C165.196 40.69 164.905 40.14 165.233 39.9815Z" fill="#09070B"/>
<path d="M164.034 42.0044C165.056 42.0324 166.041 41.8832 166.998 41.557C167.346 41.4358 167.496 42.0417 167.149 42.1629C166.135 42.5078 165.103 42.6569 164.024 42.629C163.649 42.6197 163.658 41.9951 164.024 42.0044H164.034Z" fill="#09070B"/>
<path d="M163.554 44.7265C164.323 44.6333 165.083 44.5401 165.852 44.4562C166.218 44.4096 166.368 45.0155 166.002 45.0621C165.233 45.1553 164.473 45.2485 163.704 45.3324C163.338 45.379 163.188 44.7731 163.554 44.7265Z" fill="#09070B"/>
<path d="M149.292 68.6563C146.88 62.6715 142.574 58.0012 136.992 55.4097C136.644 55.2512 136.804 54.6546 137.151 54.8224C142.874 57.4792 147.321 62.2148 149.798 68.3673C149.948 68.7401 149.451 69.0291 149.301 68.6563H149.292Z" fill="#09070B"/>
<path d="M151.357 72.6832C152.474 76.2722 152.605 79.9264 151.742 83.5153C151.648 83.8975 151.095 83.7111 151.188 83.3196C152.024 79.8238 151.892 76.3001 150.804 72.8137C150.682 72.4315 151.245 72.301 151.367 72.6832H151.357Z" fill="#09070B"/>
<path d="M142.1 61.8509C145.383 64.9086 147.532 68.8518 148.386 73.3729C148.461 73.7644 147.898 73.9043 147.823 73.5034C146.988 69.0755 144.905 65.2721 141.687 62.2704C141.396 62.0001 141.809 61.5806 142.1 61.8509Z" fill="#09070B"/>
<path d="M132.519 54.1978C123.812 53.1165 114.505 54.3004 109.26 62.3825C109.054 62.6995 108.557 62.3732 108.763 62.0469C114.12 53.7783 123.578 52.4639 132.528 53.5733C132.894 53.6199 132.894 54.2351 132.528 54.1978H132.519Z" fill="#09070B"/>
<path d="M139.809 59.4183C137.492 57.6285 134.883 56.5658 132.078 56.2954C131.712 56.2581 131.712 55.6429 132.078 55.6708C134.977 55.9598 137.689 57.0412 140.09 58.8963C140.4 59.1293 140.109 59.6607 139.8 59.4183H139.809Z" fill="#09070B"/>
<path d="M128.636 56.575C122.884 55.6987 117.452 56.9572 112.695 60.2758C112.386 60.4902 112.104 59.9402 112.405 59.7258C117.246 56.3513 122.8 55.0649 128.636 55.9598C129.002 56.0157 129.002 56.6403 128.636 56.575Z" fill="#09070B"/>
<path d="M107.449 65.8595C107.139 66.2138 106.83 66.5773 106.53 66.9316C106.276 67.2205 105.873 66.7638 106.117 66.4748C106.426 66.1205 106.736 65.757 107.036 65.4028C107.28 65.1138 107.693 65.5705 107.449 65.8595Z" fill="#09070B"/>
<path d="M110.855 65.1139C110.555 65.4775 110.246 65.841 109.945 66.2046C109.701 66.4936 109.298 66.0368 109.542 65.7478C109.842 65.3843 110.152 65.0207 110.452 64.6571C110.696 64.3682 111.099 64.8249 110.865 65.1139H110.855Z" fill="#09070B"/>
<path d="M136.272 61.1335C132.706 59.0641 128.85 58.281 124.919 58.8496C124.553 58.9056 124.403 58.2997 124.769 58.2437C128.85 57.6564 132.857 58.4581 136.563 60.6115C136.9 60.8073 136.6 61.3293 136.272 61.1335Z" fill="#09070B"/>
<path d="M135.897 53.9647C135.494 53.9088 135.091 53.8622 134.687 53.8063C134.321 53.7596 134.321 53.1351 134.687 53.1817C135.091 53.2376 135.494 53.2842 135.897 53.3402C136.263 53.3868 136.263 54.0113 135.897 53.9554V53.9647Z" fill="#09070B"/>
<path d="M140.857 62.9791C143.315 66.0833 145.069 69.607 146.073 73.5036C146.177 73.8951 145.614 74.0256 145.51 73.6341C144.525 69.8307 142.846 66.4376 140.444 63.3986C140.2 63.091 140.604 62.6715 140.857 62.9791Z" fill="#09070B"/>
<path d="M147.744 78.1276C151.319 98.8037 129.364 109.086 122.403 125.036C122.243 125.39 121.746 125.054 121.906 124.7C128.82 108.862 150.718 98.6546 147.181 78.2581C147.116 77.8666 147.669 77.7267 147.744 78.1276Z" fill="#09070B"/>
<path d="M150.344 88.046C149.097 92.2595 147.408 96.24 145.278 99.9874C145.09 100.323 144.593 99.9874 144.781 99.6518C146.882 95.951 148.552 92.0078 149.791 87.8502C149.903 87.4773 150.457 87.6638 150.344 88.046Z" fill="#09070B"/>
<path d="M149.678 76.9156C150.129 78.8732 150.054 80.8308 149.463 82.7045C149.35 83.0774 148.787 82.8909 148.909 82.5181C149.472 80.7376 149.547 78.9198 149.125 77.0554C149.031 76.6639 149.594 76.5334 149.678 76.9249V76.9156Z" fill="#09070B"/>
<path d="M153.768 82.5366C153.59 83.4315 153.412 84.3357 153.234 85.2306C153.159 85.6221 152.605 85.4264 152.68 85.0442C152.858 84.1493 153.037 83.245 153.215 82.3501C153.29 81.9586 153.843 82.1544 153.768 82.5459V82.5366Z" fill="#09070B"/>
<path d="M130.605 117.69C125.829 123.078 122.461 129.51 120.622 136.762C120.528 137.145 119.965 136.949 120.068 136.576C121.926 129.23 125.36 122.696 130.201 117.242C130.454 116.962 130.858 117.419 130.614 117.699L130.605 117.69Z" fill="#09070B"/>
<path d="M129.986 121.904C129.245 122.994 128.504 124.085 127.753 125.176C127.537 125.492 127.04 125.157 127.256 124.84C127.997 123.749 128.738 122.659 129.489 121.568C129.704 121.251 130.202 121.587 129.986 121.904Z" fill="#09070B"/>
<path d="M125.689 128.093C125.37 129.016 125.061 129.93 124.742 130.852C124.61 131.216 124.057 131.03 124.188 130.657C124.507 129.734 124.826 128.82 125.136 127.897C125.258 127.534 125.821 127.72 125.689 128.093Z" fill="#09070B"/>
<path d="M134.008 113.532C135.434 109.216 140.088 107.38 141.176 102.905C141.27 102.523 141.823 102.709 141.73 103.092C140.632 107.613 135.988 109.412 134.562 113.719C134.44 114.092 133.877 113.905 134.008 113.523V113.532Z" fill="#09070B"/>
<path d="M142.932 105.282C142.135 106.326 141.328 107.371 140.53 108.415C140.296 108.713 139.892 108.256 140.127 107.958C140.925 106.914 141.731 105.87 142.529 104.826C142.763 104.527 143.167 104.984 142.942 105.282H142.932Z" fill="#09070B"/>
<path d="M139.546 110.792C139.236 111.146 138.926 111.5 138.617 111.864C138.363 112.153 137.96 111.696 138.204 111.407C138.514 111.053 138.823 110.698 139.133 110.335C139.386 110.046 139.79 110.503 139.546 110.792Z" fill="#09070B"/>
<path d="M101.088 70.1944C94.3234 63.0724 84.4627 60.7419 75.9061 64.2749C75.5683 64.4148 75.2775 63.8648 75.6152 63.7249C84.4251 60.0894 94.5204 62.4292 101.501 69.7749C101.773 70.0639 101.36 70.4834 101.088 70.1944Z" fill="#09070B"/>
<path d="M99.4265 71.5273C97.9817 70.4459 96.5368 69.3646 95.0919 68.2832C94.7823 68.0502 95.0732 67.5282 95.3828 67.7612C96.8277 68.8426 98.2725 69.9239 99.7174 71.0053C100.027 71.2383 99.7361 71.7603 99.4265 71.5273Z" fill="#09070B"/>
<path d="M92.1391 67.2765C87.1384 64.0325 81.4621 65.0579 76.1799 66.1952C75.8234 66.2697 75.6733 65.6638 76.0298 65.5892C81.4715 64.424 87.2979 63.4265 92.4299 66.7545C92.7583 66.9689 92.4581 67.4909 92.1391 67.2765Z" fill="#09070B"/>
<path d="M96.3899 72.1986C95.1421 71.0427 93.6597 70.2783 92.0647 69.9706C91.6988 69.896 91.7082 69.2808 92.0647 69.3554C93.8286 69.7003 95.4142 70.5113 96.7933 71.7791C97.0842 72.0494 96.6714 72.4596 96.3805 72.1986H96.3899Z" fill="#09070B"/>
<path d="M89.5564 69.6721C87.1545 68.8518 84.7246 68.4603 82.2289 68.4882C81.8536 68.4882 81.863 67.873 82.2289 67.8637C84.7715 67.8264 87.2577 68.2365 89.6971 69.0755C90.0536 69.1967 89.9035 69.7933 89.5376 69.6628L89.5564 69.6721Z" fill="#09070B"/>
<path d="M84.8666 71.2012C84.2098 71.2106 83.5624 71.2199 82.9057 71.2292C82.5304 71.2292 82.5398 70.6139 82.9057 70.6046C83.5624 70.5953 84.2098 70.586 84.8666 70.5767C85.2419 70.5767 85.2325 71.1919 84.8666 71.1919V71.2012Z" fill="#09070B"/>
<path d="M80.8118 68.8238C79.8173 69.0569 78.8227 69.2993 77.8282 69.5323C77.4717 69.6162 77.3216 69.0103 77.6781 68.9264C78.6726 68.6933 79.6671 68.451 80.6617 68.2179C81.0182 68.134 81.1683 68.7399 80.8118 68.8238Z" fill="#09070B"/>
<path d="M70.9437 66.8293C68.129 68.3302 65.7929 70.4462 63.9539 73.1776C63.7382 73.4945 63.2409 73.1589 63.4567 72.842C65.3425 70.0268 67.7537 67.8174 70.6528 66.2793C70.9812 66.1022 71.2721 66.6522 70.9437 66.8293Z" fill="#09070B"/>
<path d="M67.275 74.1467C66.4306 74.8645 65.7363 75.7128 65.1828 76.7102C64.9951 77.0458 64.4979 76.7102 64.6855 76.3747C65.2578 75.3399 65.9897 74.4357 66.8622 73.6899C67.1437 73.4476 67.5565 73.9043 67.275 74.1467Z" fill="#09070B"/>
<path d="M68.4265 75.9088C67.7322 76.7012 67.0379 77.4936 66.3436 78.286C66.0903 78.5749 65.6869 78.1088 65.9308 77.8292C66.6251 77.0368 67.3194 76.2444 68.0136 75.4521C68.267 75.1631 68.6704 75.6199 68.4265 75.9088Z" fill="#09070B"/>
<path d="M101.886 66.8754C87.3252 53.0416 67.313 52.9577 49.3836 52.2493C40.067 51.8764 30.9663 50.9255 21.8093 48.5764C16.9399 47.3273 12.0611 45.8824 7.09795 45.2298C5.2215 44.9874 3.3826 44.2417 3.87985 48.073C4.02997 49.201 5.37163 50.562 6.04714 51.3077C7.97988 53.4425 10.2598 54.7755 12.8868 55.5399C14.341 55.9594 13.7124 58.3272 12.2582 57.9077C7.90482 56.6399 3.98306 53.6382 1.87206 49.2289C0.521027 46.4044 0.427208 43.3561 3.69221 42.6197C6.02838 42.0883 8.88995 43.0019 11.2355 43.468C14.0783 44.0366 16.893 44.773 19.6983 45.5095C26.2658 47.2247 32.7771 48.6137 39.4947 49.1917C61.1864 51.0654 85.5708 48.1569 103.51 65.1975C104.645 66.2788 103.003 67.9568 101.877 66.8848L101.886 66.8754Z" fill="#09070B"/>
<path d="M11.2243 55.9597C12.0781 59.9216 14.4893 63.2588 17.9889 64.9834C19.3399 65.6546 18.7301 68.0224 17.3603 67.3512C13.1101 65.2537 10.0422 61.3851 8.99135 56.4911C8.65359 54.925 10.8866 54.3843 11.2243 55.9597Z" fill="#09070B"/>
<path d="M19.0312 66.5587C18.2431 73.8578 25.5518 76.7476 30.4587 79.8518C31.7628 80.6815 30.5901 82.7696 29.2859 81.9399C23.5159 78.295 15.8037 74.8925 16.7138 66.4188C16.8826 64.8527 19.2001 64.9646 19.0218 66.5493L19.0312 66.5587Z" fill="#09070B"/>
<path d="M30.9287 80.4114C31.9139 87.7478 39.0537 91.1969 44.4297 94.5901C49.7025 97.9087 55.0785 100.91 60.8861 102.905C62.3216 103.399 61.7024 105.758 60.2575 105.264C53.3804 102.905 47.0849 99.1579 40.8739 95.1681C35.5354 91.7376 29.6434 88.1113 28.677 80.9427C28.4612 79.3673 30.7036 78.8173 30.91 80.4114H30.9287Z" fill="#09070B"/>
<path d="M101.379 66.2791C106.145 40.2242 135.455 34.2115 153.929 23.2116C159.295 20.0141 164.465 16.3599 168.959 11.876C171.22 9.62012 173.322 7.17776 175.16 4.50235C176.117 3.1227 177.056 0.810844 178.707 0.195594C181.587 -0.867112 183.548 2.64727 183.895 5.2854C184.505 9.89045 182.197 14.6633 179.598 17.9726C178.66 19.1751 177.028 17.3294 177.966 16.1455C179.711 13.9175 180.968 11.326 181.447 8.39894C181.972 5.2015 180.931 1.3422 177.853 4.79133C175.02 7.9608 172.806 11.5964 169.7 14.5608C163.123 20.8345 155.364 25.5327 147.427 29.6251C130.933 38.1361 107.665 44.8199 103.593 67.0435C103.312 68.6003 101.088 67.8266 101.369 66.2791H101.379Z" fill="#09070B"/>
<path d="M179.13 15.7166C183.502 19.4641 179.514 26.2878 178.07 30.4454C177.563 31.9089 175.33 31.1632 175.846 29.681C176.465 27.8912 177.084 26.1107 177.704 24.3208C178.313 22.559 179.871 19.4454 177.966 17.8141C176.794 16.8073 177.948 14.7099 179.139 15.726L179.13 15.7166Z" fill="#09070B"/>
<path d="M177.452 27.9189C182.781 33.5866 177.255 41.9205 174.59 47.1408C173.886 48.5205 171.888 47.1781 172.592 45.7984C174.684 41.7061 180.004 34.0621 175.81 29.5968C174.731 28.4502 176.373 26.7723 177.442 27.9096L177.452 27.9189Z" fill="#09070B"/>
<path d="M173.744 46.2926C174.194 53.6663 172.421 60.4993 168.79 66.5772C167.204 69.234 165.347 71.7043 163.405 74.0721C161.594 76.2814 159.492 79.6839 156.903 80.8958C155.561 81.5203 154.398 79.3204 155.749 78.6958C157.86 77.717 159.858 74.5475 161.369 72.739C163.329 70.3806 165.206 67.9196 166.801 65.2442C170.235 59.4739 171.867 53.1536 171.436 46.1621C171.342 44.568 173.65 44.6985 173.744 46.2926Z" fill="#09070B"/>
<path d="M157.671 78.752C158.009 108.014 125.387 120.16 123.726 148.462C123.633 150.046 121.325 149.925 121.418 148.331C123.088 119.871 155.692 107.52 155.363 78.6215C155.344 77.0274 157.652 77.1486 157.671 78.752Z" fill="#09070B"/>
<path d="M121.551 149.356C108.575 124.886 77.1075 126.182 60.4635 105.888C59.4596 104.667 61.0921 102.98 62.1054 104.201C78.9277 124.709 110.311 123.218 123.559 148.191C124.309 149.608 122.311 150.764 121.56 149.347L121.551 149.356Z" fill="#09070B"/>
<path opacity="0.24" d="M74.6213 99.8853C77.1451 103.148 80.2975 105.926 82.4742 109.431C83.206 110.615 83.5813 112.572 82.2772 113.057C81.9207 113.188 81.536 113.15 81.1607 113.104C76.1787 112.433 72.0037 109.077 68.5322 105.478C64.8544 101.666 61.4768 96.9675 61.5988 91.6913C61.6926 87.6269 67.6503 80.365 71.103 86.0235C71.938 87.3938 70.7934 90.1718 70.9716 91.7099C71.3188 94.7489 72.773 97.4895 74.6307 99.8946L74.6213 99.8853Z" fill="white"/>
<path opacity="0.24" d="M126.282 63.0445C127.605 63.4547 129.022 64.2564 129.294 65.6081C129.678 67.5377 127.586 68.9826 125.775 69.7937C122.557 71.2292 119.161 72.497 116.562 74.8648C115.455 75.8716 114.376 77.1301 112.875 77.2512C106.232 77.8012 110.51 68.9267 112.631 66.8945C116.252 63.4361 121.291 61.4971 126.282 63.0352V63.0445Z" fill="white"/>
</svg>
