<svg width="27" height="27" viewBox="0 0 27 27" fill="none" xmlns="http://www.w3.org/2000/svg">
<path d="M15.2793 11.2324C15.4746 11.0375 15.7912 11.0374 15.9863 11.2324C16.1814 11.4276 16.1813 11.7442 15.9863 11.9395L13.8535 14.0723C13.6583 14.2672 13.3417 14.2672 13.1465 14.0723L11.0137 11.9395C10.8186 11.7442 10.8185 11.4277 11.0137 11.2324C11.2089 11.0375 11.5255 11.0374 11.7207 11.2324L13.5 13.0107L15.2793 11.2324Z" fill="#3B4DA0"/>
<path d="M13.5 7.53125C13.7761 7.53125 14 7.75511 14 8.03125V13.7168C14 13.9929 13.7761 14.2168 13.5 14.2168C13.2239 14.2168 13 13.9929 13 13.7168V8.03125C13 7.75511 13.2239 7.53125 13.5 7.53125Z" fill="#3B4DA0"/>
<path d="M17.9688 13.2188C18.2449 13.2188 18.4688 13.4426 18.4688 13.7188V16.5625C18.4688 16.8029 18.3731 17.0332 18.2031 17.2031C18.0332 17.3731 17.8029 17.4688 17.5625 17.4688H9.4375C9.19715 17.4688 8.96683 17.3731 8.79688 17.2031C8.62692 17.0332 8.53125 16.8029 8.53125 16.5625V13.7188C8.53125 13.4426 8.75511 13.2188 9.03125 13.2188C9.30739 13.2188 9.53125 13.4426 9.53125 13.7188V16.4688H17.4688V13.7188C17.4688 13.4426 17.6926 13.2188 17.9688 13.2188Z" fill="#3B4DA0"/>
</svg>
