<svg width="50" height="50" viewBox="0 0 50 50" fill="none" xmlns="http://www.w3.org/2000/svg">
<path d="M25 14C29.9706 14 34 18.0294 34 23C34 24.3059 33.5636 25.7571 32.9443 27.1465C32.3181 28.5514 31.4692 29.9714 30.5635 31.2383C29.6588 32.5036 28.6773 33.6441 27.7725 34.4805C27.3213 34.8974 26.8691 35.2583 26.4375 35.5205C26.0332 35.7661 25.5277 36 25 36C24.4723 36 23.9668 35.7661 23.5625 35.5205C23.1309 35.2583 22.6787 34.8974 22.2275 34.4805C21.3227 33.6441 20.3412 32.5036 19.4365 31.2383C18.5308 29.9714 17.6819 28.5514 17.0557 27.1465C16.4364 25.7571 16 24.3059 16 23C16 18.0294 20.0294 14 25 14ZM25 16C21.134 16 18 19.134 18 23C18 23.9033 18.3136 25.0572 18.8818 26.332C19.443 27.5911 20.2194 28.8945 21.0635 30.0752C21.9088 31.2575 22.8024 32.2884 23.585 33.0117C23.9775 33.3745 24.3222 33.6409 24.6016 33.8105C24.9081 33.9968 25.0276 34 25 34C24.9724 34 25.0919 33.9968 25.3984 33.8105C25.6778 33.6409 26.0225 33.3745 26.415 33.0117C27.1976 32.2884 28.0912 31.2575 28.9365 30.0752C29.7806 28.8945 30.557 27.5911 31.1182 26.332C31.6864 25.0572 32 23.9033 32 23C32 19.134 28.866 16 25 16ZM25 18C27.7614 18 30 20.2386 30 23C30 25.7614 27.7614 28 25 28C22.2386 28 20 25.7614 20 23C20 20.2386 22.2386 18 25 18ZM25 20C23.3431 20 22 21.3431 22 23C22 24.6569 23.3431 26 25 26C26.6569 26 28 24.6569 28 23C28 21.3431 26.6569 20 25 20Z" fill="#3C49C2"/>
</svg>
