<svg width="50" height="50" viewBox="0 0 50 50" fill="none" xmlns="http://www.w3.org/2000/svg">
<path d="M31.8037 18.9443C32.2798 18.9443 32.6659 18.9439 32.9775 18.9678C33.2939 18.9921 33.5769 19.0438 33.8408 19.1699C34.2571 19.3688 34.6023 19.6888 34.8203 20.0898C34.9607 20.3481 35.0175 20.6259 35.0439 20.9297C35.0698 21.2265 35.0693 21.5924 35.0693 22.0371V29.8145C35.0693 30.2594 35.0698 30.6259 35.0439 30.9229C35.0175 31.2264 34.9606 31.5036 34.8203 31.7617C34.6023 32.1628 34.2571 32.4827 33.8408 32.6816C33.5769 32.8077 33.2939 32.8595 32.9775 32.8838C32.6659 32.9077 32.2798 32.9072 31.8037 32.9072H20.0508C19.5747 32.9072 19.1886 32.9076 18.877 32.8838C18.5605 32.8595 18.2777 32.8077 18.0137 32.6816C17.5974 32.4828 17.2523 32.1628 17.0342 31.7617C16.8939 31.5036 16.837 31.2265 16.8105 30.9229C16.7847 30.6259 16.7852 30.2594 16.7852 29.8145V22.0371C16.7852 21.5924 16.7847 21.2265 16.8105 20.9297C16.837 20.6259 16.8938 20.3481 17.0342 20.0898C17.2523 19.6888 17.5974 19.3688 18.0137 19.1699C18.2776 19.0439 18.5605 18.992 18.877 18.9678C19.1886 18.9439 19.5747 18.9443 20.0508 18.9443H31.8037ZM27.2832 25.5557C26.4836 26.1387 25.371 26.1386 24.5713 25.5557L17.8701 20.6689C17.843 20.7493 17.8205 20.8568 17.8066 21.0156C17.7854 21.2591 17.7852 21.5746 17.7852 22.0371V29.8145C17.7852 30.277 17.7854 30.5925 17.8066 30.8359C17.8273 31.0723 17.8651 31.1959 17.9131 31.2842C18.0264 31.4924 18.2106 31.6676 18.4443 31.7793C18.5498 31.8296 18.6939 31.8668 18.9531 31.8867C19.2178 31.907 19.5592 31.9072 20.0508 31.9072H31.8037C32.2951 31.9072 32.6358 31.907 32.9004 31.8867C33.1599 31.8668 33.3046 31.8297 33.4102 31.7793C33.6438 31.6676 33.8282 31.4924 33.9414 31.2842C33.9893 31.1959 34.0272 31.0722 34.0479 30.8359C34.0691 30.5925 34.0693 30.277 34.0693 29.8145V22.0371C34.0693 21.5746 34.0691 21.2591 34.0479 21.0156C34.034 20.8567 34.0106 20.7493 33.9834 20.6689L27.2832 25.5557ZM20.0508 19.9443C19.5592 19.9443 19.2178 19.9446 18.9531 19.9648C18.831 19.9742 18.7342 19.9874 18.6553 20.0039L25.1602 24.748C25.6087 25.075 26.2448 25.075 26.6934 24.748L33.1982 20.0039C33.1194 19.9874 33.0223 19.9742 32.9004 19.9648C32.6358 19.9446 32.2951 19.9443 31.8037 19.9443H20.0508ZM33.9561 20.5986C33.9511 20.588 33.9466 20.577 33.9414 20.5674C33.891 20.4747 33.8246 20.3904 33.748 20.3135L33.9561 20.5986ZM18.1055 20.3145C18.0293 20.3911 17.9633 20.4751 17.9131 20.5674C17.9083 20.5762 17.904 20.5862 17.8994 20.5957L18.1055 20.3145Z" fill="#6D85F4"/>
</svg>
