<svg width="50" height="50" viewBox="0 0 50 50" fill="none" xmlns="http://www.w3.org/2000/svg">
<path fill-rule="evenodd" clip-rule="evenodd" d="M35.1065 20.4732C35.2599 19.9829 35.1065 19.6263 34.4271 19.6263H32.1698C31.6 19.6263 31.337 19.9383 31.1836 20.2726C31.1836 20.2726 30.0221 23.1252 28.4003 24.9749C27.8744 25.5098 27.6333 25.6881 27.3484 25.6881C27.195 25.6881 26.9978 25.5098 26.9978 25.0195V20.4509C26.9978 19.8714 26.8225 19.604 26.3403 19.604H22.79C22.4393 19.604 22.2202 19.8714 22.2202 20.1389C22.2202 20.6961 23.031 20.8297 23.1187 22.3898V25.7772C23.1187 26.5127 22.9872 26.6464 22.7023 26.6464C21.9353 26.6464 20.0725 23.7715 18.9548 20.4955C18.7356 19.8491 18.5165 19.604 17.9467 19.604H15.6674C15.01 19.604 14.9004 19.916 14.9004 20.2503C14.9004 20.852 15.6674 23.8829 18.4726 27.8944C20.3355 30.6356 22.9872 32.1065 25.376 32.1065C26.8225 32.1065 26.9978 31.7722 26.9978 31.2151V29.1425C26.9978 28.4738 27.1292 28.3625 27.5895 28.3625C27.9182 28.3625 28.5099 28.5407 29.8468 29.8556C31.3808 31.4156 31.6438 32.1288 32.4985 32.1288H34.7559C35.4133 32.1288 35.7202 31.7945 35.5448 31.1482C35.3476 30.5019 34.6025 29.5659 33.6382 28.4515C33.1122 27.8276 32.3232 27.1367 32.0821 26.8024C31.7534 26.3567 31.8411 26.1784 32.0821 25.7772C32.0603 25.7772 34.8216 21.8103 35.1065 20.4732Z" fill="#4680C2"/>
</svg>
