<svg width="50" height="50" viewBox="0 0 50 50" fill="none" xmlns="http://www.w3.org/2000/svg">
<path fill-rule="evenodd" clip-rule="evenodd" d="M25.544 34.8195H25.5397C23.7897 34.8189 22.0702 34.382 20.5429 33.5529L15 35L16.4834 29.6077C15.5683 28.0295 15.0869 26.2394 15.0876 24.4054C15.09 18.6679 19.7806 14 25.5439 14C28.341 14.0012 30.9663 15.0849 32.9404 17.0519C34.9145 19.0187 36.0011 21.6331 36 24.4136C35.9977 30.1498 31.309 34.8172 25.544 34.8195ZM20.7998 31.6691L21.1171 31.8565C22.4515 32.6446 23.981 33.0615 25.5405 33.0621H25.544C30.334 33.0621 34.2326 29.1821 34.2345 24.413C34.2355 22.1019 33.3324 19.9289 31.6916 18.2941C30.0508 16.6592 27.8687 15.7584 25.5474 15.7576C20.7536 15.7576 16.855 19.6373 16.8531 24.406C16.8524 26.0403 17.3119 27.6318 18.1818 29.0089L18.3885 29.3361L17.5105 32.5278L20.7998 31.6691ZM30.4539 26.654C30.6361 26.7416 30.7592 26.8008 30.8117 26.8881C30.877 26.9965 30.877 27.5171 30.6594 28.1245C30.4416 28.7319 29.3978 29.2863 28.8958 29.3608C28.4458 29.4279 27.8761 29.4558 27.2503 29.2578C26.8708 29.138 26.3842 28.978 25.7609 28.7101C23.3116 27.6576 21.6564 25.2951 21.3435 24.8485C21.3216 24.8173 21.3063 24.7954 21.2977 24.784L21.2957 24.7812C21.1574 24.5976 20.2309 23.3675 20.2309 22.0943C20.2309 20.8966 20.8221 20.2689 21.0942 19.9799C21.1129 19.9601 21.13 19.9419 21.1453 19.9252C21.3848 19.6649 21.6679 19.5998 21.842 19.5998C22.0162 19.5998 22.1905 19.6014 22.3428 19.609C22.3616 19.61 22.3811 19.6098 22.4013 19.6097C22.5535 19.6088 22.7433 19.6077 22.9306 20.0554C23.0026 20.2276 23.1081 20.483 23.2192 20.7524C23.444 21.2971 23.6925 21.8989 23.7361 21.986C23.8015 22.1161 23.845 22.268 23.7579 22.4415C23.7448 22.4675 23.7328 22.4921 23.7212 22.5156C23.6557 22.6485 23.6077 22.7462 23.4966 22.8753C23.453 22.926 23.4079 22.9806 23.3628 23.0353C23.2729 23.1443 23.183 23.2532 23.1048 23.3308C22.9739 23.4604 22.8378 23.6011 22.9902 23.8614C23.1426 24.1217 23.667 24.9732 24.4436 25.6627C25.2785 26.4038 26.0042 26.717 26.372 26.8758C26.4438 26.9068 26.502 26.9319 26.5447 26.9532C26.8058 27.0834 26.9582 27.0616 27.1107 26.8881C27.2631 26.7146 27.7638 26.1288 27.9379 25.8686C28.112 25.6084 28.2863 25.6517 28.5257 25.7384C28.7653 25.8253 30.0497 26.4542 30.311 26.5844C30.362 26.6098 30.4097 26.6327 30.4539 26.654Z" fill="#38EF7D"/>
</svg>
