<svg width="148" height="148" viewBox="0 0 148 148" fill="none" xmlns="http://www.w3.org/2000/svg">
<path d="M98.6674 14.7998C98.6674 14.7998 101.726 18.9217 101.972 20.8605C99.3972 18.675 90.4344 14.7468 80.1385 16.804C85.4468 18.152 89.2981 21.193 91.913 24.7917C82.2533 25.4207 69.0674 31.0727 69.0674 44.3998C69.0674 50.267 71.709 57.3426 75.1763 63.5646C65.5643 58.9072 55.8206 51.3501 54.2674 39.4665C54.2674 39.4665 32.0576 36.1513 19.7341 19.7331C19.9068 33.7142 21.8012 42.1206 34.5341 49.3331C34.5341 49.3331 22.7681 50.4333 14.8008 44.3998C14.8008 44.3998 17.6824 63.3093 35.9505 65.3665C35.9505 65.3665 30.1286 69.5302 19.7341 69.0665C19.7341 69.0665 24.9622 78.4689 40.5466 74.0191C40.5466 74.0191 49.5849 78.9331 63.7583 78.9331C68.5533 78.9331 72.8482 78.4097 76.6505 77.6324C73.9458 90.4847 66.061 105.999 54.412 111.106C41.4274 116.799 27.1742 114.983 26.9029 102.684C26.7795 96.942 33.4526 92.3695 44.6513 92.1722C42.1106 94.0025 37.6974 97.8241 34.0813 104.371C46.3258 98.2928 54.976 93.9047 63.5945 95.217C63.5945 95.217 55.1226 83.3501 39.6023 81.949C39.6023 81.949 42.6478 85.3913 45.0849 88.5782C27.4729 87.1179 19.7341 97.4973 19.7341 106.066C19.7341 116.106 26.7546 128.363 46.4435 128.363C59.9481 128.363 72.627 123.728 82.9906 116.531C84.2701 119.161 85.6436 121.574 86.6424 123.034C89.2571 126.858 102.194 124.027 102.194 124.027C102.194 124.027 100.319 126.568 100.97 129.336C102.066 133.988 106.867 133.036 106.867 133.036C106.867 133.036 104.914 129.696 105.605 127.698C106.291 125.7 108.775 124.894 108.775 124.894C112.613 125.476 118.142 129.416 118.892 133.2C122.449 126.604 119.575 121.751 110.586 121.233C114.356 118.953 120.625 117.728 123.344 119.652C122.549 111.453 113.596 111.103 108.746 117.995C108.149 114.088 110.008 109.173 112.504 106.539C112.504 106.539 106.556 104.518 104.401 108.514C102.245 112.51 107.18 117.094 103.476 118.756C99.7706 120.424 94.2385 118.084 96.7693 111.395C97.7749 108.735 97.7305 105.889 97.2703 103.214C99.4548 100.452 101.35 97.5513 102.946 94.5714C112.89 98.6369 118.825 89.3683 118.825 89.3683C118.825 89.3683 118.796 91.7728 120.424 93.1936C123.167 95.5764 125.704 92.8467 125.704 92.8467C125.704 92.8467 123.022 91.6591 122.563 90.1199C122.104 88.5807 123.276 86.9883 123.276 86.9883C125.906 85.6415 131.05 85.6214 133.191 87.6243C132.456 81.9707 128.538 80.2442 122.766 83.9146C124.078 80.8362 127.404 77.2956 129.934 77.2758C125.81 72.5645 120.119 76.326 120.183 82.7295C118.087 80.5835 117.058 76.7329 117.428 73.9998C117.428 73.9998 112.865 75.3891 113.304 78.8079C113.748 82.2267 118.832 82.8741 117.283 85.543C116.086 87.6127 109.81 88.0238 106.713 85.4949C107.862 81.6788 108.534 77.8215 108.534 73.9998C108.534 59.9645 103.601 59.1998 103.601 59.1998C89.4273 59.1998 83.8674 48.0455 83.8674 44.3998C83.8674 38.6525 88.2815 35.2942 95.9792 34.668C96.6086 38.9592 95.7872 42.7514 93.7341 44.3998C93.7341 44.3998 106.25 43.4928 108.534 54.2376C108.534 54.2376 115.569 53.9113 118.401 49.3331L114.392 47.83C112.631 44.2287 108.731 40.3947 105.48 39.6399C105.494 36.9611 106.26 35.2324 107.725 34.379C107.725 34.379 112.862 37.4208 119.172 38.9847C125.59 40.5732 124.654 46.8472 124.654 46.8472C128.542 45.2735 132.407 39.4369 133.201 34.5331C133.201 34.5331 128.655 33.8212 127.333 33.5696C126.011 33.3131 115.857 28.0196 115.857 28.0196L113.467 22.248C113.467 22.248 111.615 22.199 110.085 22.0264C108.655 20.0974 107.898 16.7189 98.6674 14.7998Z" fill="url(#paint0_radial_795_15082)"/>
<defs>
<radialGradient id="paint0_radial_795_15082" cx="0" cy="0" r="1" gradientTransform="matrix(-45.9971 -90.1955 386.966 -778.106 111.48 93.5373)" gradientUnits="userSpaceOnUse">
<stop stop-color="#AD32AE"/>
<stop offset="1" stop-color="#3C49C2"/>
</radialGradient>
</defs>
</svg>
