<svg width="682" height="369" viewBox="0 0 682 369" fill="none" xmlns="http://www.w3.org/2000/svg">
<g clip-path="url(#clip0_2172_4662)">
<path d="M461.996 76.4918V86.1356C461.996 90.3407 458.593 93.7559 454.389 93.7559H453.734V94.1569H453.686C458.272 94.1569 461.996 97.882 461.996 102.482V114.35C461.996 119.369 457.938 123.447 452.928 123.453L429.223 123.502V66.9938C429.223 66.9938 442.792 66.9513 452.473 66.9513C457.738 66.9513 462.002 71.2232 462.002 76.4979L461.996 76.4918ZM435.549 72.7546L435.598 90.6203H450.174C452.976 90.6203 455.251 88.3415 455.251 85.534V77.8408C455.251 75.0334 452.976 72.7546 450.174 72.7546H435.549ZM435.549 117.151H450.174C452.976 117.151 455.251 114.873 455.251 112.065V102.749C455.251 99.9481 452.988 97.6754 450.192 97.6632L435.549 97.6146V117.151Z" fill="#6D85F4"/>
<path d="M355.985 76.2669V94.5823C355.985 99.7232 351.83 103.886 346.698 103.886L355.33 123.489C355.481 123.429 347.917 123.489 347.917 123.489L338.928 103.886H329.429V123.489H323.096V66.9816C323.096 66.9816 337.017 66.9391 346.71 66.9573C351.83 66.9695 355.973 71.1321 355.973 76.2609L355.985 76.2669ZM329.435 97.5477H344.302C347.141 97.5477 349.446 95.2507 349.464 92.4007C349.482 88.1592 349.507 82.1614 349.501 77.9137C349.501 75.0637 347.19 72.7485 344.345 72.7485H329.441V97.5417L329.435 97.5477Z" fill="#6D85F4"/>
<path d="M399.653 84.2882H393.321V77.3121C393.321 74.8753 391.349 72.8943 388.911 72.8943H378.229C375.445 72.8943 373.176 75.1244 373.115 77.9137L372.879 89.1921C372.879 89.1921 399.314 97.6875 399.386 97.5173C399.398 100.349 399.398 106.426 399.398 111.98C399.398 118.312 394.273 123.441 387.952 123.441H378.332C372.012 123.441 366.886 118.306 366.886 111.974V106.195H373.17L373.14 111.925C373.122 114.927 375.548 117.376 378.55 117.376H387.789C390.803 117.376 393.236 114.909 393.199 111.889L393.06 101.054L366.886 92.8929V76.4796C366.886 71.211 371.15 66.939 376.409 66.939H390.464C395.535 66.939 399.647 71.0591 399.647 76.1393V84.2882H399.653Z" fill="#6D85F4"/>
<path d="M225.262 123.496H218.93V66.9877H240.754C246.511 66.9877 251.175 71.6607 251.175 77.4276V92.0604C251.175 99.4255 246.869 103.764 241.537 103.795L225.262 103.886V123.496ZM225.262 97.5477H240.318C242.986 97.5477 245.158 95.3966 245.182 92.7228C245.231 88.1105 245.285 81.2316 245.261 76.8746C245.249 74.5958 243.399 72.7546 241.124 72.7546H225.262V97.5477Z" fill="#6D85F4"/>
<path d="M311.589 66.9878V72.7547H288.57V91.8539H310.655V97.6207H288.57V117.151H311.589V123.496H281.667V66.9878H311.589Z" fill="#6D85F4"/>
<path d="M269.584 61.9987V143.117H263.257V48.3077L269.584 61.9987Z" fill="#6D85F4"/>
<path d="M411.268 61.9987V143.117H417.6V48.3077L411.268 61.9987Z" fill="#6D85F4"/>
<path d="M327.664 17.0064C331.279 16.3501 335.052 16.9881 338.31 18.6592C338.564 18.7929 339.511 19.431 339.687 19.431C341.051 18.5863 342.483 17.845 344.03 17.377C346.687 16.581 349.604 16.4595 352.316 17.0732C352.2 13.6824 350.629 10.4131 348.1 8.18291C344.479 9.69603 340.882 6.1472 342.677 2.52545C344.8 -1.75867 351.303 0.410736 350.465 5.13238C353.996 8.5779 356.064 13.3664 355.852 18.3615C360.243 20.5005 363.519 24.7603 364.32 29.6156C366.837 30.1625 368.287 32.6358 367.456 35.1151C366.691 37.3757 364.053 38.5667 361.869 37.5762C358.97 36.2636 358.66 32.3866 361.05 30.4117C360.668 28.7041 359.977 27.0634 358.976 25.6293C357.975 24.1952 356.604 22.8461 355.082 22.0744C353.941 26.3281 350.72 29.8769 346.759 31.7182C346.771 35.3703 345.789 39.1805 343.617 42.1338C343.35 42.4984 342.914 42.8934 342.683 43.2215C342.647 43.2762 342.592 43.2884 342.616 43.3917C343.757 43.9933 344.836 44.5219 346.104 44.7893C348.421 45.2754 350.793 45.3666 352.971 44.3214C353.341 39.697 359.91 38.9678 361.105 43.5254C362.166 47.5785 357.314 50.4285 354.226 47.6575C349.446 49.5231 343.981 48.8243 339.826 45.8406C335.75 48.8364 330.206 49.596 325.481 47.7062C324.189 48.8243 322.806 49.3773 321.107 48.8486C318.299 47.9857 317.31 44.4065 319.215 42.1702C321.562 39.4175 325.887 40.7543 326.469 44.2485C328.301 45.1418 330.339 45.2511 332.335 44.9959C334.009 44.7832 335.695 44.3032 337.09 43.343C336.751 42.7718 336.278 42.2675 335.908 41.7084C333.967 38.7733 333.045 35.2488 333.178 31.7243C329.12 29.9073 326.118 26.1276 324.771 21.9285C322.933 23.077 321.368 24.8211 320.234 26.6563C319.488 27.8655 318.845 29.2085 318.79 30.6548C321.313 32.5689 320.804 36.6465 317.856 37.8375C314.981 38.9982 311.978 36.7801 312.178 33.6992C312.288 32.0038 313.507 30.4846 315.126 30.0106C315.824 26.3038 317.747 22.9312 320.634 20.5127C321.659 19.6558 322.866 18.8598 324.092 18.3433C323.776 13.9376 325.475 9.79326 328.21 6.44496C328.459 6.14112 329.351 5.3086 329.454 5.05946C329.575 4.76169 329.454 3.95956 329.533 3.52204C330.23 -0.512932 336.29 -0.980841 337.521 3.05413C338.613 6.63334 335.143 9.57449 331.759 8.17683C329.308 10.4131 327.725 13.652 327.67 17.0064H327.664ZM351.776 20.7193C350.223 20.3243 348.488 20.4397 346.917 20.7375C345.528 20.9988 344.242 21.5882 343.053 22.3357C342.992 22.4208 343.059 22.4937 343.102 22.5605C343.265 22.834 343.617 23.1682 343.817 23.4599C344.758 24.8029 345.528 26.2856 345.989 27.8655C346.098 27.9445 347.493 26.8386 347.675 26.6866C349.525 25.1188 351.036 23.0345 351.782 20.7193H351.776ZM337.024 22.202C334.792 20.9623 332.074 20.3304 329.514 20.5127C329.314 20.5248 328.168 20.695 328.144 20.8226C329.12 23.7516 331.134 26.3281 333.76 27.9324C334.143 27.0573 334.476 26.164 334.925 25.3254C335.519 24.2134 336.29 23.2168 337.024 22.202ZM342.41 29.3483C342.55 29.1903 341.761 27.4341 341.622 27.1485C341.148 26.2127 340.524 25.3437 339.826 24.5659C338.728 25.9696 337.903 27.586 337.37 29.2875C338.989 29.8709 340.772 29.8162 342.416 29.3483H342.41ZM342.95 32.9336C340.93 33.3225 338.843 33.286 336.824 32.9336C336.769 35.7775 338.006 38.6214 339.82 40.7604C341.798 38.6761 342.92 35.82 342.95 32.9336Z" fill="#6D85F4"/>
<path d="M282 136.293V135.32H288.357V136.293H282ZM284.645 143.147V135.551H285.712V143.147H284.645Z" fill="#6D85F4"/>
<path d="M290.235 143.262C289.738 143.262 289.295 143.141 288.901 142.897C288.507 142.654 288.197 142.32 287.967 141.901C287.736 141.482 287.621 141.008 287.621 140.479C287.621 139.95 287.736 139.482 287.967 139.057C288.197 138.638 288.507 138.303 288.901 138.054C289.295 137.805 289.738 137.684 290.235 137.684C290.642 137.684 291 137.769 291.321 137.939C291.643 138.109 291.897 138.34 292.092 138.638C292.286 138.935 292.395 139.276 292.419 139.671V141.281C292.395 141.664 292.292 142.004 292.098 142.308C291.904 142.612 291.649 142.843 291.327 143.013C291.006 143.183 290.642 143.268 290.235 143.268V143.262ZM290.405 142.302C290.909 142.302 291.315 142.132 291.618 141.791C291.928 141.451 292.079 141.014 292.079 140.479C292.079 140.12 292.007 139.798 291.867 139.519C291.728 139.239 291.527 139.027 291.279 138.869C291.024 138.717 290.733 138.638 290.393 138.638C290.053 138.638 289.756 138.717 289.501 138.875C289.241 139.033 289.04 139.251 288.895 139.525C288.749 139.798 288.677 140.114 288.677 140.467C288.677 140.819 288.749 141.147 288.895 141.421C289.04 141.694 289.247 141.913 289.508 142.071C289.768 142.229 290.072 142.308 290.405 142.308V142.302ZM292.013 143.147V141.7L292.207 140.394L292.013 139.099V137.793H293.038V143.147H292.013Z" fill="#6D85F4"/>
<path d="M294.016 138.717V137.793H300.846V138.717H294.016ZM295.338 143.147V135.551H296.351V143.147H295.338ZM298.522 143.147V135.551H299.535V143.147H298.522Z" fill="#6D85F4"/>
<path d="M304.102 143.262C303.587 143.262 303.114 143.141 302.695 142.891C302.277 142.642 301.943 142.308 301.694 141.883C301.446 141.457 301.324 140.983 301.324 140.455C301.324 139.926 301.446 139.47 301.694 139.051C301.943 138.632 302.277 138.303 302.695 138.054C303.114 137.805 303.587 137.684 304.102 137.684C304.618 137.684 305.103 137.805 305.528 138.048C305.952 138.291 306.286 138.626 306.535 139.045C306.783 139.464 306.905 139.938 306.905 140.455C306.905 140.971 306.777 141.457 306.535 141.883C306.286 142.308 305.952 142.642 305.528 142.891C305.103 143.141 304.63 143.262 304.102 143.262ZM304.102 142.278C304.448 142.278 304.751 142.199 305.012 142.041C305.273 141.883 305.479 141.664 305.631 141.39C305.783 141.117 305.855 140.801 305.855 140.449C305.855 140.096 305.776 139.792 305.625 139.525C305.473 139.257 305.267 139.045 305.006 138.887C304.745 138.735 304.448 138.656 304.102 138.656C303.757 138.656 303.478 138.735 303.211 138.887C302.95 139.039 302.744 139.251 302.592 139.525C302.44 139.798 302.368 140.102 302.368 140.449C302.368 140.795 302.44 141.117 302.592 141.39C302.744 141.664 302.95 141.883 303.211 142.041C303.471 142.199 303.769 142.278 304.102 142.278Z" fill="#6D85F4"/>
<path d="M310.462 143.262C309.946 143.262 309.473 143.141 309.054 142.891C308.636 142.642 308.302 142.308 308.054 141.883C307.805 141.457 307.684 140.983 307.684 140.455C307.684 139.926 307.805 139.47 308.054 139.051C308.302 138.632 308.636 138.303 309.054 138.054C309.473 137.805 309.94 137.684 310.462 137.684C310.983 137.684 311.463 137.805 311.887 138.048C312.312 138.291 312.645 138.626 312.894 139.045C313.143 139.464 313.264 139.938 313.264 140.455C313.264 140.971 313.143 141.457 312.894 141.883C312.645 142.308 312.312 142.642 311.887 142.891C311.463 143.141 310.989 143.262 310.462 143.262ZM310.462 142.278C310.807 142.278 311.111 142.199 311.372 142.041C311.632 141.883 311.839 141.664 311.99 141.39C312.142 141.117 312.215 140.801 312.215 140.449C312.215 140.096 312.136 139.792 311.984 139.525C311.833 139.257 311.626 139.045 311.366 138.887C311.105 138.735 310.801 138.656 310.462 138.656C310.122 138.656 309.837 138.735 309.576 138.887C309.315 139.039 309.109 139.251 308.957 139.525C308.806 139.798 308.733 140.102 308.733 140.449C308.733 140.795 308.806 141.117 308.957 141.39C309.109 141.664 309.315 141.883 309.576 142.041C309.837 142.199 310.134 142.278 310.462 142.278Z" fill="#6D85F4"/>
<path d="M319.212 143.263C318.696 143.263 318.241 143.16 317.847 142.959C317.453 142.758 317.155 142.479 316.937 142.12C316.719 141.762 316.609 141.355 316.609 140.899C316.609 140.443 316.737 140 316.998 139.611C317.258 139.228 317.628 138.924 318.108 138.699L318.605 139.331C318.302 139.483 318.071 139.684 317.895 139.945C317.719 140.206 317.634 140.516 317.634 140.875C317.634 141.166 317.701 141.422 317.835 141.628C317.968 141.841 318.162 142.005 318.405 142.12C318.647 142.236 318.926 142.297 319.242 142.297C319.63 142.297 319.97 142.212 320.249 142.048C320.528 141.883 320.74 141.671 320.886 141.416L321.547 142.193C321.395 142.406 321.201 142.588 320.959 142.752C320.716 142.916 320.443 143.038 320.146 143.129C319.848 143.22 319.539 143.263 319.206 143.263H319.212ZM322.002 143.147L318.265 139.137C317.98 138.821 317.768 138.523 317.622 138.237C317.477 137.952 317.41 137.636 317.41 137.289C317.41 136.888 317.501 136.536 317.689 136.226C317.877 135.916 318.138 135.667 318.465 135.485C318.793 135.302 319.175 135.205 319.6 135.205C319.915 135.205 320.2 135.254 320.461 135.357C320.722 135.46 320.946 135.594 321.147 135.758C321.347 135.922 321.511 136.111 321.65 136.323L320.916 136.986C320.746 136.742 320.552 136.554 320.34 136.408C320.128 136.262 319.885 136.196 319.6 136.196C319.26 136.196 318.981 136.299 318.757 136.499C318.532 136.7 318.417 136.961 318.417 137.277C318.417 137.545 318.472 137.776 318.587 137.964C318.702 138.152 318.866 138.371 319.09 138.62L323.245 143.153H321.996L322.002 143.147Z" fill="#6D85F4"/>
<path d="M326.215 143.147V135.32H327.27V143.147H326.215ZM326.925 140.103V139.179H329.054C329.345 139.179 329.606 139.118 329.836 138.997C330.067 138.875 330.242 138.705 330.376 138.492C330.509 138.274 330.576 138.012 330.576 137.715C330.576 137.417 330.509 137.155 330.376 136.937C330.242 136.718 330.067 136.548 329.836 136.432C329.606 136.311 329.345 136.25 329.054 136.25H326.925V135.326H329.108C329.587 135.326 330.018 135.424 330.4 135.618C330.782 135.813 331.086 136.092 331.304 136.445C331.522 136.803 331.638 137.222 331.638 137.715C331.638 138.207 331.528 138.614 331.304 138.979C331.08 139.337 330.782 139.617 330.4 139.811C330.018 140.005 329.587 140.103 329.108 140.103H326.925Z" fill="#6D85F4"/>
<path d="M333.37 136.724C333.181 136.724 333.03 136.663 332.909 136.536C332.787 136.408 332.727 136.256 332.727 136.068C332.727 135.88 332.787 135.734 332.909 135.612C333.03 135.491 333.181 135.424 333.37 135.424C333.558 135.424 333.709 135.485 333.831 135.612C333.952 135.734 334.012 135.886 334.012 136.068C334.012 136.25 333.952 136.414 333.831 136.536C333.709 136.657 333.558 136.724 333.37 136.724ZM332.854 143.147V137.794H333.879V143.147H332.854Z" fill="#6D85F4"/>
<path d="M337.848 143.262C337.308 143.262 336.823 143.141 336.404 142.897C335.98 142.654 335.646 142.32 335.397 141.901C335.149 141.482 335.027 141.002 335.027 140.467C335.027 139.932 335.149 139.47 335.391 139.045C335.634 138.626 335.968 138.291 336.38 138.048C336.792 137.805 337.266 137.684 337.781 137.684C338.266 137.684 338.703 137.799 339.085 138.024C339.467 138.249 339.765 138.559 339.977 138.96C340.189 139.361 340.298 139.81 340.298 140.327C340.298 140.4 340.298 140.485 340.286 140.57C340.28 140.655 340.262 140.752 340.244 140.856H335.731V140.011H339.704L339.334 140.339C339.334 139.981 339.267 139.671 339.14 139.422C339.013 139.172 338.831 138.972 338.6 138.838C338.37 138.698 338.084 138.632 337.757 138.632C337.429 138.632 337.108 138.705 336.847 138.856C336.586 139.008 336.38 139.215 336.24 139.488C336.095 139.762 336.028 140.078 336.028 140.449C336.028 140.819 336.101 141.153 336.253 141.433C336.404 141.712 336.617 141.931 336.896 142.089C337.175 142.241 337.49 142.32 337.854 142.32C338.151 142.32 338.43 142.265 338.679 142.162C338.928 142.059 339.146 141.901 339.328 141.688L339.983 142.351C339.722 142.654 339.407 142.879 339.037 143.037C338.667 143.195 338.279 143.274 337.854 143.274L337.848 143.262Z" fill="#6D85F4"/>
<path d="M341.402 143.147V137.793H342.415V143.147H341.402ZM342.415 140.102L342.033 139.92C342.033 139.239 342.191 138.693 342.506 138.285C342.822 137.878 343.277 137.678 343.865 137.678C344.138 137.678 344.381 137.726 344.599 137.817C344.817 137.909 345.018 138.067 345.206 138.285L344.544 138.972C344.429 138.851 344.308 138.765 344.174 138.711C344.041 138.656 343.883 138.632 343.701 138.632C343.325 138.632 343.022 138.753 342.779 138.99C342.537 139.233 342.421 139.598 342.421 140.096L342.415 140.102Z" fill="#6D85F4"/>
<path d="M348.189 143.262C347.661 143.262 347.188 143.141 346.763 142.891C346.339 142.642 346.005 142.308 345.762 141.883C345.52 141.457 345.398 140.989 345.398 140.467C345.398 139.944 345.52 139.47 345.762 139.045C346.005 138.626 346.339 138.291 346.763 138.048C347.188 137.805 347.661 137.684 348.189 137.684C348.601 137.684 348.983 137.763 349.335 137.915C349.687 138.066 349.99 138.291 350.245 138.583L349.572 139.257C349.408 139.063 349.202 138.911 348.965 138.814C348.722 138.711 348.468 138.662 348.189 138.662C347.849 138.662 347.552 138.741 347.291 138.893C347.03 139.045 346.824 139.257 346.672 139.531C346.521 139.804 346.448 140.114 346.448 140.467C346.448 140.819 346.521 141.129 346.672 141.403C346.824 141.676 347.03 141.889 347.291 142.047C347.552 142.205 347.855 142.284 348.189 142.284C348.474 142.284 348.735 142.235 348.971 142.132C349.208 142.028 349.414 141.883 349.584 141.688L350.245 142.363C349.996 142.648 349.693 142.867 349.341 143.025C348.983 143.183 348.601 143.262 348.189 143.262Z" fill="#6D85F4"/>
<path d="M351.768 136.724C351.58 136.724 351.428 136.663 351.307 136.536C351.186 136.414 351.125 136.256 351.125 136.068C351.125 135.88 351.186 135.734 351.307 135.612C351.428 135.491 351.58 135.424 351.768 135.424C351.956 135.424 352.108 135.485 352.229 135.612C352.35 135.734 352.411 135.886 352.411 136.068C352.411 136.25 352.35 136.414 352.229 136.536C352.108 136.657 351.956 136.724 351.768 136.724ZM351.252 143.147V137.794H352.278V143.147H351.252Z" fill="#6D85F4"/>
<path d="M353.77 143.147V137.793H354.783V143.147H353.77ZM357.542 143.147V140.023C357.542 139.616 357.415 139.282 357.166 139.02C356.918 138.759 356.584 138.626 356.184 138.626C355.911 138.626 355.674 138.686 355.462 138.808C355.25 138.929 355.086 139.093 354.964 139.306C354.843 139.519 354.783 139.756 354.783 140.029L354.364 139.792C354.364 139.385 354.455 139.027 354.637 138.711C354.819 138.395 355.068 138.145 355.389 137.963C355.711 137.781 356.075 137.684 356.481 137.684C356.887 137.684 357.245 137.787 357.555 137.987C357.864 138.188 358.113 138.455 358.295 138.783C358.477 139.112 358.568 139.458 358.568 139.829V143.153H357.542V143.147Z" fill="#6D85F4"/>
<path d="M362.152 143.056C361.666 143.056 361.23 142.94 360.842 142.703C360.453 142.472 360.15 142.15 359.926 141.737C359.701 141.324 359.586 140.868 359.586 140.358C359.586 139.847 359.695 139.391 359.92 138.99C360.144 138.589 360.447 138.267 360.835 138.03C361.224 137.793 361.66 137.678 362.14 137.678C362.558 137.678 362.934 137.763 363.262 137.927C363.589 138.091 363.844 138.322 364.032 138.62C364.22 138.917 364.323 139.264 364.348 139.665V141.087C364.323 141.476 364.22 141.822 364.026 142.12C363.832 142.418 363.577 142.649 363.256 142.813C362.934 142.977 362.564 143.062 362.152 143.062V143.056ZM362.152 145.505C361.594 145.505 361.108 145.401 360.69 145.201C360.271 145 359.926 144.715 359.665 144.344L360.326 143.682C360.544 143.961 360.805 144.174 361.102 144.32C361.406 144.465 361.757 144.538 362.17 144.538C362.71 144.538 363.14 144.393 363.462 144.107C363.783 143.815 363.947 143.426 363.947 142.94V141.609L364.129 140.406L363.947 139.209V137.799H364.96V142.94C364.96 143.451 364.845 143.9 364.608 144.289C364.372 144.678 364.044 144.976 363.62 145.189C363.195 145.401 362.704 145.511 362.152 145.511V145.505ZM362.346 142.102C362.686 142.102 362.977 142.029 363.225 141.889C363.474 141.749 363.668 141.543 363.808 141.287C363.947 141.032 364.014 140.728 364.014 140.382C364.014 140.036 363.941 139.732 363.808 139.476C363.668 139.215 363.474 139.015 363.225 138.869C362.977 138.723 362.686 138.65 362.352 138.65C362.018 138.65 361.721 138.723 361.46 138.869C361.205 139.015 361.005 139.221 360.86 139.476C360.714 139.738 360.641 140.036 360.641 140.376C360.641 140.716 360.714 141.014 360.86 141.275C361.005 141.536 361.212 141.743 361.466 141.889C361.721 142.035 362.018 142.108 362.352 142.108L362.346 142.102Z" fill="#6D85F4"/>
<path d="M371.11 143.263C370.504 143.263 369.982 143.147 369.545 142.922C369.109 142.698 368.726 142.369 368.387 141.944L369.109 141.221C369.357 141.567 369.642 141.829 369.964 142.005C370.285 142.181 370.686 142.272 371.159 142.272C371.632 142.272 371.996 142.169 372.281 141.968C372.566 141.768 372.706 141.488 372.706 141.136C372.706 140.844 372.639 140.607 372.499 140.425C372.36 140.242 372.178 140.097 371.953 139.981C371.729 139.866 371.48 139.762 371.213 139.671C370.946 139.58 370.673 139.483 370.401 139.374C370.128 139.264 369.879 139.124 369.654 138.96C369.424 138.796 369.242 138.584 369.109 138.322C368.975 138.061 368.908 137.733 368.908 137.326C368.908 136.882 369.018 136.505 369.23 136.189C369.442 135.879 369.733 135.636 370.109 135.466C370.479 135.296 370.898 135.211 371.365 135.211C371.875 135.211 372.336 135.308 372.736 135.509C373.142 135.709 373.47 135.971 373.725 136.293L373.003 137.016C372.772 136.742 372.524 136.542 372.257 136.408C371.99 136.274 371.686 136.208 371.341 136.208C370.922 136.208 370.589 136.299 370.34 136.481C370.091 136.663 369.97 136.925 369.97 137.253C369.97 137.514 370.037 137.727 370.176 137.891C370.316 138.055 370.498 138.189 370.722 138.304C370.946 138.419 371.195 138.523 371.468 138.614C371.741 138.705 372.014 138.808 372.281 138.924C372.548 139.039 372.797 139.179 373.021 139.355C373.245 139.531 373.427 139.75 373.567 140.024C373.706 140.297 373.773 140.644 373.773 141.057C373.773 141.75 373.537 142.29 373.057 142.679C372.578 143.068 371.935 143.263 371.116 143.263H371.11Z" fill="#6D85F4"/>
<path d="M374.52 138.717V137.793H378.165V138.717H374.52ZM375.836 143.147V135.551H376.849V143.147H375.836Z" fill="#6D85F4"/>
<path d="M381.32 143.238C380.877 143.238 380.483 143.141 380.131 142.952C379.78 142.764 379.513 142.49 379.319 142.132C379.124 141.779 379.027 141.372 379.027 140.904V137.793H380.04V140.862C380.04 141.153 380.089 141.409 380.192 141.621C380.295 141.834 380.441 141.998 380.635 142.114C380.829 142.229 381.059 142.284 381.32 142.284C381.721 142.284 382.03 142.156 382.254 141.907C382.479 141.658 382.594 141.305 382.594 140.862V137.793H383.607V140.904C383.607 141.372 383.51 141.779 383.316 142.132C383.122 142.484 382.849 142.758 382.503 142.952C382.157 143.147 381.763 143.238 381.32 143.238Z" fill="#6D85F4"/>
<path d="M387.215 143.263C386.73 143.263 386.287 143.141 385.899 142.898C385.511 142.655 385.201 142.321 384.971 141.902C384.74 141.482 384.625 141.008 384.625 140.48C384.625 139.951 384.74 139.483 384.971 139.058C385.201 138.638 385.511 138.304 385.899 138.055C386.287 137.806 386.73 137.684 387.215 137.684C387.621 137.684 387.985 137.769 388.307 137.94C388.628 138.11 388.889 138.341 389.089 138.638C389.29 138.936 389.399 139.277 389.423 139.672V141.282C389.399 141.665 389.29 142.005 389.095 142.309C388.901 142.613 388.641 142.844 388.319 143.014C387.998 143.184 387.628 143.269 387.215 143.269V143.263ZM387.385 142.303C387.725 142.303 388.016 142.224 388.277 142.066C388.531 141.908 388.732 141.689 388.871 141.416C389.011 141.142 389.083 140.826 389.083 140.474C389.083 140.121 389.011 139.793 388.871 139.52C388.725 139.246 388.531 139.027 388.277 138.869C388.022 138.711 387.725 138.632 387.385 138.632C387.045 138.632 386.754 138.711 386.493 138.863C386.239 139.015 386.038 139.234 385.893 139.507C385.747 139.781 385.674 140.097 385.674 140.461C385.674 140.826 385.747 141.142 385.893 141.422C386.038 141.701 386.245 141.914 386.499 142.072C386.754 142.23 387.051 142.303 387.385 142.303ZM390.036 143.147H389.011V141.701L389.205 140.395L389.011 139.1V135.096H390.036V143.147Z" fill="#6D85F4"/>
<path d="M392.034 136.724C391.846 136.724 391.694 136.663 391.573 136.536C391.451 136.414 391.391 136.256 391.391 136.068C391.391 135.88 391.451 135.734 391.573 135.612C391.694 135.491 391.846 135.424 392.034 135.424C392.222 135.424 392.373 135.485 392.495 135.612C392.616 135.734 392.677 135.886 392.677 136.068C392.677 136.25 392.616 136.414 392.495 136.536C392.373 136.657 392.222 136.724 392.034 136.724ZM391.512 143.147V137.794H392.537V143.147H391.512Z" fill="#6D85F4"/>
<path d="M396.466 143.262C395.95 143.262 395.477 143.141 395.058 142.891C394.64 142.642 394.306 142.308 394.058 141.883C393.809 141.457 393.688 140.983 393.688 140.455C393.688 139.926 393.809 139.47 394.058 139.051C394.306 138.632 394.64 138.303 395.058 138.054C395.477 137.805 395.944 137.684 396.466 137.684C396.987 137.684 397.466 137.805 397.891 138.048C398.316 138.291 398.649 138.626 398.898 139.045C399.147 139.464 399.268 139.938 399.268 140.455C399.268 140.971 399.147 141.457 398.898 141.883C398.649 142.308 398.316 142.642 397.891 142.891C397.466 143.141 396.993 143.262 396.466 143.262ZM396.466 142.278C396.811 142.278 397.115 142.199 397.375 142.041C397.636 141.883 397.843 141.664 397.994 141.39C398.146 141.117 398.219 140.801 398.219 140.449C398.219 140.096 398.14 139.792 397.988 139.525C397.836 139.251 397.63 139.045 397.369 138.887C397.109 138.735 396.811 138.656 396.466 138.656C396.12 138.656 395.841 138.735 395.574 138.887C395.313 139.039 395.107 139.251 394.955 139.525C394.804 139.798 394.731 140.102 394.731 140.449C394.731 140.795 394.804 141.117 394.955 141.39C395.107 141.664 395.313 141.883 395.574 142.041C395.835 142.199 396.132 142.278 396.466 142.278Z" fill="#6D85F4"/>
</g>
<path d="M4.05875 251.24L24.1388 230.6C27.1788 227.453 29.4721 224.893 31.0188 222.92C32.5654 220.947 33.6054 219.187 34.1388 217.64C34.6721 216.093 34.9388 214.44 34.9388 212.68C34.9388 208.893 33.7654 205.933 31.4188 203.8C29.1254 201.613 25.9788 200.52 21.9788 200.52C18.6721 200.52 15.7921 201.267 13.3388 202.76C10.8854 204.2 8.69875 206.333 6.77875 209.16L4.93875 207.32C7.07208 204.333 9.52542 202.067 12.2988 200.52C15.0721 198.92 18.2988 198.12 21.9788 198.12C25.1254 198.12 27.8454 198.733 30.1388 199.96C32.4854 201.133 34.2988 202.813 35.5788 205C36.8588 207.187 37.4988 209.8 37.4988 212.84C37.4988 214.867 37.1788 216.76 36.5388 218.52C35.9521 220.28 34.8588 222.2 33.2588 224.28C31.6588 226.307 29.3654 228.84 26.3788 231.88L7.65875 251L4.05875 251.24ZM4.05875 253V251.24L5.73875 250.76H39.0988V253H4.05875ZM69.8238 253.8C65.9304 253.8 62.3571 252.653 59.1038 250.36C55.9038 248.067 53.3438 244.84 51.4238 240.68C49.5038 236.467 48.5438 231.533 48.5438 225.88C48.5438 220.173 49.4771 215.267 51.3438 211.16C53.2638 207 55.8238 203.8 59.0238 201.56C62.2238 199.267 65.7704 198.12 69.6638 198.12C73.6104 198.12 77.1838 199.267 80.3838 201.56C83.5838 203.8 86.1171 207 87.9838 211.16C89.9038 215.32 90.8638 220.253 90.8638 225.96C90.8638 231.613 89.9038 236.547 87.9838 240.76C86.1171 244.92 83.5838 248.147 80.3838 250.44C77.2371 252.68 73.7171 253.8 69.8238 253.8ZM69.6638 251.4C73.1838 251.4 76.3304 250.387 79.1038 248.36C81.9304 246.28 84.1704 243.347 85.8238 239.56C87.4771 235.72 88.3038 231.16 88.3038 225.88C88.3038 220.653 87.4771 216.147 85.8238 212.36C84.1704 208.573 81.9304 205.667 79.1038 203.64C76.3304 201.56 73.1838 200.52 69.6638 200.52C66.1971 200.52 63.0504 201.56 60.2238 203.64C57.4504 205.667 55.2371 208.573 53.5838 212.36C51.9304 216.147 51.1038 220.653 51.1038 225.88C51.1038 231.16 51.9304 235.72 53.5838 239.56C55.2371 243.347 57.4504 246.28 60.2238 248.36C63.0504 250.387 66.1971 251.4 69.6638 251.4ZM151.556 253H146.996V214.36H132.596C132.062 221.08 131.449 226.893 130.756 231.8C130.062 236.707 129.156 240.76 128.036 243.96C126.969 247.16 125.609 249.533 123.956 251.08C122.356 252.627 120.409 253.4 118.116 253.4C117.422 253.4 116.809 253.373 116.276 253.32C115.742 253.267 115.289 253.187 114.916 253.08V249.4C115.236 249.507 115.582 249.587 115.956 249.64C116.329 249.693 116.809 249.72 117.396 249.72C118.676 249.72 119.822 249.213 120.836 248.2C121.902 247.187 122.836 245.667 123.636 243.64C124.436 241.613 125.129 239.053 125.716 235.96C126.356 232.813 126.889 229.133 127.316 224.92C127.796 220.653 128.222 215.827 128.596 210.44H151.556V253ZM181.698 209.64C185.378 209.64 188.418 210.493 190.818 212.2C193.271 213.853 195.111 216.147 196.338 219.08C197.618 222.013 198.258 225.4 198.258 229.24V232.28H167.858C167.858 237.987 169.165 242.333 171.778 245.32C174.445 248.307 178.205 249.8 183.058 249.8C185.725 249.8 188.045 249.587 190.018 249.16C191.991 248.733 194.151 247.987 196.498 246.92V251.08C194.365 252.04 192.258 252.733 190.178 253.16C188.098 253.587 185.671 253.8 182.898 253.8C178.685 253.8 175.085 252.92 172.098 251.16C169.165 249.4 166.925 246.893 165.378 243.64C163.885 240.333 163.138 236.493 163.138 232.12C163.138 227.747 163.858 223.88 165.298 220.52C166.738 217.16 168.845 214.52 171.618 212.6C174.391 210.627 177.751 209.64 181.698 209.64ZM181.698 213.48C177.751 213.48 174.578 214.787 172.178 217.4C169.778 219.96 168.365 223.667 167.938 228.52H193.538C193.538 225.533 193.111 222.92 192.258 220.68C191.405 218.44 190.098 216.68 188.338 215.4C186.631 214.12 184.418 213.48 181.698 213.48ZM237.279 214.36H222.959V253H218.479V214.36H204.239V210.44H237.279V214.36ZM293.888 210.44V249.08H299.728V267.48H295.248V253H263.328V267.48H258.928V249.08H261.888C264.288 245.72 266.288 242.013 267.888 237.96C269.488 233.907 270.715 229.56 271.568 224.92C272.421 220.28 272.875 215.453 272.928 210.44H293.888ZM277.088 214.2C276.875 218.68 276.341 223.027 275.488 227.24C274.635 231.4 273.488 235.32 272.048 239C270.608 242.68 268.848 246.04 266.768 249.08H289.488V214.2H277.088ZM324.667 209.64C328.347 209.64 331.387 210.493 333.787 212.2C336.24 213.853 338.08 216.147 339.307 219.08C340.587 222.013 341.227 225.4 341.227 229.24V232.28H310.827C310.827 237.987 312.134 242.333 314.747 245.32C317.414 248.307 321.174 249.8 326.027 249.8C328.694 249.8 331.014 249.587 332.987 249.16C334.96 248.733 337.12 247.987 339.467 246.92V251.08C337.334 252.04 335.227 252.733 333.147 253.16C331.067 253.587 328.64 253.8 325.867 253.8C321.654 253.8 318.054 252.92 315.067 251.16C312.134 249.4 309.894 246.893 308.347 243.64C306.854 240.333 306.107 236.493 306.107 232.12C306.107 227.747 306.827 223.88 308.267 220.52C309.707 217.16 311.814 214.52 314.587 212.6C317.36 210.627 320.72 209.64 324.667 209.64ZM324.667 213.48C320.72 213.48 317.547 214.787 315.147 217.4C312.747 219.96 311.334 223.667 310.907 228.52H336.507C336.507 225.533 336.08 222.92 335.227 220.68C334.374 218.44 333.067 216.68 331.307 215.4C329.6 214.12 327.387 213.48 324.667 213.48ZM382.728 253H378.168V214.36H363.768C363.234 221.08 362.621 226.893 361.928 231.8C361.234 236.707 360.328 240.76 359.208 243.96C358.141 247.16 356.781 249.533 355.128 251.08C353.528 252.627 351.581 253.4 349.288 253.4C348.594 253.4 347.981 253.373 347.448 253.32C346.914 253.267 346.461 253.187 346.088 253.08V249.4C346.408 249.507 346.754 249.587 347.128 249.64C347.501 249.693 347.981 249.72 348.568 249.72C349.848 249.72 350.994 249.213 352.008 248.2C353.074 247.187 354.008 245.667 354.808 243.64C355.608 241.613 356.301 239.053 356.888 235.96C357.528 232.813 358.061 229.133 358.488 224.92C358.968 220.653 359.394 215.827 359.768 210.44H382.728V253ZM411.83 209.72C416.63 209.72 420.203 210.893 422.55 213.24C424.897 215.587 426.07 219.32 426.07 224.44V253H422.63L421.83 245.8H421.59C420.577 247.4 419.403 248.813 418.07 250.04C416.79 251.213 415.217 252.147 413.35 252.84C411.537 253.48 409.297 253.8 406.63 253.8C403.963 253.8 401.643 253.347 399.67 252.44C397.697 251.48 396.177 250.12 395.11 248.36C394.043 246.6 393.51 244.44 393.51 241.88C393.51 237.667 395.243 234.467 398.71 232.28C402.177 230.04 407.217 228.76 413.83 228.44L421.59 228.12V225.08C421.59 220.867 420.737 217.907 419.03 216.2C417.377 214.44 414.897 213.56 411.59 213.56C409.403 213.56 407.297 213.853 405.27 214.44C403.297 214.973 401.297 215.747 399.27 216.76L397.83 213.16C399.803 212.147 401.99 211.32 404.39 210.68C406.79 210.04 409.27 209.72 411.83 209.72ZM414.31 231.8C408.923 232.067 404.897 233.027 402.23 234.68C399.563 236.28 398.23 238.707 398.23 241.96C398.23 244.573 399.057 246.573 400.71 247.96C402.363 249.293 404.603 249.96 407.43 249.96C411.963 249.96 415.43 248.707 417.83 246.2C420.283 243.693 421.537 240.173 421.59 235.64V231.48L414.31 231.8ZM455.761 209.64C459.441 209.64 462.481 210.493 464.881 212.2C467.334 213.853 469.174 216.147 470.401 219.08C471.681 222.013 472.321 225.4 472.321 229.24V232.28H441.921C441.921 237.987 443.227 242.333 445.841 245.32C448.507 248.307 452.267 249.8 457.121 249.8C459.787 249.8 462.107 249.587 464.081 249.16C466.054 248.733 468.214 247.987 470.561 246.92V251.08C468.427 252.04 466.321 252.733 464.241 253.16C462.161 253.587 459.734 253.8 456.961 253.8C452.747 253.8 449.147 252.92 446.161 251.16C443.227 249.4 440.987 246.893 439.441 243.64C437.947 240.333 437.201 236.493 437.201 232.12C437.201 227.747 437.921 223.88 439.361 220.52C440.801 217.16 442.907 214.52 445.681 212.6C448.454 210.627 451.814 209.64 455.761 209.64ZM455.761 213.48C451.814 213.48 448.641 214.787 446.241 217.4C443.841 219.96 442.427 223.667 442.001 228.52H467.601C467.601 225.533 467.174 222.92 466.321 220.68C465.467 218.44 464.161 216.68 462.401 215.4C460.694 214.12 458.481 213.48 455.761 213.48ZM526.061 210.44V253H521.821V223.08C521.821 221.96 521.848 220.867 521.901 219.8C521.955 218.68 522.008 217.533 522.061 216.36H521.901L506.781 253H502.861L487.901 216.28H487.661C487.768 217.453 487.821 218.6 487.821 219.72C487.821 220.84 487.821 222.04 487.821 223.32V253H483.661V210.44H489.821L504.781 247.4L519.901 210.44H526.061ZM574.135 195.88C578.882 195.88 582.775 196.36 585.815 197.32C588.855 198.28 591.095 199.8 592.535 201.88C594.028 203.907 594.775 206.547 594.775 209.8C594.775 211.987 594.348 213.987 593.495 215.8C592.695 217.613 591.468 219.133 589.815 220.36C588.162 221.533 586.135 222.333 583.735 222.76V223C586.508 223.48 588.828 224.28 590.695 225.4C592.615 226.52 594.055 228.04 595.015 229.96C595.975 231.827 596.455 234.093 596.455 236.76C596.455 240.44 595.602 243.507 593.895 245.96C592.242 248.36 589.895 250.147 586.855 251.32C583.868 252.44 580.375 253 576.375 253H558.375V195.88H574.135ZM575.255 221.08C580.535 221.08 584.322 220.173 586.615 218.36C588.908 216.547 590.055 213.853 590.055 210.28C590.055 206.6 588.802 203.96 586.295 202.36C583.788 200.76 579.762 199.96 574.215 199.96H563.015V221.08H575.255ZM563.015 225.08V249H576.055C581.282 249 585.175 247.933 587.735 245.8C590.295 243.667 591.575 240.573 591.575 236.52C591.575 233.853 590.988 231.693 589.815 230.04C588.642 228.333 586.855 227.08 584.455 226.28C582.055 225.48 579.015 225.08 575.335 225.08H563.015ZM622.924 209.72C627.724 209.72 631.297 210.893 633.644 213.24C635.99 215.587 637.164 219.32 637.164 224.44V253H633.724L632.924 245.8H632.684C631.67 247.4 630.497 248.813 629.164 250.04C627.884 251.213 626.31 252.147 624.444 252.84C622.63 253.48 620.39 253.8 617.724 253.8C615.057 253.8 612.737 253.347 610.764 252.44C608.79 251.48 607.27 250.12 606.204 248.36C605.137 246.6 604.604 244.44 604.604 241.88C604.604 237.667 606.337 234.467 609.804 232.28C613.27 230.04 618.31 228.76 624.924 228.44L632.684 228.12V225.08C632.684 220.867 631.83 217.907 630.124 216.2C628.47 214.44 625.99 213.56 622.684 213.56C620.497 213.56 618.39 213.853 616.364 214.44C614.39 214.973 612.39 215.747 610.364 216.76L608.924 213.16C610.897 212.147 613.084 211.32 615.484 210.68C617.884 210.04 620.364 209.72 622.924 209.72ZM625.404 231.8C620.017 232.067 615.99 233.027 613.324 234.68C610.657 236.28 609.324 238.707 609.324 241.96C609.324 244.573 610.15 246.573 611.804 247.96C613.457 249.293 615.697 249.96 618.524 249.96C623.057 249.96 626.524 248.707 628.924 246.2C631.377 243.693 632.63 240.173 632.684 235.64V231.48L625.404 231.8ZM667.814 253.8C663.654 253.8 660.108 252.947 657.174 251.24C654.294 249.48 652.081 246.973 650.534 243.72C649.041 240.467 648.294 236.547 648.294 231.96C648.294 227.16 649.148 223.107 650.854 219.8C652.614 216.493 655.014 213.987 658.054 212.28C661.094 210.52 664.668 209.64 668.774 209.64C670.801 209.64 672.694 209.853 674.454 210.28C676.268 210.653 677.868 211.16 679.254 211.8L678.054 215.64C676.614 215.053 675.068 214.6 673.414 214.28C671.761 213.907 670.188 213.72 668.694 213.72C665.281 213.72 662.401 214.467 660.054 215.96C657.761 217.4 656.001 219.48 654.774 222.2C653.601 224.92 653.014 228.173 653.014 231.96C653.014 235.48 653.521 238.6 654.534 241.32C655.601 243.987 657.228 246.067 659.414 247.56C661.601 249.053 664.401 249.8 667.814 249.8C669.894 249.8 671.841 249.587 673.654 249.16C675.521 248.733 677.228 248.173 678.774 247.48V251.64C677.388 252.227 675.788 252.733 673.974 253.16C672.161 253.587 670.108 253.8 667.814 253.8ZM81.9766 306.44H86.8566L96.9366 332.92C97.5232 334.467 98.0566 335.907 98.5366 337.24C99.0166 338.573 99.4432 339.827 99.8166 341C100.19 342.12 100.51 343.16 100.777 344.12H101.017C101.39 342.893 101.897 341.32 102.537 339.4C103.177 337.427 103.923 335.293 104.777 333L114.697 306.44H119.577L100.377 356.6C99.4166 359.053 98.3499 361.16 97.1766 362.92C96.0032 364.68 94.6166 366.013 93.0166 366.92C91.4166 367.88 89.4966 368.36 87.2566 368.36C86.2432 368.36 85.3099 368.28 84.4566 368.12C83.6566 368.013 82.8832 367.853 82.1366 367.64V363.8C82.8299 363.96 83.5232 364.093 84.2166 364.2C84.9632 364.36 85.7899 364.44 86.6966 364.44C88.1899 364.44 89.4966 364.12 90.6166 363.48C91.7366 362.893 92.7232 361.96 93.5766 360.68C94.4299 359.453 95.2032 357.907 95.8966 356.04L98.6966 348.84L81.9766 306.44ZM131.077 306.44V324.92H157.157V306.44H161.717V349H157.157V328.84H131.077V349H126.517V306.44H131.077ZM180.133 336.12C180.133 336.653 180.133 337.267 180.133 337.96C180.133 338.653 180.107 339.373 180.053 340.12C180.053 340.813 180.027 341.507 179.973 342.2C179.92 342.84 179.893 343.453 179.893 344.04L204.773 306.44H210.373V349H206.053V319.32C206.053 318.52 206.053 317.64 206.053 316.68C206.053 315.72 206.08 314.76 206.133 313.8C206.187 312.84 206.213 312.013 206.213 311.32L181.333 349H175.813V306.44H180.133V336.12ZM248.005 306.44H253.205L234.165 327.08L254.405 349H248.885L229.045 327.48V349H224.485V306.44H229.045V327.16L248.005 306.44ZM277.338 305.72C282.138 305.72 285.711 306.893 288.058 309.24C290.404 311.587 291.578 315.32 291.578 320.44V349H288.138L287.338 341.8H287.098C286.084 343.4 284.911 344.813 283.578 346.04C282.298 347.213 280.724 348.147 278.858 348.84C277.044 349.48 274.804 349.8 272.138 349.8C269.471 349.8 267.151 349.347 265.178 348.44C263.204 347.48 261.684 346.12 260.618 344.36C259.551 342.6 259.018 340.44 259.018 337.88C259.018 333.667 260.751 330.467 264.218 328.28C267.684 326.04 272.724 324.76 279.338 324.44L287.098 324.12V321.08C287.098 316.867 286.244 313.907 284.538 312.2C282.884 310.44 280.404 309.56 277.098 309.56C274.911 309.56 272.804 309.853 270.778 310.44C268.804 310.973 266.804 311.747 264.778 312.76L263.338 309.16C265.311 308.147 267.498 307.32 269.898 306.68C272.298 306.04 274.778 305.72 277.338 305.72ZM279.818 327.8C274.431 328.067 270.404 329.027 267.738 330.68C265.071 332.28 263.738 334.707 263.738 337.96C263.738 340.573 264.564 342.573 266.218 343.96C267.871 345.293 270.111 345.96 272.938 345.96C277.471 345.96 280.938 344.707 283.338 342.2C285.791 339.693 287.044 336.173 287.098 331.64V327.48L279.818 327.8ZM335.188 349H330.628V310.36H316.228C315.695 317.08 315.082 322.893 314.388 327.8C313.695 332.707 312.788 336.76 311.668 339.96C310.602 343.16 309.242 345.533 307.588 347.08C305.988 348.627 304.042 349.4 301.748 349.4C301.055 349.4 300.442 349.373 299.908 349.32C299.375 349.267 298.922 349.187 298.548 349.08V345.4C298.868 345.507 299.215 345.587 299.588 345.64C299.962 345.693 300.442 345.72 301.028 345.72C302.308 345.72 303.455 345.213 304.468 344.2C305.535 343.187 306.468 341.667 307.268 339.64C308.068 337.613 308.762 335.053 309.348 331.96C309.988 328.813 310.522 325.133 310.948 320.92C311.428 316.653 311.855 311.827 312.228 306.44H335.188V349ZM368.451 324.28C371.864 324.28 374.664 324.76 376.851 325.72C379.091 326.627 380.744 327.987 381.811 329.8C382.931 331.56 383.491 333.693 383.491 336.2C383.491 338.867 382.904 341.16 381.731 343.08C380.611 345 378.878 346.467 376.531 347.48C374.238 348.493 371.304 349 367.731 349H349.251V306.44H353.811V324.28H368.451ZM378.931 336.36C378.931 333.533 377.998 331.48 376.131 330.2C374.264 328.867 371.518 328.2 367.891 328.2H353.811V345.16H367.411C371.251 345.16 374.131 344.44 376.051 343C377.971 341.56 378.931 339.347 378.931 336.36ZM399.748 306.44V324.92H425.828V306.44H430.388V349H425.828V328.84H399.748V349H395.188V306.44H399.748ZM444.485 349V306.44H449.045V324.28H462.885C466.299 324.28 469.099 324.76 471.285 325.72C473.472 326.627 475.072 327.987 476.085 329.8C477.152 331.56 477.685 333.693 477.685 336.2C477.685 338.867 477.125 341.16 476.005 343.08C474.939 345 473.259 346.467 470.965 347.48C468.672 348.493 465.739 349 462.165 349H444.485ZM461.685 345.16C465.525 345.16 468.405 344.467 470.325 343.08C472.245 341.64 473.205 339.4 473.205 336.36C473.205 333.533 472.299 331.48 470.485 330.2C468.672 328.867 465.952 328.2 462.325 328.2H449.045V345.16H461.685ZM484.565 349V306.44H489.125V349H484.565ZM545.475 306.44V349H541.235V319.08C541.235 317.96 541.262 316.867 541.315 315.8C541.369 314.68 541.422 313.533 541.475 312.36H541.315L526.195 349H522.275L507.315 312.28H507.075C507.182 313.453 507.235 314.6 507.235 315.72C507.235 316.84 507.235 318.04 507.235 319.32V349H503.075V306.44H509.235L524.195 343.4L539.315 306.44H545.475ZM562.712 336.12C562.712 336.653 562.712 337.267 562.712 337.96C562.712 338.653 562.685 339.373 562.632 340.12C562.632 340.813 562.605 341.507 562.552 342.2C562.498 342.84 562.472 343.453 562.472 344.04L587.352 306.44H592.952V349H588.632V319.32C588.632 318.52 588.632 317.64 588.632 316.68C588.632 315.72 588.658 314.76 588.712 313.8C588.765 312.84 588.792 312.013 588.792 311.32L563.912 349H558.392V306.44H562.712V336.12Z" fill="#6D85F4"/>
<defs>
<clipPath id="clip0_2172_4662">
<rect width="243" height="145" fill="white" transform="translate(219)"/>
</clipPath>
</defs>
</svg>
