<svg width="120" height="120" viewBox="0 0 120 120" fill="none" xmlns="http://www.w3.org/2000/svg">
<path d="M59.9359 11.9453C58.8764 11.9619 57.8667 12.3981 57.1285 13.1583C56.3903 13.9185 55.9839 14.9405 55.9984 16V28C55.9909 28.53 56.0888 29.0563 56.2865 29.5482C56.4841 30.04 56.7776 30.4877 57.1497 30.8652C57.5219 31.2427 57.9654 31.5424 58.4544 31.747C58.9435 31.9516 59.4683 32.057 59.9984 32.057C60.5285 32.057 61.0533 31.9516 61.5423 31.747C62.0313 31.5424 62.4748 31.2427 62.847 30.8652C63.2192 30.4877 63.5126 30.04 63.7103 29.5482C63.9079 29.0563 64.0059 28.53 63.9984 28V16C64.0057 15.4648 63.9056 14.9337 63.7039 14.4379C63.5022 13.9421 63.2032 13.4919 62.8243 13.1138C62.4455 12.7357 61.9947 12.4375 61.4985 12.2368C61.0024 12.0361 60.471 11.937 59.9359 11.9453ZM43.1546 15.3516C42.0938 15.3516 41.0763 15.773 40.3262 16.5231C39.576 17.2733 39.1546 18.2907 39.1546 19.3516C39.1546 20.4124 39.576 21.4298 40.3262 22.18C41.0763 22.9301 42.0938 23.3516 43.1546 23.3516C44.2155 23.3516 45.2329 22.9301 45.9831 22.18C46.7332 21.4298 47.1546 20.4124 47.1546 19.3516C47.1546 18.2907 46.7332 17.2733 45.9831 16.5231C45.2329 15.773 44.2155 15.3516 43.1546 15.3516ZM76.8421 15.3516C75.7813 15.3516 74.7638 15.773 74.0137 16.5231C73.2636 17.2733 72.8421 18.2907 72.8421 19.3516C72.8421 20.4124 73.2636 21.4298 74.0137 22.18C74.7638 22.9301 75.7813 23.3516 76.8421 23.3516C77.903 23.3516 78.9204 22.9301 79.6706 22.18C80.4207 21.4298 80.8421 20.4124 80.8421 19.3516C80.8421 18.2907 80.4207 17.2733 79.6706 16.5231C78.9204 15.773 77.903 15.3516 76.8421 15.3516ZM28.8421 24.8438C28.0454 24.8439 27.2669 25.082 26.6063 25.5274C25.9458 25.9728 25.4333 26.6054 25.1345 27.3439C24.8357 28.0825 24.7643 28.8934 24.9293 29.6729C25.0944 30.4523 25.4884 31.1647 26.0609 31.7188L34.5452 40.2031C34.9138 40.587 35.3553 40.8935 35.8438 41.1046C36.3323 41.3158 36.8581 41.4273 37.3902 41.4327C37.9224 41.4382 38.4503 41.3373 38.943 41.1362C39.4357 40.935 39.8833 40.6376 40.2596 40.2613C40.636 39.8849 40.9334 39.4373 41.1346 38.9446C41.3357 38.4519 41.4365 37.924 41.4311 37.3919C41.4257 36.8597 41.3142 36.334 41.103 35.8454C40.8919 35.3569 40.5854 34.9155 40.2015 34.5469L31.7171 26.0625C31.3441 25.677 30.8974 25.3704 30.4035 25.161C29.9095 24.9516 29.3786 24.8438 28.8421 24.8438ZM91.0296 24.8516C89.9904 24.8825 89.0041 25.3168 88.2796 26.0625L79.7952 34.5469C79.4114 34.9155 79.1049 35.3569 78.8937 35.8454C78.6826 36.334 78.571 36.8597 78.5656 37.3919C78.5602 37.924 78.661 38.4519 78.8622 38.9446C79.0633 39.4373 79.3608 39.885 79.7371 40.2613C80.1134 40.6376 80.561 40.935 81.0537 41.1362C81.5465 41.3373 82.0743 41.4382 82.6065 41.4328C83.1387 41.4273 83.6644 41.3158 84.1529 41.1047C84.6414 40.8935 85.0829 40.587 85.4515 40.2031L93.9359 31.7188C94.5139 31.1569 94.9087 30.4335 95.0685 29.6435C95.2284 28.8534 95.1458 28.0334 94.8316 27.2911C94.5174 26.5488 93.9864 25.9186 93.3079 25.4833C92.6295 25.048 91.8354 24.8278 91.0296 24.8516ZM19.3499 39.1562C18.2896 39.157 17.2729 39.5788 16.5233 40.3288C15.7738 41.0789 15.3528 42.0959 15.3528 43.1562C15.3528 44.2166 15.7738 45.2336 16.5233 45.9837C17.2729 46.7337 18.2896 47.1555 19.3499 47.1562C20.4103 47.1555 21.427 46.7337 22.1765 45.9837C22.9261 45.2336 23.3471 44.2166 23.3471 43.1562C23.3471 42.0959 22.9261 41.0789 22.1765 40.3288C21.427 39.5788 20.4103 39.157 19.3499 39.1562ZM100.647 39.1562C99.5864 39.157 98.5697 39.5788 97.8202 40.3288C97.0707 41.0789 96.6496 42.0959 96.6496 43.1562C96.6496 44.2166 97.0707 45.2336 97.8202 45.9837C98.5697 46.7337 99.5864 47.1555 100.647 47.1562C101.707 47.1555 102.724 46.7337 103.473 45.9837C104.223 45.2336 104.644 44.2166 104.644 43.1562C104.644 42.0959 104.223 41.0789 103.473 40.3288C102.724 39.5788 101.707 39.157 100.647 39.1562ZM15.9984 56C15.4683 55.9925 14.9421 56.0904 14.4502 56.2881C13.9583 56.4857 13.5106 56.7792 13.1332 57.1514C12.7557 57.5235 12.4559 57.967 12.2514 58.4561C12.0468 58.9451 11.9414 59.4699 11.9414 60C11.9414 60.5301 12.0468 61.0549 12.2514 61.5439C12.4559 62.033 12.7557 62.4765 13.1332 62.8486C13.5106 63.2208 13.9583 63.5143 14.4502 63.7119C14.9421 63.9096 15.4683 64.0075 15.9984 64H27.9984C28.5284 64.0075 29.0547 63.9096 29.5465 63.7119C30.0384 63.5143 30.4861 63.2208 30.8636 62.8486C31.2411 62.4765 31.5408 62.033 31.7454 61.5439C31.95 61.0549 32.0553 60.5301 32.0553 60C32.0553 59.4699 31.95 58.9451 31.7454 58.4561C31.5408 57.967 31.2411 57.5235 30.8636 57.1514C30.4861 56.7792 30.0384 56.4857 29.5465 56.2881C29.0547 56.0904 28.5284 55.9925 27.9984 56H15.9984ZM91.9984 56C91.4683 55.9925 90.9421 56.0904 90.4502 56.2881C89.9583 56.4857 89.5106 56.7792 89.1332 57.1514C88.7557 57.5235 88.4559 57.967 88.2514 58.4561C88.0468 58.9451 87.9414 59.4699 87.9414 60C87.9414 60.5301 88.0468 61.0549 88.2514 61.5439C88.4559 62.033 88.7557 62.4765 89.1332 62.8486C89.5106 63.2208 89.9583 63.5143 90.4502 63.7119C90.9421 63.9096 91.4683 64.0075 91.9984 64H103.998C104.528 64.0075 105.055 63.9096 105.547 63.7119C106.038 63.5143 106.486 63.2208 106.864 62.8486C107.241 62.4765 107.541 62.033 107.745 61.5439C107.95 61.0549 108.055 60.5301 108.055 60C108.055 59.4699 107.95 58.9451 107.745 58.4561C107.541 57.967 107.241 57.5235 106.864 57.1514C106.486 56.7792 106.038 56.4857 105.547 56.2881C105.055 56.0904 104.528 55.9925 103.998 56H91.9984ZM19.3499 72.8438C18.2891 72.8438 17.2717 73.2652 16.5215 74.0153C15.7714 74.7655 15.3499 75.7829 15.3499 76.8438C15.3499 77.9046 15.7714 78.922 16.5215 79.6722C17.2717 80.4223 18.2891 80.8438 19.3499 80.8438C20.4108 80.8438 21.4282 80.4223 22.1784 79.6722C22.9285 78.922 23.3499 77.9046 23.3499 76.8438C23.3499 75.7829 22.9285 74.7655 22.1784 74.0153C21.4282 73.2652 20.4108 72.8438 19.3499 72.8438ZM100.647 72.8438C99.5859 72.8438 98.5685 73.2652 97.8184 74.0153C97.0682 74.7655 96.6468 75.7829 96.6468 76.8438C96.6468 77.9046 97.0682 78.922 97.8184 79.6722C98.5685 80.4223 99.5859 80.8438 100.647 80.8438C101.708 80.8438 102.725 80.4223 103.475 79.6722C104.225 78.922 104.647 77.9046 104.647 76.8438C104.647 75.7829 104.225 74.7655 103.475 74.0153C102.725 73.2652 101.708 72.8438 100.647 72.8438ZM37.2952 78.5859C36.2561 78.6169 35.2697 79.0512 34.5452 79.7969L26.0609 88.2812C25.677 88.6498 25.3705 89.0913 25.1594 89.5798C24.9483 90.0683 24.8367 90.5941 24.8313 91.1262C24.8259 91.6584 24.9267 92.1863 25.1279 92.679C25.329 93.1717 25.6265 93.6193 26.0028 93.9956C26.3791 94.3719 26.8267 94.6693 27.3194 94.8705C27.8121 95.0716 28.34 95.1725 28.8722 95.1671C29.4043 95.1617 29.93 95.0501 30.4186 94.839C30.9071 94.6279 31.3485 94.3214 31.7171 93.9375L40.2015 85.4531C40.7795 84.8913 41.1743 84.1679 41.3341 83.3778C41.494 82.5878 41.4114 81.7678 41.0972 81.0255C40.7831 80.2831 40.252 79.653 39.5735 79.2177C38.8951 78.7824 38.101 78.5622 37.2952 78.5859ZM82.5843 78.5859C81.7886 78.5861 81.011 78.8237 80.3509 79.2681C79.6909 79.7126 79.1784 80.3438 78.879 81.081C78.5796 81.8183 78.5068 82.6281 78.67 83.4069C78.8332 84.1857 79.225 84.8981 79.7952 85.4531L88.2796 93.9375C88.6482 94.3214 89.0897 94.6279 89.5782 94.839C90.0667 95.0501 90.5924 95.1616 91.1246 95.167C91.6567 95.1725 92.1846 95.0716 92.6773 94.8705C93.17 94.6693 93.6176 94.3719 93.9939 93.9956C94.3702 93.6192 94.6677 93.1716 94.8688 92.6789C95.07 92.1862 95.1708 91.6584 95.1654 91.1262C95.16 90.5941 95.0485 90.0683 94.8374 89.5798C94.6262 89.0913 94.3198 88.6498 93.9359 88.2812L85.4515 79.7969C85.0787 79.4137 84.633 79.1091 84.1405 78.9011C83.648 78.6931 83.1189 78.586 82.5843 78.5859ZM59.9359 87.9453C58.8764 87.9619 57.8667 88.3981 57.1285 89.1583C56.3903 89.9185 55.9839 90.9405 55.9984 92V104C55.9909 104.53 56.0888 105.056 56.2865 105.548C56.4841 106.04 56.7776 106.488 57.1497 106.865C57.5219 107.243 57.9654 107.542 58.4544 107.747C58.9435 107.952 59.4683 108.057 59.9984 108.057C60.5285 108.057 61.0533 107.952 61.5423 107.747C62.0313 107.542 62.4748 107.243 62.847 106.865C63.2192 106.488 63.5126 106.04 63.7103 105.548C63.9079 105.056 64.0059 104.53 63.9984 104V92C64.0057 91.4648 63.9056 90.9337 63.7039 90.4379C63.5022 89.9421 63.2032 89.4919 62.8243 89.1138C62.4455 88.7357 61.9947 88.4375 61.4985 88.2368C61.0024 88.0361 60.471 87.937 59.9359 87.9453ZM43.1546 96.6484C42.0938 96.6484 41.0763 97.0699 40.3262 97.82C39.576 98.5702 39.1546 99.5876 39.1546 100.648C39.1546 101.709 39.576 102.727 40.3262 103.477C41.0763 104.227 42.0938 104.648 43.1546 104.648C44.2155 104.648 45.2329 104.227 45.9831 103.477C46.7332 102.727 47.1546 101.709 47.1546 100.648C47.1546 99.5876 46.7332 98.5702 45.9831 97.82C45.2329 97.0699 44.2155 96.6484 43.1546 96.6484ZM76.8421 96.6484C75.7813 96.6484 74.7638 97.0699 74.0137 97.82C73.2636 98.5702 72.8421 99.5876 72.8421 100.648C72.8421 101.709 73.2636 102.727 74.0137 103.477C74.7638 104.227 75.7813 104.648 76.8421 104.648C77.903 104.648 78.9204 104.227 79.6706 103.477C80.4207 102.727 80.8421 101.709 80.8421 100.648C80.8421 99.5876 80.4207 98.5702 79.6706 97.82C78.9204 97.0699 77.903 96.6484 76.8421 96.6484Z" fill="url(#paint0_radial_812_1219)"/>
<defs>
<radialGradient id="paint0_radial_812_1219" cx="0" cy="0" r="1" gradientTransform="matrix(40.424 34.2762 -34.2768 462.668 26.6255 39.9679)" gradientUnits="userSpaceOnUse">
<stop stop-color="#AD32AE"/>
<stop offset="1" stop-color="#3C49C2"/>
</radialGradient>
</defs>
</svg>
