<svg width="116" height="70" viewBox="0 0 116 70" fill="none" xmlns="http://www.w3.org/2000/svg">
<g clip-path="url(#clip0_298_3015)">
<path d="M115.998 36.9275V41.5832C115.998 43.6132 114.374 45.2619 112.367 45.2619H112.055V45.4555H112.031C114.22 45.4555 115.998 47.2538 115.998 49.4746V55.2039C115.998 57.6271 114.061 59.5955 111.669 59.5985L100.354 59.6219V32.3423C100.354 32.3423 106.831 32.3218 111.452 32.3218C113.966 32.3218 116.001 34.3841 116.001 36.9305L115.998 36.9275ZM103.374 35.1234L103.397 43.7482H110.355C111.693 43.7482 112.778 42.6481 112.778 41.2927V37.5788C112.778 36.2235 111.693 35.1234 110.355 35.1234H103.374ZM103.374 56.5563H110.355C111.693 56.5563 112.778 55.4562 112.778 54.1009V49.6037C112.778 48.2513 111.698 47.1541 110.364 47.1482L103.374 47.1248V56.5534V56.5563Z" fill="url(#paint0_radial_298_3015)"/>
<path d="M65.3932 36.8187V45.6606C65.3932 48.1425 63.4098 50.152 60.9601 50.152L65.0805 59.6158C65.1529 59.5865 61.5421 59.6158 61.5421 59.6158L57.2508 50.152H52.7164V59.6158H49.6934V32.3362C49.6934 32.3362 56.3387 32.3157 60.9659 32.3245C63.4097 32.3303 65.3874 34.3398 65.3874 36.8158L65.3932 36.8187ZM52.7193 47.0922H59.8163C61.1715 47.0922 62.2718 45.9833 62.2805 44.6075C62.2892 42.5598 62.3007 39.6643 62.2978 37.6138C62.2978 36.2379 61.1946 35.1202 59.8366 35.1202H52.7221V47.0893L52.7193 47.0922Z" fill="url(#paint1_radial_298_3015)"/>
<path d="M86.2377 40.6914H83.2147V37.3236C83.2147 36.1472 82.2736 35.1909 81.1096 35.1909H76.0105C74.6814 35.1909 73.5984 36.2675 73.5695 37.614L73.4565 43.0588C73.4565 43.0588 86.0755 47.16 86.1103 47.0778C86.116 48.4449 86.116 51.3785 86.116 54.0598C86.116 57.1166 83.6693 59.5926 80.6521 59.5926H76.0597C73.0425 59.5926 70.5957 57.1137 70.5957 54.0569V51.267H73.5955L73.5811 54.0334C73.5724 55.4826 74.7306 56.6649 76.1639 56.6649H80.5739C82.013 56.6649 83.1741 55.4738 83.1568 54.0158L83.0902 48.7852L70.5957 44.8454V36.9217C70.5957 34.3782 72.6313 32.3159 75.1418 32.3159H81.8508C84.2716 32.3159 86.2348 34.3049 86.2348 36.7574V40.6914H86.2377Z" fill="url(#paint2_radial_298_3015)"/>
<path d="M2.98979 50.1552V59.619H-0.0332031V32.3394H10.3851C13.133 32.3394 15.3597 34.5953 15.3597 37.3793V44.4434C15.3597 47.999 13.3039 50.0936 10.7586 50.1082L2.98979 50.1522V50.1552ZM2.98979 47.0925H10.1766C11.4507 47.0925 12.4873 46.054 12.4989 44.7632C12.5221 42.5366 12.5481 39.2157 12.5365 37.1123C12.5307 36.0122 11.6476 35.1234 10.5617 35.1234H2.98979V47.0925Z" fill="url(#paint3_radial_298_3015)"/>
<path d="M44.1999 32.3394V35.1234H33.2112V44.3437H43.754V47.1277H33.2112V56.5563H44.1999V59.619H29.916V32.3394H44.1999Z" fill="url(#paint4_radial_298_3015)"/>
<path d="M24.147 29.9307V69.0914H21.127V23.3213L24.147 29.9307Z" fill="url(#paint5_radial_298_3015)"/>
<path d="M91.7832 29.9307V69.0914H94.8062V23.3213L91.7832 29.9307Z" fill="url(#paint6_radial_298_3015)"/>
<path d="M51.8735 8.21039C53.5993 7.89356 55.4003 8.20159 56.9553 9.00833C57.0769 9.07287 57.5286 9.3809 57.6126 9.3809C58.2641 8.97313 58.9474 8.61523 59.6858 8.38934C60.9541 8.00504 62.3469 7.94636 63.6412 8.24266C63.5862 6.6057 62.8362 5.02743 61.6287 3.95079C59.9001 4.68126 58.183 2.96803 59.0401 1.2196C60.0536 -0.848591 63.1576 0.198707 62.758 2.47812C64.4433 4.14148 65.4307 6.45316 65.3293 8.86459C67.4257 9.89721 68.9893 11.9537 69.3715 14.2976C70.5732 14.5616 71.2653 15.7556 70.8686 16.9525C70.5037 18.0438 69.2441 18.6188 68.2017 18.1407C66.8176 17.507 66.67 15.6354 67.8108 14.6819C67.6284 13.8576 67.2983 13.0655 66.8205 12.3732C66.3428 11.6808 65.6884 11.0296 64.9616 10.657C64.4172 12.7105 62.8796 14.4238 60.9888 15.3127C60.9946 17.0758 60.5255 18.9151 59.4889 20.3409C59.3615 20.5169 59.153 20.7076 59.043 20.866C59.0256 20.8924 58.9996 20.8982 59.0111 20.9481C59.5555 21.2385 60.0709 21.4938 60.6761 21.6228C61.7822 21.8575 62.9144 21.9015 63.9539 21.397C64.1305 19.1645 67.2665 18.8125 67.8369 21.0127C68.3436 22.9694 66.0271 24.3452 64.5533 23.0075C62.2716 23.9081 59.6627 23.5708 57.6792 22.1304C55.7333 23.5766 53.0868 23.9433 50.8311 23.031C50.2143 23.5708 49.5542 23.8377 48.7434 23.5825C47.4027 23.1659 46.9308 21.438 47.84 20.3585C48.9606 19.0295 51.0251 19.6749 51.3031 21.3618C52.1776 21.793 53.1505 21.8458 54.1031 21.7226C54.9023 21.6199 55.7073 21.3882 56.3733 20.9246C56.2111 20.6489 55.9853 20.4054 55.8086 20.1355C54.882 18.7186 54.4419 17.0171 54.5056 15.3156C52.5685 14.4384 51.1351 12.6137 50.4923 10.5866C49.615 11.1411 48.8679 11.983 48.3264 12.869C47.9703 13.4527 47.6633 14.1011 47.6373 14.7993C48.8418 15.7234 48.5986 17.6918 47.1914 18.2668C45.8189 18.8271 44.3855 17.7563 44.4811 16.269C44.5332 15.4505 45.1152 14.7171 45.8884 14.4883C46.2213 12.6988 47.1392 11.0707 48.5175 9.90308C49.0069 9.48944 49.5831 9.10514 50.168 8.85579C50.0175 6.72892 50.8282 4.7282 52.1341 3.11178C52.2528 2.9651 52.6785 2.56319 52.7277 2.44292C52.7856 2.29917 52.7277 1.91193 52.7654 1.70071C53.0984 -0.247202 55.991 -0.473088 56.5788 1.47483C57.1001 3.20272 55.4438 4.62259 53.828 3.94786C52.6582 5.02742 51.9025 6.59104 51.8764 8.21039H51.8735ZM63.3835 10.0028C62.6422 9.81214 61.8141 9.86788 61.0641 10.0116C60.401 10.1378 59.7872 10.4223 59.2196 10.7832C59.1907 10.8242 59.2225 10.8594 59.2428 10.8917C59.321 11.0237 59.4889 11.1851 59.5845 11.3259C60.0333 11.9742 60.401 12.69 60.6211 13.4527C60.6732 13.4909 61.3392 12.957 61.4261 12.8836C62.3092 12.1268 63.0302 11.1205 63.3864 10.0028H63.3835ZM56.3414 10.7186C55.2758 10.1202 53.9786 9.81507 52.7567 9.90308C52.6611 9.90895 52.1139 9.99109 52.1023 10.0527C52.5685 11.4667 53.5298 12.7105 54.7836 13.485C54.966 13.0626 55.1253 12.6313 55.3395 12.2265C55.6233 11.6896 55.991 11.2085 56.3414 10.7186ZM58.9127 14.1685C58.9793 14.0923 58.6029 13.2445 58.5363 13.1066C58.3104 12.6548 58.0122 12.2353 57.6792 11.8598C57.1551 12.5375 56.7613 13.3178 56.5065 14.1392C57.2796 14.4208 58.1309 14.3944 58.9156 14.1685H58.9127ZM59.1704 15.8994C58.2062 16.0871 57.2101 16.0695 56.2459 15.8994C56.2198 17.2723 56.8105 18.6452 57.6763 19.6779C58.6202 18.6716 59.1559 17.2928 59.1704 15.8994Z" fill="url(#paint7_radial_298_3015)"/>
<path d="M30.0742 65.797V65.3276H33.1088V65.797H30.0742ZM31.3367 69.1061V65.4391H31.8463V69.1061H31.3367Z" fill="url(#paint8_radial_298_3015)"/>
<path d="M34.0058 69.1618C33.7684 69.1618 33.557 69.1031 33.3688 68.9858C33.1806 68.8684 33.0329 68.7071 32.9229 68.5047C32.8128 68.3023 32.7578 68.0734 32.7578 67.8182C32.7578 67.563 32.8128 67.3371 32.9229 67.1317C33.0329 66.9293 33.1806 66.768 33.3688 66.6477C33.557 66.5274 33.7684 66.4688 34.0058 66.4688C34.1998 66.4688 34.3707 66.5098 34.5241 66.592C34.6776 66.6741 34.7992 66.7856 34.8919 66.9293C34.9845 67.0731 35.0366 67.2374 35.0482 67.428V68.2054C35.0366 68.3903 34.9874 68.5545 34.8948 68.7012C34.8021 68.8479 34.6805 68.9594 34.527 69.0415C34.3735 69.1237 34.1998 69.1647 34.0058 69.1647V69.1618ZM34.0869 68.6983C34.3272 68.6983 34.5212 68.6162 34.666 68.4519C34.8137 68.2876 34.8861 68.0764 34.8861 67.8182C34.8861 67.6451 34.8513 67.4897 34.7847 67.3547C34.7181 67.2198 34.6226 67.1171 34.5039 67.0408C34.3822 66.9675 34.2433 66.9293 34.0811 66.9293C33.9189 66.9293 33.7771 66.9675 33.6554 67.0437C33.5309 67.12 33.4354 67.2256 33.3659 67.3576C33.2964 67.4896 33.2616 67.6422 33.2616 67.8123C33.2616 67.9825 33.2964 68.1409 33.3659 68.2729C33.4354 68.4049 33.5338 68.5105 33.6583 68.5868C33.7829 68.6631 33.9276 68.7012 34.0869 68.7012V68.6983ZM34.8542 69.1061V68.4079L34.9469 67.7771L34.8542 67.1523V66.5216H35.3436V69.1061H34.8542Z" fill="url(#paint9_radial_298_3015)"/>
<path d="M35.8105 66.9679V66.522H39.071V66.9679H35.8105ZM36.4418 69.1065V65.4395H36.9253V69.1065H36.4418ZM37.962 69.1065V65.4395H38.4455V69.1065H37.962Z" fill="url(#paint10_radial_298_3015)"/>
<path d="M40.625 69.1618C40.3789 69.1618 40.153 69.1031 39.9532 68.9829C39.7534 68.8626 39.5942 68.7012 39.4755 68.4959C39.3567 68.2905 39.2988 68.0617 39.2988 67.8065C39.2988 67.5513 39.3567 67.3312 39.4755 67.1288C39.5942 66.9264 39.7534 66.768 39.9532 66.6477C40.153 66.5274 40.3789 66.4688 40.625 66.4688C40.8711 66.4688 41.1028 66.5274 41.3055 66.6448C41.5082 66.7621 41.6674 66.9235 41.7861 67.1259C41.9049 67.3283 41.9628 67.5571 41.9628 67.8065C41.9628 68.0558 41.902 68.2905 41.7861 68.4959C41.6674 68.7012 41.5082 68.8626 41.3055 68.9829C41.1028 69.1031 40.8769 69.1618 40.625 69.1618ZM40.625 68.6866C40.7901 68.6866 40.9348 68.6484 41.0593 68.5722C41.1839 68.4959 41.2823 68.3903 41.3547 68.2583C41.4271 68.1262 41.4618 67.9737 41.4618 67.8035C41.4618 67.6334 41.4242 67.4867 41.3518 67.3576C41.2794 67.2286 41.181 67.1259 41.0565 67.0496C40.9319 66.9763 40.7901 66.9381 40.625 66.9381C40.46 66.9381 40.3268 66.9763 40.1994 67.0496C40.0748 67.1229 39.9764 67.2256 39.904 67.3576C39.8316 67.4896 39.7969 67.6363 39.7969 67.8035C39.7969 67.9708 39.8316 68.1262 39.904 68.2583C39.9764 68.3903 40.0748 68.4959 40.1994 68.5722C40.3239 68.6484 40.4657 68.6866 40.625 68.6866Z" fill="url(#paint11_radial_298_3015)"/>
<path d="M43.6602 69.1618C43.414 69.1618 43.1882 69.1031 42.9884 68.9829C42.7886 68.8626 42.6293 68.7012 42.5106 68.4959C42.3919 68.2905 42.334 68.0617 42.334 67.8065C42.334 67.5513 42.3919 67.3312 42.5106 67.1288C42.6293 66.9264 42.7886 66.768 42.9884 66.6477C43.1882 66.5274 43.4111 66.4688 43.6602 66.4688C43.9092 66.4688 44.1379 66.5274 44.3406 66.6448C44.5433 66.7621 44.7026 66.9235 44.8213 67.1259C44.94 67.3283 44.9979 67.5571 44.9979 67.8065C44.9979 68.0558 44.94 68.2905 44.8213 68.4959C44.7026 68.7012 44.5433 68.8626 44.3406 68.9829C44.1379 69.1031 43.9121 69.1618 43.6602 69.1618ZM43.6602 68.6866C43.8252 68.6866 43.97 68.6484 44.0945 68.5722C44.219 68.4959 44.3175 68.3903 44.3898 68.2583C44.4622 68.1262 44.497 67.9737 44.497 67.8035C44.497 67.6334 44.4593 67.4867 44.3869 67.3576C44.3146 67.2286 44.2161 67.1259 44.0916 67.0496C43.9671 66.9763 43.8223 66.9381 43.6602 66.9381C43.498 66.9381 43.3619 66.9763 43.2374 67.0496C43.1129 67.1229 43.0144 67.2256 42.9421 67.3576C42.8697 67.4896 42.8349 67.6363 42.8349 67.8035C42.8349 67.9708 42.8697 68.1262 42.9421 68.2583C43.0144 68.3903 43.1129 68.4959 43.2374 68.5722C43.3619 68.6484 43.5038 68.6866 43.6602 68.6866Z" fill="url(#paint12_radial_298_3015)"/>
<path d="M47.8379 69.1619C47.5918 69.1619 47.3746 69.1121 47.1864 69.0153C46.9982 68.9184 46.8563 68.7835 46.7521 68.6104C46.6478 68.4373 46.5957 68.2408 46.5957 68.0208C46.5957 67.8007 46.6565 67.5866 46.781 67.3988C46.9055 67.214 47.0822 67.0673 47.3109 66.9588L47.5484 67.2639C47.4036 67.3372 47.2935 67.434 47.2096 67.5602C47.1256 67.6863 47.0851 67.8359 47.0851 68.009C47.0851 68.1498 47.1169 68.2731 47.1806 68.3728C47.2443 68.4755 47.337 68.5547 47.4528 68.6104C47.5686 68.6662 47.7018 68.6955 47.8524 68.6955C48.0377 68.6955 48.1999 68.6544 48.3331 68.5752C48.4663 68.496 48.5676 68.3933 48.6371 68.2701L48.9527 68.6456C48.8803 68.7483 48.7877 68.8363 48.6718 68.9155C48.556 68.9947 48.4257 69.0534 48.2838 69.0974C48.142 69.1414 47.9943 69.1619 47.835 69.1619H47.8379ZM49.1699 69.1062L47.3862 67.17C47.2501 67.0175 47.1488 66.8737 47.0793 66.7358C47.0098 66.598 46.9779 66.4454 46.9779 66.2782C46.9779 66.0846 47.0214 65.9144 47.1111 65.7648C47.2009 65.6152 47.3254 65.4949 47.4818 65.4069C47.6381 65.3189 47.8205 65.272 48.0232 65.272C48.1738 65.272 48.3099 65.2954 48.4344 65.3453C48.5589 65.3952 48.6661 65.4597 48.7616 65.5389C48.8572 65.6181 48.9353 65.7091 49.0019 65.8118L48.6516 66.1315C48.5705 66.0142 48.4778 65.9232 48.3765 65.8528C48.2751 65.7824 48.1593 65.7502 48.0232 65.7502C47.8611 65.7502 47.7279 65.8 47.6207 65.8968C47.5136 65.9936 47.4586 66.1198 47.4586 66.2723C47.4586 66.4014 47.4847 66.5129 47.5397 66.6038C47.5947 66.6948 47.6729 66.8004 47.78 66.9207L49.7635 69.1091H49.167L49.1699 69.1062Z" fill="url(#paint13_radial_298_3015)"/>
<path d="M51.1797 69.1061V65.3276H51.6835V69.1061H51.1797ZM51.5185 67.6364V67.1905H52.5348C52.6738 67.1905 52.7983 67.1611 52.9084 67.1025C53.0184 67.0438 53.1024 66.9617 53.1661 66.859C53.2298 66.7534 53.2616 66.6272 53.2616 66.4835C53.2616 66.3397 53.2298 66.2136 53.1661 66.108C53.1024 66.0024 53.0184 65.9202 52.9084 65.8645C52.7983 65.8058 52.6738 65.7765 52.5348 65.7765H51.5185V65.3306H52.5609C52.7896 65.3306 52.9952 65.3775 53.1776 65.4714C53.3601 65.5653 53.5048 65.7002 53.6091 65.8704C53.7133 66.0434 53.7683 66.2459 53.7683 66.4835C53.7683 66.7211 53.7162 66.9176 53.6091 67.0937C53.5019 67.2667 53.3601 67.4017 53.1776 67.4956C52.9952 67.5894 52.7896 67.6364 52.5609 67.6364H51.5185Z" fill="url(#paint14_radial_298_3015)"/>
<path d="M54.596 66.0052C54.5062 66.0052 54.4338 65.9759 54.3759 65.9143C54.318 65.8527 54.2891 65.7793 54.2891 65.6884C54.2891 65.5975 54.318 65.5271 54.3759 65.4684C54.4338 65.4097 54.5062 65.3774 54.596 65.3774C54.6858 65.3774 54.7581 65.4068 54.8161 65.4684C54.874 65.5271 54.9029 65.6004 54.9029 65.6884C54.9029 65.7764 54.874 65.8556 54.8161 65.9143C54.7581 65.973 54.6858 66.0052 54.596 66.0052ZM54.3499 69.1061V66.5216H54.8392V69.1061H54.3499Z" fill="url(#paint15_radial_298_3015)"/>
<path d="M56.7332 69.1618C56.4755 69.1618 56.2438 69.1031 56.044 68.9858C55.8413 68.8684 55.6821 68.7071 55.5633 68.5047C55.4446 68.3023 55.3867 68.0705 55.3867 67.8123C55.3867 67.5542 55.4446 67.3312 55.5605 67.1259C55.6763 66.9235 55.8355 66.7621 56.0324 66.6448C56.2293 66.5274 56.4552 66.4688 56.7013 66.4688C56.933 66.4688 57.1414 66.5245 57.3239 66.633C57.5063 66.7416 57.6482 66.8912 57.7495 67.0848C57.8509 67.2784 57.903 67.4955 57.903 67.7449C57.903 67.7801 57.903 67.8211 57.8972 67.8622C57.8943 67.9033 57.8856 67.9502 57.8769 68.0001H55.7226V67.5923H57.6192L57.4426 67.7507C57.4426 67.5777 57.4107 67.428 57.3499 67.3078C57.2891 67.1875 57.2022 67.0907 57.0922 67.0261C56.9822 66.9587 56.8461 66.9264 56.6897 66.9264C56.5334 66.9264 56.3799 66.9616 56.2554 67.0349C56.1309 67.1083 56.0324 67.208 55.9658 67.34C55.8963 67.472 55.8645 67.6246 55.8645 67.8035C55.8645 67.9825 55.8992 68.1438 55.9716 68.2788C56.044 68.4137 56.1454 68.5193 56.2786 68.5956C56.4118 68.669 56.5623 68.7071 56.7361 68.7071C56.8779 68.7071 57.0111 68.6807 57.1299 68.6308C57.2486 68.581 57.3528 68.5047 57.4397 68.402L57.7524 68.7218C57.6279 68.8684 57.4773 68.977 57.3007 69.0533C57.1241 69.1295 56.9388 69.1677 56.7361 69.1677L56.7332 69.1618Z" fill="url(#paint16_radial_298_3015)"/>
<path d="M58.4316 69.1061V66.5216H58.9152V69.1061H58.4316ZM58.9152 67.6363L58.7328 67.5483C58.7328 67.2198 58.8081 66.9557 58.9586 66.7592C59.1092 66.5626 59.3264 66.4658 59.6072 66.4658C59.7375 66.4658 59.8534 66.4893 59.9576 66.5333C60.0619 66.5773 60.1574 66.6536 60.2472 66.7592L59.9316 67.0907C59.8765 67.032 59.8186 66.9909 59.7549 66.9645C59.6912 66.9381 59.6159 66.9264 59.5291 66.9264C59.3495 66.9264 59.2048 66.9851 59.0889 67.0995C58.9731 67.2168 58.9181 67.3928 58.9181 67.6334L58.9152 67.6363Z" fill="url(#paint17_radial_298_3015)"/>
<path d="M61.6718 69.1618C61.4199 69.1618 61.194 69.1031 60.9914 68.9829C60.7887 68.8626 60.6294 68.7012 60.5136 68.4959C60.3977 68.2905 60.3398 68.0646 60.3398 67.8123C60.3398 67.5601 60.3977 67.3312 60.5136 67.1259C60.6294 66.9235 60.7887 66.7621 60.9914 66.6448C61.194 66.5274 61.4199 66.4688 61.6718 66.4688C61.8687 66.4688 62.0511 66.5069 62.2191 66.5802C62.387 66.6536 62.5318 66.7621 62.6534 66.9029L62.332 67.2286C62.2538 67.1347 62.1554 67.0613 62.0424 67.0144C61.9266 66.9645 61.805 66.9411 61.6718 66.9411C61.5097 66.9411 61.3678 66.9792 61.2433 67.0525C61.1188 67.1259 61.0203 67.2286 60.9479 67.3606C60.8755 67.4926 60.8408 67.6422 60.8408 67.8123C60.8408 67.9825 60.8755 68.1321 60.9479 68.2641C61.0203 68.3961 61.1188 68.4988 61.2433 68.5751C61.3678 68.6514 61.5125 68.6895 61.6718 68.6895C61.8079 68.6895 61.9324 68.666 62.0453 68.6162C62.1583 68.5663 62.2567 68.4959 62.3378 68.402L62.6534 68.7276C62.5347 68.8655 62.3899 68.9711 62.222 69.0474C62.0511 69.1237 61.8687 69.1618 61.6718 69.1618Z" fill="url(#paint18_radial_298_3015)"/>
<path d="M63.3792 66.0052C63.2894 66.0052 63.2171 65.9759 63.1591 65.9143C63.1012 65.8556 63.0723 65.7793 63.0723 65.6884C63.0723 65.5975 63.1012 65.5271 63.1591 65.4684C63.2171 65.4097 63.2894 65.3774 63.3792 65.3774C63.469 65.3774 63.5414 65.4068 63.5993 65.4684C63.6572 65.5271 63.6861 65.6004 63.6861 65.6884C63.6861 65.7764 63.6572 65.8556 63.5993 65.9143C63.5414 65.973 63.469 66.0052 63.3792 66.0052ZM63.1331 69.1061V66.5216H63.6224V69.1061H63.1331Z" fill="url(#paint19_radial_298_3015)"/>
<path d="M64.334 69.1061V66.5216H64.8175V69.1061H64.334ZM66.135 69.1061V67.5982C66.135 67.4016 66.0742 67.2403 65.9555 67.1141C65.8368 66.988 65.6775 66.9235 65.4864 66.9235C65.3561 66.9235 65.2432 66.9528 65.1419 67.0115C65.0405 67.0701 64.9623 67.1494 64.9044 67.252C64.8465 67.3547 64.8175 67.4691 64.8175 67.6011L64.6178 67.4867C64.6178 67.2902 64.6612 67.1171 64.7481 66.9645C64.8349 66.812 64.9536 66.6917 65.1071 66.6037C65.2606 66.5157 65.4343 66.4688 65.6283 66.4688C65.8223 66.4688 65.9932 66.5186 66.1408 66.6154C66.2885 66.7122 66.4072 66.8413 66.4941 66.9997C66.581 67.1581 66.6244 67.3254 66.6244 67.5043V69.109H66.135V69.1061Z" fill="url(#paint20_radial_298_3015)"/>
<path d="M68.3362 69.0621C68.1045 69.0621 67.896 69.0063 67.7107 68.8919C67.5254 68.7804 67.3806 68.625 67.2735 68.4255C67.1663 68.226 67.1113 68.006 67.1113 67.7595C67.1113 67.5131 67.1634 67.2931 67.2706 67.0995C67.3777 66.9059 67.5225 66.7504 67.7078 66.636C67.8931 66.5216 68.1016 66.4658 68.3304 66.4658C68.5302 66.4658 68.7097 66.5069 68.8661 66.5861C69.0224 66.6653 69.144 66.7768 69.2338 66.9205C69.3236 67.0643 69.3728 67.2315 69.3844 67.4251V68.1116C69.3728 68.2993 69.3236 68.4665 69.2309 68.6103C69.1382 68.754 69.0166 68.8655 68.8632 68.9447C68.7097 69.0239 68.5331 69.065 68.3362 69.065V69.0621ZM68.3362 70.2443C68.0698 70.2443 67.8381 70.1944 67.6383 70.0976C67.4385 70.0008 67.2735 69.8629 67.149 69.684L67.4646 69.3642C67.5688 69.4992 67.6933 69.6018 67.8352 69.6723C67.98 69.7427 68.148 69.7779 68.3449 69.7779C68.6026 69.7779 68.8081 69.7075 68.9616 69.5696C69.1151 69.4288 69.1933 69.241 69.1933 69.0063V68.3639L69.2801 67.783L69.1933 67.2051V66.5245H69.6768V69.0063C69.6768 69.2527 69.6218 69.4698 69.5089 69.6576C69.3959 69.8453 69.2396 69.9891 69.0369 70.0918C68.8342 70.1944 68.5997 70.2472 68.3362 70.2472V70.2443ZM68.4288 68.6015C68.591 68.6015 68.73 68.5663 68.8487 68.4988C68.9674 68.4313 69.0601 68.3316 69.1267 68.2084C69.1933 68.0852 69.2251 67.9385 69.2251 67.7713C69.2251 67.6041 69.1904 67.4574 69.1267 67.3342C69.0601 67.208 68.9674 67.1112 68.8487 67.0408C68.73 66.9704 68.591 66.9352 68.4317 66.9352C68.2725 66.9352 68.1306 66.9704 68.0061 67.0408C67.8844 67.1112 67.7889 67.211 67.7194 67.3342C67.6499 67.4603 67.6152 67.6041 67.6152 67.7683C67.6152 67.9326 67.6499 68.0764 67.7194 68.2025C67.7889 68.3287 67.8873 68.4284 68.009 68.4988C68.1306 68.5692 68.2725 68.6044 68.4317 68.6044L68.4288 68.6015Z" fill="url(#paint21_radial_298_3015)"/>
<path d="M72.6126 69.1619C72.3231 69.1619 72.074 69.1062 71.8656 68.9977C71.6571 68.8891 71.4747 68.7307 71.3125 68.5253L71.6571 68.1762C71.7758 68.3435 71.9119 68.4696 72.0654 68.5547C72.2188 68.6397 72.4099 68.6838 72.6358 68.6838C72.8616 68.6838 73.0354 68.6339 73.1715 68.5371C73.3076 68.4403 73.3742 68.3053 73.3742 68.1352C73.3742 67.9944 73.3423 67.8799 73.2757 67.7919C73.2091 67.7039 73.1222 67.6335 73.0151 67.5778C72.908 67.522 72.7893 67.4722 72.6618 67.4282C72.5344 67.3842 72.4041 67.3372 72.2738 67.2844C72.1435 67.2316 72.0248 67.1641 71.9177 67.0849C71.8076 67.0057 71.7208 66.9031 71.6571 66.7769C71.5934 66.6508 71.5615 66.4923 71.5615 66.2958C71.5615 66.0816 71.6136 65.8998 71.715 65.7472C71.8163 65.5976 71.9553 65.4802 72.1348 65.3981C72.3115 65.316 72.5113 65.2749 72.7342 65.2749C72.9775 65.2749 73.1975 65.3218 73.3886 65.4186C73.5826 65.5155 73.739 65.6416 73.8606 65.7971L73.516 66.1462C73.406 66.0142 73.2873 65.9174 73.1599 65.8528C73.0325 65.7883 72.8877 65.756 72.7226 65.756C72.5229 65.756 72.3636 65.8 72.2449 65.888C72.1262 65.976 72.0682 66.1022 72.0682 66.2606C72.0682 66.3867 72.1001 66.4894 72.1667 66.5686C72.2333 66.6478 72.3202 66.7124 72.4273 66.7681C72.5344 66.8238 72.6532 66.8737 72.7835 66.9177C72.9138 66.9617 73.0441 67.0116 73.1715 67.0673C73.2989 67.1231 73.4176 67.1905 73.5247 67.2756C73.6319 67.3607 73.7187 67.4663 73.7853 67.5983C73.8519 67.7303 73.8838 67.8975 73.8838 68.097C73.8838 68.4315 73.7708 68.6925 73.5421 68.8803C73.3133 69.0681 73.0064 69.1619 72.6155 69.1619H72.6126Z" fill="url(#paint22_radial_298_3015)"/>
<path d="M74.2402 66.9679V66.522H75.9805V66.9679H74.2402ZM74.8686 69.1065V65.4395H75.3521V69.1065H74.8686Z" fill="url(#paint23_radial_298_3015)"/>
<path d="M77.4871 69.1505C77.2757 69.1505 77.0875 69.1035 76.9196 69.0126C76.7516 68.9217 76.6242 68.7896 76.5316 68.6166C76.4389 68.4464 76.3926 68.2499 76.3926 68.024V66.522H76.8761V68.0034C76.8761 68.1443 76.8993 68.2675 76.9485 68.3701C76.9978 68.4728 77.0673 68.552 77.1599 68.6078C77.2526 68.6635 77.3626 68.6899 77.4871 68.6899C77.6782 68.6899 77.8259 68.6283 77.933 68.508C78.0402 68.3877 78.0952 68.2176 78.0952 68.0034V66.522H78.5788V68.024C78.5788 68.2499 78.5324 68.4464 78.4398 68.6166C78.3471 68.7867 78.2168 68.9187 78.0518 69.0126C77.8867 69.1065 77.6985 69.1505 77.4871 69.1505Z" fill="url(#paint24_radial_298_3015)"/>
<path d="M80.3009 69.162C80.0692 69.162 79.8578 69.1033 79.6725 68.986C79.4872 68.8686 79.3395 68.7073 79.2295 68.5049C79.1195 68.3025 79.0645 68.0736 79.0645 67.8184C79.0645 67.5632 79.1195 67.3373 79.2295 67.1319C79.3395 66.9295 79.4872 66.7682 79.6725 66.6479C79.8578 66.5276 80.0692 66.4689 80.3009 66.4689C80.4949 66.4689 80.6686 66.51 80.8221 66.5922C80.9755 66.6743 81.1001 66.7858 81.1956 66.9295C81.2912 67.0733 81.3433 67.2376 81.3549 67.4282V68.2056C81.3433 68.3905 81.2912 68.5547 81.1985 68.7014C81.1058 68.8481 80.9813 68.9596 80.8279 69.0417C80.6744 69.1239 80.4978 69.1649 80.3009 69.1649V69.162ZM80.3819 68.6985C80.5441 68.6985 80.6831 68.6604 80.8076 68.5841C80.9292 68.5078 81.0248 68.4022 81.0914 68.2702C81.158 68.1382 81.1927 67.9856 81.1927 67.8155C81.1927 67.6453 81.158 67.4869 81.0914 67.3549C81.0219 67.2229 80.9292 67.1173 80.8076 67.041C80.686 66.9647 80.5441 66.9266 80.3819 66.9266C80.2198 66.9266 80.0808 66.9647 79.9563 67.0381C79.8347 67.1114 79.7391 67.217 79.6696 67.349C79.6001 67.481 79.5654 67.6336 79.5654 67.8096C79.5654 67.9856 79.6001 68.1382 79.6696 68.2731C79.7391 68.4081 79.8376 68.5107 79.9592 68.587C80.0808 68.6633 80.2227 68.6985 80.3819 68.6985ZM81.6473 69.1063H81.158V68.4081L81.2506 67.7773L81.158 67.1525V65.2192H81.6473V69.1063Z" fill="url(#paint25_radial_298_3015)"/>
<path d="M82.5999 66.0052C82.5101 66.0052 82.4378 65.9759 82.3798 65.9143C82.3219 65.8556 82.293 65.7793 82.293 65.6884C82.293 65.5975 82.3219 65.5271 82.3798 65.4684C82.4378 65.4097 82.5101 65.3774 82.5999 65.3774C82.6897 65.3774 82.7621 65.4068 82.82 65.4684C82.8779 65.5271 82.9068 65.6004 82.9068 65.6884C82.9068 65.7764 82.8779 65.8556 82.82 65.9143C82.7621 65.973 82.6897 66.0052 82.5999 66.0052ZM82.3509 69.1061V66.5216H82.8402V69.1061H82.3509Z" fill="url(#paint26_radial_298_3015)"/>
<path d="M84.7168 69.1618C84.4707 69.1618 84.2448 69.1031 84.045 68.9829C83.8452 68.8626 83.686 68.7012 83.5673 68.4959C83.4485 68.2905 83.3906 68.0617 83.3906 67.8065C83.3906 67.5513 83.4485 67.3312 83.5673 67.1288C83.686 66.9264 83.8452 66.768 84.045 66.6477C84.2448 66.5274 84.4678 66.4688 84.7168 66.4688C84.9658 66.4688 85.1946 66.5274 85.3973 66.6448C85.6 66.7621 85.7592 66.9235 85.8779 67.1259C85.9967 67.3283 86.0546 67.5571 86.0546 67.8065C86.0546 68.0558 85.9967 68.2905 85.8779 68.4959C85.7592 68.7012 85.6 68.8626 85.3973 68.9829C85.1946 69.1031 84.9687 69.1618 84.7168 69.1618ZM84.7168 68.6866C84.8818 68.6866 85.0266 68.6484 85.1511 68.5722C85.2756 68.4959 85.3741 68.3903 85.4465 68.2583C85.5189 68.1262 85.5536 67.9737 85.5536 67.8035C85.5536 67.6334 85.516 67.4867 85.4436 67.3576C85.3712 67.2256 85.2728 67.1259 85.1482 67.0496C85.0237 66.9763 84.8818 66.9381 84.7168 66.9381C84.5518 66.9381 84.4186 66.9763 84.2911 67.0496C84.1666 67.1229 84.0682 67.2256 83.9958 67.3576C83.9234 67.4896 83.8887 67.6363 83.8887 67.8035C83.8887 67.9708 83.9234 68.1262 83.9958 68.2583C84.0682 68.3903 84.1666 68.4959 84.2911 68.5722C84.4157 68.6484 84.5575 68.6866 84.7168 68.6866Z" fill="url(#paint27_radial_298_3015)"/>
</g>
<defs>
<radialGradient id="paint0_radial_298_3015" cx="0" cy="0" r="1" gradientTransform="matrix(7.79011 73.1347 -128.36 283.437 103.199 -22.7217)" gradientUnits="userSpaceOnUse">
<stop stop-color="#AD32AE"/>
<stop offset="1" stop-color="#3C49C2"/>
</radialGradient>
<radialGradient id="paint1_radial_298_3015" cx="0" cy="0" r="1" gradientTransform="matrix(7.81606 73.1171 -128.788 283.368 52.5479 -22.7079)" gradientUnits="userSpaceOnUse">
<stop stop-color="#AD32AE"/>
<stop offset="1" stop-color="#3C49C2"/>
</radialGradient>
<radialGradient id="paint2_radial_298_3015" cx="0" cy="0" r="1" gradientTransform="matrix(7.78722 73.0719 -128.313 283.193 73.4397 -22.6803)" gradientUnits="userSpaceOnUse">
<stop stop-color="#AD32AE"/>
<stop offset="1" stop-color="#3C49C2"/>
</radialGradient>
<radialGradient id="paint3_radial_298_3015" cx="0" cy="0" r="1" gradientTransform="matrix(7.66325 73.0798 -126.27 283.224 2.76549 -22.6628)" gradientUnits="userSpaceOnUse">
<stop stop-color="#AD32AE"/>
<stop offset="1" stop-color="#3C49C2"/>
</radialGradient>
<radialGradient id="paint4_radial_298_3015" cx="0" cy="0" r="1" gradientTransform="matrix(7.11114 73.0798 -117.173 283.224 32.5131 -22.6628)" gradientUnits="userSpaceOnUse">
<stop stop-color="#AD32AE"/>
<stop offset="1" stop-color="#3C49C2"/>
</radialGradient>
<radialGradient id="paint5_radial_298_3015" cx="0" cy="0" r="1" gradientTransform="matrix(1.50353 122.614 -24.7742 475.197 21.6761 -68.9621)" gradientUnits="userSpaceOnUse">
<stop stop-color="#AD32AE"/>
<stop offset="1" stop-color="#3C49C2"/>
</radialGradient>
<radialGradient id="paint6_radial_298_3015" cx="0" cy="0" r="1" gradientTransform="matrix(1.50497 122.614 -24.798 475.197 92.3328 -68.9621)" gradientUnits="userSpaceOnUse">
<stop stop-color="#AD32AE"/>
<stop offset="1" stop-color="#3C49C2"/>
</radialGradient>
<radialGradient id="paint7_radial_298_3015" cx="0" cy="0" r="1" gradientTransform="matrix(13.1949 63.1477 -217.417 244.732 49.2955 -47.4191)" gradientUnits="userSpaceOnUse">
<stop stop-color="#AD32AE"/>
<stop offset="1" stop-color="#3C49C2"/>
</radialGradient>
<radialGradient id="paint8_radial_298_3015" cx="0" cy="0" r="1" gradientTransform="matrix(1.51074 10.1222 -24.893 39.2292 30.626 57.7093)" gradientUnits="userSpaceOnUse">
<stop stop-color="#AD32AE"/>
<stop offset="1" stop-color="#3C49C2"/>
</radialGradient>
<radialGradient id="paint9_radial_298_3015" cx="0" cy="0" r="1" gradientTransform="matrix(1.2873 7.22232 -21.2113 27.9904 33.2279 61.033)" gradientUnits="userSpaceOnUse">
<stop stop-color="#AD32AE"/>
<stop offset="1" stop-color="#3C49C2"/>
</radialGradient>
<radialGradient id="paint10_radial_298_3015" cx="0" cy="0" r="1" gradientTransform="matrix(1.62318 9.8236 -26.7457 38.0718 36.4033 58.0459)" gradientUnits="userSpaceOnUse">
<stop stop-color="#AD32AE"/>
<stop offset="1" stop-color="#3C49C2"/>
</radialGradient>
<radialGradient id="paint11_radial_298_3015" cx="0" cy="0" r="1" gradientTransform="matrix(1.32622 7.21447 -21.8526 27.96 39.7832 61.0389)" gradientUnits="userSpaceOnUse">
<stop stop-color="#AD32AE"/>
<stop offset="1" stop-color="#3C49C2"/>
</radialGradient>
<radialGradient id="paint12_radial_298_3015" cx="0" cy="0" r="1" gradientTransform="matrix(1.32622 7.21447 -21.8526 27.96 42.8183 61.0389)" gradientUnits="userSpaceOnUse">
<stop stop-color="#AD32AE"/>
<stop offset="1" stop-color="#3C49C2"/>
</radialGradient>
<radialGradient id="paint13_radial_298_3015" cx="0" cy="0" r="1" gradientTransform="matrix(1.57705 10.4209 -25.9856 40.3866 47.1717 57.4289)" gradientUnits="userSpaceOnUse">
<stop stop-color="#AD32AE"/>
<stop offset="1" stop-color="#3C49C2"/>
</radialGradient>
<radialGradient id="paint14_radial_298_3015" cx="0" cy="0" r="1" gradientTransform="matrix(1.28874 10.1222 -21.235 39.2292 51.6503 57.7093)" gradientUnits="userSpaceOnUse">
<stop stop-color="#AD32AE"/>
<stop offset="1" stop-color="#3C49C2"/>
</radialGradient>
<radialGradient id="paint15_radial_298_3015" cx="0" cy="0" r="1" gradientTransform="matrix(0.305607 9.98866 -5.03559 38.7115 54.4007 57.8597)" gradientUnits="userSpaceOnUse">
<stop stop-color="#AD32AE"/>
<stop offset="1" stop-color="#3C49C2"/>
</radialGradient>
<radialGradient id="paint16_radial_298_3015" cx="0" cy="0" r="1" gradientTransform="matrix(1.2527 7.23018 -20.6412 28.0209 55.8442 61.0271)" gradientUnits="userSpaceOnUse">
<stop stop-color="#AD32AE"/>
<stop offset="1" stop-color="#3C49C2"/>
</radialGradient>
<radialGradient id="paint17_radial_298_3015" cx="0" cy="0" r="1" gradientTransform="matrix(0.903851 7.07299 -14.8931 27.4117 58.7617 61.1425)" gradientUnits="userSpaceOnUse">
<stop stop-color="#AD32AE"/>
<stop offset="1" stop-color="#3C49C2"/>
</radialGradient>
<radialGradient id="paint18_radial_298_3015" cx="0" cy="0" r="1" gradientTransform="matrix(1.15179 7.21447 -18.9785 27.96 60.7605 61.0389)" gradientUnits="userSpaceOnUse">
<stop stop-color="#AD32AE"/>
<stop offset="1" stop-color="#3C49C2"/>
</radialGradient>
<radialGradient id="paint19_radial_298_3015" cx="0" cy="0" r="1" gradientTransform="matrix(0.305611 9.98866 -5.03566 38.7115 63.1839 57.8597)" gradientUnits="userSpaceOnUse">
<stop stop-color="#AD32AE"/>
<stop offset="1" stop-color="#3C49C2"/>
</radialGradient>
<radialGradient id="paint20_radial_298_3015" cx="0" cy="0" r="1" gradientTransform="matrix(1.14026 7.07299 -18.7885 27.4117 64.7504 61.1454)" gradientUnits="userSpaceOnUse">
<stop stop-color="#AD32AE"/>
<stop offset="1" stop-color="#3C49C2"/>
</radialGradient>
<radialGradient id="paint21_radial_298_3015" cx="0" cy="0" r="1" gradientTransform="matrix(1.27721 10.1301 -21.0451 39.2596 67.5778 58.8416)" gradientUnits="userSpaceOnUse">
<stop stop-color="#AD32AE"/>
<stop offset="1" stop-color="#3C49C2"/>
</radialGradient>
<radialGradient id="paint22_radial_298_3015" cx="0" cy="0" r="1" gradientTransform="matrix(1.28009 10.413 -21.0925 40.3561 71.78 57.4377)" gradientUnits="userSpaceOnUse">
<stop stop-color="#AD32AE"/>
<stop offset="1" stop-color="#3C49C2"/>
</radialGradient>
<radialGradient id="paint23_radial_298_3015" cx="0" cy="0" r="1" gradientTransform="matrix(0.86637 9.8236 -14.2755 38.0718 74.5566 58.0459)" gradientUnits="userSpaceOnUse">
<stop stop-color="#AD32AE"/>
<stop offset="1" stop-color="#3C49C2"/>
</radialGradient>
<radialGradient id="paint24_radial_298_3015" cx="0" cy="0" r="1" gradientTransform="matrix(1.08837 7.04155 -17.9334 27.2898 76.7901 61.2223)" gradientUnits="userSpaceOnUse">
<stop stop-color="#AD32AE"/>
<stop offset="1" stop-color="#3C49C2"/>
</radialGradient>
<radialGradient id="paint25_radial_298_3015" cx="0" cy="0" r="1" gradientTransform="matrix(1.28586 10.5702 -21.1876 40.9652 79.5341 57.2638)" gradientUnits="userSpaceOnUse">
<stop stop-color="#AD32AE"/>
<stop offset="1" stop-color="#3C49C2"/>
</radialGradient>
<radialGradient id="paint26_radial_298_3015" cx="0" cy="0" r="1" gradientTransform="matrix(0.305607 9.98866 -5.03559 38.7115 82.4046 57.8597)" gradientUnits="userSpaceOnUse">
<stop stop-color="#AD32AE"/>
<stop offset="1" stop-color="#3C49C2"/>
</radialGradient>
<radialGradient id="paint27_radial_298_3015" cx="0" cy="0" r="1" gradientTransform="matrix(1.32622 7.21447 -21.8526 27.96 83.875 61.0389)" gradientUnits="userSpaceOnUse">
<stop stop-color="#AD32AE"/>
<stop offset="1" stop-color="#3C49C2"/>
</radialGradient>
<clipPath id="clip0_298_3015">
<rect width="116" height="70" fill="white"/>
</clipPath>
</defs>
</svg>
