<svg width="125" height="20" viewBox="0 0 125 20" fill="none" xmlns="http://www.w3.org/2000/svg">
<path d="M6.13683 17.5212C2.6936 17.5212 0 15.1198 0 11.7528C0 8.37314 2.66819 5.85742 6.18765 5.85742C9.74524 5.85742 12.2991 8.32232 12.2991 11.702C12.2991 15.069 9.68171 17.5212 6.13683 17.5212ZM6.13683 8.2842C3.97687 8.2842 2.6936 9.75806 2.6936 11.7147C2.6936 13.557 4.09122 15.0944 6.18765 15.0944C8.37303 15.0944 9.61818 13.5571 9.61818 11.7528C9.60548 9.8597 8.24597 8.2842 6.13683 8.2842Z" fill="white"/>
<path d="M15.8821 17.2544H13.1885V6.12423H15.8821V7.25503C16.6444 6.40375 17.7752 5.87012 19.554 5.87012C22.1968 5.87012 23.7342 7.64891 23.7342 10.3806V17.229H21.0406V11.4733C21.0406 9.40229 20.0876 8.44937 18.5249 8.44937C17.051 8.44937 15.8821 9.71993 15.8821 11.5877V17.2544Z" fill="white"/>
<path d="M30.5826 17.5212C27.1393 17.5212 24.5093 15.1198 24.5093 11.7655C24.5093 8.41123 26.9361 5.89551 30.608 5.89551C32.7934 5.89551 34.2164 6.69596 35.2837 7.81406L33.6701 9.75803C32.895 8.89404 31.9294 8.28417 30.5826 8.28417C28.6259 8.28417 27.2029 9.77073 27.2029 11.7147C27.2029 13.7603 28.7403 15.0944 30.7223 15.0944C31.9929 15.0944 32.9967 14.4718 33.8098 13.5316L35.3853 15.3612C34.2291 16.6064 32.8696 17.5212 30.5826 17.5212Z" fill="white"/>
<path d="M41.8016 15.2469C43.0467 15.2469 44.0886 14.6497 44.978 13.6841L46.5535 15.3104C45.4354 16.6445 43.9107 17.5085 41.7508 17.5085C38.3456 17.5085 35.7283 15.3739 35.7283 11.7274C35.7283 8.34771 38.1042 5.88281 41.4712 5.88281C45.2067 5.88281 47.1252 8.52559 47.1252 11.9307C47.1252 12.1721 47.0744 12.5279 47.0617 12.7947H38.5489C38.8412 14.5862 40.1498 15.2469 41.8016 15.2469ZM44.33 10.7999C44.1521 9.05923 43.2119 8.15712 41.4331 8.15712C39.7814 8.15712 38.6252 8.98299 38.4473 10.7999H44.33Z" fill="white"/>
<path d="M77.352 12.4903C77.352 14.1421 78.2033 15.0442 79.8042 15.0442H80.5157V17.4963H79.1308C76.1323 17.4963 74.6584 15.7176 74.6584 13.3543V8.43721H73.1719V6.12478H74.6584V2.7959H77.352V6.13749H80.5157V8.44992H77.352V12.4903Z" fill="white"/>
<path d="M93.2976 13.5314L95.3178 6.12402H98.2274L94.5809 17.2415H92.0397L89.4478 9.97384L86.3984 17.2415H83.8573L80.719 6.12402H83.8065L85.4709 13.5314L88.3805 6.12402H90.7819L93.2976 13.5314Z" fill="white"/>
<path d="M99.8795 1.23242C100.794 1.23242 101.544 1.99476 101.544 2.88416C101.544 3.79896 100.782 4.5486 99.8795 4.5486C98.9901 4.5486 98.2278 3.78626 98.2278 2.88416C98.2405 1.99476 98.9901 1.23242 99.8795 1.23242ZM98.5454 17.2543V6.1241H101.239V17.2416H98.5454V17.2543Z" fill="white"/>
<path d="M108.061 17.5212C104.618 17.5212 101.988 15.1198 101.988 11.7655C101.988 8.41123 104.415 5.89551 108.087 5.89551C110.272 5.89551 111.695 6.69596 112.762 7.81406L111.162 9.77073C110.386 8.90675 109.421 8.29688 108.074 8.29688C106.117 8.29688 104.694 9.78344 104.694 11.7274C104.694 13.773 106.232 15.1071 108.214 15.1071C109.484 15.1071 110.488 14.4845 111.301 13.5443L112.877 15.3739C111.721 16.6064 110.361 17.5212 108.061 17.5212Z" fill="white"/>
<path d="M119.281 15.2469C120.526 15.2469 121.568 14.6497 122.457 13.6841L124.033 15.3104C122.915 16.6445 121.39 17.5085 119.23 17.5085C115.825 17.5085 113.208 15.3739 113.208 11.7274C113.208 8.34771 115.584 5.88281 118.951 5.88281C122.686 5.88281 124.605 8.52559 124.605 11.9307C124.605 12.1721 124.554 12.5279 124.541 12.7947H116.028C116.321 14.5862 117.629 15.2469 119.281 15.2469ZM121.809 10.7999C121.632 9.05923 120.691 8.15712 118.913 8.15712C117.261 8.15712 116.105 8.98299 115.927 10.7999H121.809Z" fill="white"/>
<path d="M68.204 17.4957L66.26 15.4501C66.6031 14.6369 66.7937 13.7221 66.7937 12.7819C66.7937 12.693 66.7937 12.5913 66.7937 12.5024L64.2525 12.5913C64.2525 12.6548 64.2525 12.7184 64.2525 12.7819C64.2525 12.9725 64.2525 13.1249 64.2271 13.3155L57.9124 6.72129C57.5693 6.27659 57.3788 5.71755 57.3788 5.14579C57.3788 3.73546 58.535 2.56654 59.958 2.56654C61.381 2.56654 62.5118 3.73546 62.5118 5.14579C62.5118 5.8319 62.2323 6.49259 61.7622 6.9627L63.5791 8.77961C64.5575 7.80127 65.0911 6.518 65.0911 5.13309C65.0911 2.32514 62.766 0 59.9326 0C57.0992 0 54.7868 2.32514 54.7868 5.14579C54.7868 6.02248 55.0028 6.87376 55.4094 7.62339C53.9355 8.90667 53.0588 10.7998 53.0588 12.8073C53.0588 16.6063 56.1336 19.6811 59.9326 19.6811C61.813 19.6811 63.541 18.8933 64.7989 17.6736L66.3744 19.3126L68.204 17.4957ZM59.9326 17.0891C57.5439 17.0891 55.6254 15.1706 55.6254 12.7819C55.6254 11.5621 56.159 10.3932 57.0738 9.58007L63.0074 15.7931C62.2323 16.5809 61.1269 17.0891 59.9326 17.0891Z" fill="#ED1C54"/>
</svg>
