<svg width="110" height="110" viewBox="0 0 110 110" fill="none" xmlns="http://www.w3.org/2000/svg">
<circle cx="55" cy="55" r="55" fill="#3C49C2"/>
<path d="M35.1178 39.4985C40.9779 38.4232 47.0938 39.4686 52.3738 42.2066C52.7868 42.4256 54.3207 43.471 54.6058 43.471C56.8181 42.0871 59.1386 40.8724 61.6459 40.1058C65.9525 38.8016 70.682 38.6024 75.0771 39.608C74.8903 34.0525 72.3436 28.696 68.2435 25.0421C62.3735 27.5212 56.5428 21.7068 59.4532 15.7729C62.8946 8.75379 73.4351 12.3082 72.0782 20.0441C77.8007 25.6893 81.1536 33.5347 80.8094 41.7187C87.9282 45.2233 93.2377 52.2026 94.5356 60.1576C98.6161 61.0536 100.966 65.1058 99.619 69.1679C98.3801 72.8716 94.103 74.823 90.5633 73.2002C85.8634 71.0496 85.3619 64.6976 89.2359 61.4618C88.6165 58.6642 87.4955 55.976 85.8732 53.6263C84.2508 51.2767 82.0287 49.0664 79.5607 47.802C77.7122 54.7713 72.4912 60.5857 66.0705 63.6024C66.0902 69.5861 64.4973 75.8286 60.9773 80.6673C60.5447 81.2647 59.8367 81.9118 59.4631 82.4495C59.4041 82.5391 59.3156 82.559 59.3549 82.7282C61.2034 83.7139 62.9536 84.5801 65.0086 85.0182C68.7646 85.8147 72.6091 85.964 76.139 84.2515C76.7388 76.6749 87.3874 75.4801 89.3244 82.9473C91.0451 89.5881 83.1791 94.2575 78.1743 89.7175C70.4263 92.774 61.5672 91.6291 54.832 86.7406C48.2245 91.649 39.2376 92.8935 31.5781 89.7971C29.4837 91.6291 27.2419 92.5351 24.4888 91.6689C19.9364 90.2551 18.3337 84.3909 21.4211 80.727C25.2263 76.2169 32.2368 78.4073 33.1808 84.1321C36.1502 85.5956 39.4539 85.7748 42.6888 85.3567C45.4026 85.0082 48.136 84.2217 50.3975 82.6486C49.8469 81.7127 49.0799 80.8864 48.4802 79.9704C45.3338 75.1615 43.8392 69.387 44.0555 63.6124C37.4776 60.6355 32.6105 54.4427 30.4277 47.563C27.4484 49.4447 24.9116 52.3021 23.0729 55.3089C21.8635 57.2902 20.8213 59.4905 20.7328 61.8601C24.8231 64.9963 23.9972 71.6769 19.2186 73.6283C14.558 75.5299 9.69091 71.8959 10.0154 66.8481C10.1924 64.0703 12.1687 61.5813 14.794 60.8047C15.9247 54.7315 19.0416 49.2058 23.7219 45.2432C25.3836 43.8394 27.3403 42.5351 29.3264 41.6889C28.8152 34.4706 31.5682 27.6805 36.0027 22.1946C36.4058 21.6968 37.8512 20.3328 38.0184 19.9246C38.215 19.4368 38.0184 18.1226 38.1462 17.4057C39.2769 10.7948 49.0996 10.0282 51.0956 16.6391C52.8655 22.5033 47.2413 27.3221 41.7547 25.0321C37.7824 28.696 35.2161 34.0027 35.1276 39.4985H35.1178ZM74.202 45.5817C71.6849 44.9346 68.8728 45.1237 66.3262 45.6116C64.0745 46.0397 61.99 47.0055 60.0628 48.2301C59.9645 48.3694 60.0727 48.4889 60.1415 48.5984C60.407 49.0465 60.9773 49.5941 61.3018 50.072C62.8258 52.2723 64.0745 54.7016 64.8218 57.2902C64.9988 57.4196 67.2603 55.6076 67.5552 55.3587C70.5541 52.79 73.0024 49.375 74.2118 45.5817H74.202ZM50.2893 48.011C46.671 45.98 42.266 44.9445 38.1167 45.2432C37.7922 45.2631 35.9339 45.5419 35.8945 45.751C37.4776 50.5499 40.742 54.7713 44.9995 57.3997C45.6189 55.966 46.1597 54.5025 46.8873 53.1285C47.8509 51.3065 49.0996 49.6737 50.2893 48.011ZM59.0206 59.7195C59.2467 59.4606 57.9685 56.5833 57.7424 56.1154C56.9754 54.5821 55.9627 53.1584 54.832 51.884C53.0523 54.1839 51.715 56.8322 50.8498 59.6199C53.4751 60.5757 56.3658 60.4861 59.0304 59.7195H59.0206ZM59.8957 65.5937C56.6215 66.2308 53.2391 66.1711 49.9649 65.5937C49.8764 70.2531 51.8822 74.9126 54.8221 78.4172C58.0275 75.0022 59.8465 70.3228 59.8957 65.5937Z" fill="white"/>
</svg>
