<svg width="48" height="50" viewBox="0 0 48 50" fill="none" xmlns="http://www.w3.org/2000/svg">
<path d="M35.0615 29.7526C26.5363 29.7969 25.1573 35.2345 24.6977 39.8322L24.4888 41.8657H22.7753L22.5663 39.8322C22.1067 35.2345 20.6859 29.7968 12.4533 29.7526C11.0742 26.7463 10.4892 24.3148 10.4892 21.5739C10.4892 14.7217 15.7965 8.31123 23.6528 8.31123C31.5093 8.31123 36.733 14.6772 36.733 21.6183C36.733 24.3148 36.4823 26.7463 35.0615 29.7526ZM23.5694 0C10.6147 0 0 11.2291 0 24.9778C0 38.7711 10.6147 50 23.5694 50C36.6494 50 47.2222 38.7711 47.2222 24.9778C47.2222 11.2291 36.6494 0 23.5694 0Z" fill="#29B24A"/>
</svg>
