<svg width="50" height="50" viewBox="0 0 50 50" fill="none" xmlns="http://www.w3.org/2000/svg">
<path d="M29.8623 16.166C31.0463 16.1661 31.9822 17.15 31.9824 18.333V26.333C31.9823 27.4035 31.3082 28.3137 30.3623 28.6699V32.833H31.4824C31.7584 32.833 31.9822 33.057 31.9824 33.333C31.9822 33.609 31.7585 33.833 31.4824 33.833H20.9502C19.3187 33.8329 18.0197 32.4763 18.0195 30.833V19.166C18.0197 17.5228 19.3187 16.1661 20.9502 16.166H29.8623ZM20.9502 28.833C19.9632 28.8331 19.1297 29.6081 19.0293 30.626L19.0195 30.833L19.0293 31.0391C19.1294 32.0572 19.963 32.8329 20.9502 32.833H29.3623V28.833H20.9502ZM20.9502 17.166C19.8974 17.1661 19.0197 18.0483 19.0195 19.166V28.5791C19.5334 28.1167 20.2065 27.8331 20.9502 27.833H21.2607V17.166H20.9502ZM22.2607 27.833H29.4824C30.3107 27.833 30.9822 27.1613 30.9824 26.333V18.333C30.9822 17.6755 30.4677 17.1661 29.8623 17.166H22.2607V27.833Z" fill="#6D85F4"/>
</svg>
