<svg width="50" height="50" viewBox="0 0 50 50" fill="none" xmlns="http://www.w3.org/2000/svg">
<path fill-rule="evenodd" clip-rule="evenodd" d="M25.2364 35.9372C23.0773 35.9372 22.074 35.6207 20.33 34.3544C19.2268 35.7789 15.7335 36.8922 15.5812 34.9876C15.5812 33.5578 15.266 32.3496 14.9088 31.0306C14.4833 29.4056 14 27.596 14 24.9739C14 18.7114 19.1165 14 25.1786 14C31.2459 14 35.9999 18.9435 35.9999 25.0319C36.0203 31.0262 31.2046 35.9052 25.2364 35.9372ZM25.3257 19.4131C22.3734 19.2601 20.0726 21.3124 19.563 24.5307C19.1428 27.195 19.8887 30.4397 20.5243 30.6086C20.829 30.6824 21.596 30.0599 22.074 29.5798C22.8644 30.1282 23.7849 30.4576 24.7426 30.5347C27.8016 30.6825 30.4154 28.3435 30.6208 25.2746C30.7403 22.1992 28.3851 19.5944 25.3257 19.4184L25.3257 19.4131Z" fill="#356BEF"/>
</svg>
