<svg width="50" height="50" viewBox="0 0 50 50" fill="none" xmlns="http://www.w3.org/2000/svg">
<path d="M13.0957 8.29639C14.3178 7.67824 15.7622 7.67838 16.9844 8.29639C17.6169 8.6163 18.1892 9.19849 19.1729 10.1821L19.5439 10.5522C20.1911 11.1994 20.5719 11.5769 20.8252 11.9663C21.7533 13.3937 21.7531 15.2341 20.8252 16.6616C20.5719 17.0512 20.1912 17.4284 19.5439 18.0757C19.3158 18.3038 19.2405 18.381 19.1787 18.4673C18.9447 18.7944 18.8603 19.2911 18.9727 19.6772C19.0027 19.7802 19.04 19.8606 19.1582 20.1069C20.4589 22.8159 22.2329 25.3554 24.4795 27.6021C26.7262 29.8488 29.2665 31.6226 31.9756 32.9233C32.2219 33.0416 32.3024 33.0789 32.4053 33.1089C32.7915 33.2214 33.2881 33.137 33.6152 32.9028C33.7014 32.8411 33.778 32.7664 34.0059 32.5386C34.6533 31.8912 35.0303 31.5097 35.4199 31.2563C36.8472 30.3285 38.6878 30.3287 40.1152 31.2563C40.5048 31.5096 40.8821 31.8913 41.5293 32.5386L41.9004 32.9087C42.884 33.8923 43.4652 34.4657 43.7852 35.0981C44.4032 36.3203 44.4032 37.7637 43.7852 38.9858C43.4652 39.6184 42.8842 40.1906 41.9004 41.1743L41.6006 41.4741C40.6078 42.4669 40.0517 43.0279 39.2939 43.4536C38.4582 43.923 37.1919 44.2524 36.2334 44.2495C35.3683 44.2469 34.7663 44.0733 33.7012 43.771C27.8471 42.1094 22.3222 38.9741 17.7148 34.3667C13.1077 29.7593 9.97209 24.2352 8.31055 18.3813C8.00818 17.316 7.8346 16.7135 7.83203 15.8481C7.82929 14.8897 8.15855 13.6232 8.62793 12.7876C9.05364 12.0299 9.61483 11.4745 10.6074 10.4819L10.9072 10.1821C11.8909 9.19844 12.4633 8.61637 13.0957 8.29639ZM16.5332 9.18896C15.5949 8.71455 14.4861 8.71453 13.5479 9.18896C13.094 9.41857 12.6536 9.84984 11.6143 10.8892L11.3145 11.189C10.2912 12.2122 9.84419 12.6652 9.5 13.2778C9.11513 13.963 8.8298 15.0593 8.83203 15.8452C8.83413 16.5518 8.96509 17.025 9.27246 18.1079C10.8886 23.802 13.9383 29.1759 18.4219 33.6597C22.9056 38.1434 28.2795 41.1928 33.9736 42.8091C35.0567 43.1165 35.53 43.2473 36.2363 43.2495C37.0221 43.2519 38.1184 42.9673 38.8037 42.5825C39.4165 42.2383 39.8692 41.7905 40.8926 40.7671L41.1934 40.4673C42.2325 39.4281 42.663 38.9885 42.8926 38.5347C43.3672 37.5963 43.3672 36.4877 42.8926 35.5493C42.663 35.0956 42.2322 34.6555 41.1934 33.6167L40.8223 33.2456C40.139 32.5623 39.8498 32.277 39.5703 32.0952C38.4742 31.3828 37.0608 31.3826 35.9648 32.0952C35.6853 32.277 35.3963 32.5622 34.7129 33.2456C34.5062 33.4523 34.3651 33.5951 34.1973 33.7153C33.6205 34.1283 32.806 34.2674 32.125 34.0688C31.928 34.0114 31.7697 33.934 31.542 33.8247C28.7328 32.4758 26.0999 30.6374 23.7725 28.3101C21.4449 25.9824 19.6057 23.349 18.2568 20.5396C18.1475 20.3119 18.0702 20.1537 18.0127 19.9565C17.8145 19.2758 17.9535 18.4618 18.3662 17.8853C18.4865 17.7172 18.63 17.5756 18.8369 17.3687C19.5203 16.6853 19.8046 16.3962 19.9863 16.1167C20.6989 15.0206 20.699 13.6073 19.9863 12.5112C19.8045 12.2319 19.5198 11.9421 18.8369 11.2593L18.4658 10.8892C17.4268 9.85015 16.987 9.41855 16.5332 9.18896ZM28.6943 13.0444C28.7865 12.7845 29.0719 12.6481 29.332 12.7397C33.026 14.0454 35.953 16.9726 37.2588 20.6665C37.3508 20.9268 37.2143 21.2121 36.9541 21.3042C36.6938 21.3961 36.4084 21.2598 36.3164 20.9995C35.1113 17.5905 32.4081 14.8871 28.999 13.6821C28.7389 13.5899 28.6024 13.3047 28.6943 13.0444ZM30.7051 7.12646C30.7962 6.86628 31.0814 6.72923 31.3418 6.81982C36.8708 8.74874 41.2497 13.1278 43.1787 18.6567C43.2696 18.9173 43.1325 19.2023 42.8721 19.2935C42.6116 19.3842 42.3265 19.2472 42.2354 18.9868C40.4068 13.7455 36.2531 9.59162 31.0117 7.76318C30.7516 7.67189 30.6142 7.3869 30.7051 7.12646Z" fill="#FE9AFF"/>
</svg>
