<svg width="50" height="50" viewBox="0 0 50 50" fill="none" xmlns="http://www.w3.org/2000/svg">
<path d="M19.6445 17.0503C20.3465 16.6954 21.176 16.6953 21.8779 17.0503C22.2488 17.2379 22.5777 17.5752 23.0742 18.0718L23.2666 18.2642C23.5936 18.5911 23.8143 18.8081 23.9629 19.0366C24.4959 19.8565 24.4958 20.914 23.9629 21.7339C23.8144 21.9622 23.5933 22.1787 23.2666 22.5054C23.1441 22.6279 23.1214 22.6534 23.1035 22.6782C23.0251 22.7877 22.9946 22.9688 23.0322 23.0981C23.0412 23.1289 23.0507 23.1523 23.1143 23.2847C23.7771 24.6651 24.6808 25.9596 25.8262 27.105C26.9716 28.2504 28.266 29.154 29.6465 29.8169C29.7789 29.8805 29.8022 29.89 29.833 29.8989C29.9624 29.9365 30.1434 29.906 30.2529 29.8276C30.2778 29.8098 30.3033 29.787 30.4258 29.6646C30.7525 29.3378 30.9689 29.1168 31.1973 28.9683C32.0172 28.4354 33.0746 28.4352 33.8945 28.9683C34.123 29.1168 34.34 29.3376 34.667 29.6646L34.8594 29.8569C35.3559 30.3534 35.6932 30.6824 35.8809 31.0532C36.2358 31.7551 36.2357 32.5847 35.8809 33.2866C35.6932 33.6574 35.3558 33.9865 34.8594 34.4829L34.7031 34.6382C34.1959 35.1454 33.8828 35.4643 33.4551 35.7046C32.9856 35.9682 32.2884 36.1495 31.75 36.1479C31.2632 36.1465 30.92 36.0457 30.3721 35.8901C27.2981 35.0177 24.3974 33.3715 21.9785 30.9526C19.5597 28.5338 17.9135 25.633 17.041 22.5591C16.8855 22.0112 16.7847 21.668 16.7832 21.1812C16.7817 20.6428 16.963 19.9455 17.2266 19.4761C17.4669 19.0483 17.7857 18.7344 18.293 18.2271L18.4482 18.0718C18.9447 17.5753 19.2737 17.2379 19.6445 17.0503ZM21.4268 17.9419C21.0086 17.7305 20.5139 17.7305 20.0957 17.9419C19.9034 18.0392 19.7072 18.2269 19.1553 18.7788L19 18.9351C18.4624 19.4726 18.2574 19.6828 18.0986 19.9653C17.9194 20.2843 17.7822 20.8122 17.7832 21.1782C17.7842 21.5064 17.8423 21.7208 18.0029 22.2866C18.8301 25.2006 20.3905 27.9505 22.6855 30.2456C24.9807 32.5407 27.7305 34.1011 30.6445 34.9282C31.2104 35.0888 31.4247 35.147 31.7529 35.1479C32.1189 35.149 32.6468 35.0117 32.9658 34.8325C33.2483 34.6737 33.4585 34.4687 33.9961 33.9312L34.1523 33.7759C34.7044 33.2238 34.891 33.0268 34.9883 32.8345C35.1996 32.4163 35.1998 31.9225 34.9883 31.5044C34.891 31.3122 34.7042 31.1158 34.1523 30.564L33.96 30.3716C33.5969 30.0085 33.4681 29.8832 33.3496 29.8062C32.8612 29.4887 32.2307 29.4888 31.7422 29.8062C31.6238 29.8832 31.4956 30.0088 31.1328 30.3716C31.0307 30.4737 30.9416 30.5647 30.835 30.6411C30.4759 30.8982 29.9767 30.9824 29.5527 30.8589C29.428 30.8225 29.3274 30.7728 29.2139 30.7183C27.733 30.0072 26.3455 29.0384 25.1191 27.812C23.8927 26.5856 22.923 25.1983 22.2119 23.7173C22.1574 23.6038 22.1077 23.5032 22.0713 23.3784C21.9478 22.9545 22.033 22.4552 22.29 22.0962C22.3665 21.9895 22.4575 21.9004 22.5596 21.7983C22.9223 21.4356 23.048 21.3074 23.125 21.189C23.4424 20.7005 23.4424 20.07 23.125 19.5815C23.048 19.4631 22.9226 19.3342 22.5596 18.9712L22.3672 18.7788C21.8151 18.2268 21.619 18.0392 21.4268 17.9419Z" fill="#6D85F4"/>
</svg>
