<svg width="50" height="50" viewBox="0 0 50 50" fill="none" xmlns="http://www.w3.org/2000/svg">
<path d="M24.999 7.83301C31.0279 7.83318 35.9149 12.7211 35.915 18.75C35.9149 23.4424 32.9541 27.4421 28.7988 28.9854C31.9821 29.529 34.8369 30.7426 37.084 32.4277C40.1945 34.7607 42.1648 38.0219 42.165 41.666C42.165 41.9422 41.9412 42.166 41.665 42.166C41.3892 42.1657 41.165 41.9419 41.165 41.666C41.1648 38.4072 39.4046 35.4184 36.4834 33.2275C33.562 31.0367 29.5032 29.6661 24.999 29.666C20.4945 29.6661 16.4351 31.0365 13.5137 33.2275C10.5925 35.4184 8.83227 38.4072 8.83203 41.666C8.83203 41.9422 8.60817 42.166 8.33203 42.166C8.05604 42.1658 7.83203 41.942 7.83203 41.666C7.83227 38.0219 9.80349 34.7607 12.9141 32.4277C15.1608 30.7428 18.0145 29.5291 21.1973 28.9854C17.0428 27.4416 14.0822 23.4418 14.082 18.75C14.0822 12.7211 18.9702 7.83318 24.999 7.83301ZM24.999 8.83301C19.5225 8.83318 15.0822 13.2734 15.082 18.75C15.0822 24.0554 19.2489 28.3875 24.4883 28.6533L24.999 28.666L25.5088 28.6533C30.7485 28.3878 34.9149 24.0556 34.915 18.75C34.9149 13.2734 30.4756 8.83318 24.999 8.83301Z" fill="#6D85F4"/>
</svg>
