<svg width="18" height="23" viewBox="0 0 18 23" fill="none" xmlns="http://www.w3.org/2000/svg">
<path d="M8.79883 0C13.6591 0 17.5986 4.11904 17.5986 9.2002C17.5986 11.7398 16.6143 14.0394 15.0225 15.7041C13.4301 17.3697 9.67937 19.7798 9.45898 22.3096C9.426 22.6889 9.16315 23 8.79883 23C8.43455 23 8.17165 22.6889 8.13867 22.3096C7.91827 19.7798 4.16753 17.3697 2.5752 15.7041C0.983316 14.0394 -0.00092605 11.7398 -0.000976562 9.2002C-0.000976562 4.11906 3.93862 4.52587e-05 8.79883 0ZM8.79297 5.34863C6.9563 5.34863 5.4668 6.90504 5.4668 8.8252C5.4668 10.7453 6.95631 12.3018 8.79297 12.3018C10.6295 12.3016 12.1182 10.7452 12.1182 8.8252C12.1182 6.90516 10.6295 5.34883 8.79297 5.34863Z" fill="#F03030"/>
</svg>
