<svg width="1270" height="641" viewBox="0 0 1270 641" fill="none" xmlns="http://www.w3.org/2000/svg">
<path d="M31.9834 203.774C10.8489 181.096 0.281704 152.75 0.281704 118.734C0.281704 84.7185 10.8489 56.479 31.9834 34.0157C53.3117 11.3386 80.5539 0 113.71 0C150.356 0 179.149 14.7615 200.09 44.2846C209.397 57.7626 215.989 72.4172 219.867 88.2484H164.607C161.699 81.6164 158.112 76.0541 153.846 71.5614C143.569 60.2228 130.191 54.5536 113.71 54.5536C96.841 54.5536 83.1714 60.4368 72.7012 72.2032C62.2309 83.9697 56.9957 99.48 56.9957 118.734C56.9957 137.988 62.2309 153.499 72.7012 165.265C83.1714 177.032 96.841 182.915 113.71 182.915C131.936 182.915 146.09 176.497 156.173 163.661C160.826 157.884 164.122 151.466 166.061 144.406H221.321C217.055 161.735 210.172 177.246 200.671 190.937C179.925 221.958 150.937 237.468 113.71 237.468C80.5539 237.468 53.3117 226.237 31.9834 203.774Z" fill="url(#paint0_radial_265_2138)" fill-opacity="0.03"/>
<path d="M233.011 60.9716V6.41806H414.787V60.9716H350.802V231.05H296.996V60.9716H233.011Z" fill="url(#paint1_radial_265_2138)" fill-opacity="0.03"/>
<path d="M416.105 6.41806H472.819L506.266 102.689H528.079L561.526 6.41806H616.786L538.258 231.05H482.999L509.174 157.243H469.911L416.105 6.41806Z" fill="url(#paint2_radial_265_2138)" fill-opacity="0.03"/>
<path d="M596.529 269.559V176.497H619.796L660.514 6.41806H760.854L801.572 176.497H824.839V269.559H773.942V231.05H647.426V269.559H596.529ZM670.693 176.497H750.675L723.045 60.9716H698.323L670.693 176.497Z" fill="url(#paint3_radial_265_2138)" fill-opacity="0.03"/>
<path d="M845.175 231.05V6.41806H898.981V117.13L894.618 146.011H897.527L971.691 6.41806H1034.22V231.05H980.416V120.339L984.779 91.4574H981.871L907.706 231.05H845.175Z" fill="url(#paint4_radial_265_2138)" fill-opacity="0.03"/>
<path d="M1066.29 85.0394C1066.29 62.7901 1073.76 44.1777 1088.69 29.2022C1103.81 14.0128 1123.49 6.41806 1147.73 6.41806H1249.52V231.05H1195.72V163.661H1157.91L1123.01 231.05H1064.84L1107.01 150.825C1079.87 135.849 1066.29 113.921 1066.29 85.0394ZM1129.12 68.0315C1124.07 72.7381 1121.55 78.4073 1121.55 85.0394C1121.55 91.6713 1124.07 97.3406 1129.12 102.047C1134.16 106.754 1140.85 109.107 1149.18 109.107H1195.72V60.9716H1149.18C1140.85 60.9716 1134.16 63.3249 1129.12 68.0315Z" fill="url(#paint5_radial_265_2138)" fill-opacity="0.03"/>
<path d="M4.15705 469.628V302.623H142.543V469.628H102.541V343.182H44.1591V469.628H4.15705Z" fill="url(#paint6_radial_265_2138)" fill-opacity="0.03"/>
<path d="M170.551 469.628V302.623H210.553V384.933L207.31 406.405H209.472L264.61 302.623H311.099V469.628H271.097V387.318L274.34 365.846H272.178L217.04 469.628H170.551Z" fill="url(#paint7_radial_265_2138)" fill-opacity="0.03"/>
<path d="M339.267 469.628V302.623H412.785C431.38 302.623 446.444 308.508 457.976 320.278C469.653 331.889 475.491 346.283 475.491 363.461C475.491 380.638 469.653 395.112 457.976 406.882C446.444 418.493 431.38 424.298 412.785 424.298H379.269V469.628H339.267ZM379.269 383.74H411.704C419.199 383.74 424.821 381.911 428.569 378.253C432.461 374.594 434.407 369.664 434.407 363.461C434.407 357.258 432.461 352.327 428.569 348.669C424.821 345.011 419.199 343.182 411.704 343.182H379.269V383.74Z" fill="url(#paint8_radial_265_2138)" fill-opacity="0.03"/>
<path d="M513.03 449.349C497.317 432.489 489.461 411.415 489.461 386.126C489.461 360.836 497.317 339.842 513.03 323.141C528.886 306.282 549.14 297.852 573.79 297.852C601.034 297.852 622.441 308.827 638.009 330.776C644.929 340.796 649.83 351.691 652.713 363.461H611.63C609.467 358.53 606.8 354.395 603.629 351.055C595.989 342.625 586.043 338.41 573.79 338.41C561.249 338.41 551.086 342.784 543.302 351.532C535.517 360.28 531.625 371.811 531.625 386.126C531.625 400.44 535.517 411.971 543.302 420.719C551.086 429.467 561.249 433.841 573.79 433.841C587.34 433.841 597.863 429.069 605.359 419.526C608.819 415.232 611.269 410.46 612.711 405.212H653.794C650.623 418.095 645.505 429.626 638.442 439.805C623.018 462.868 601.467 474.399 573.79 474.399C549.14 474.399 528.886 466.049 513.03 449.349Z" fill="url(#paint9_radial_265_2138)" fill-opacity="0.03"/>
<path d="M674.378 469.628V302.623H714.38V384.933L711.136 406.405H713.299L768.437 302.623H814.926V469.628H774.924V387.318L778.167 365.846H776.005L720.867 469.628H674.378Z" fill="url(#paint10_radial_265_2138)" fill-opacity="0.03"/>
<path d="M843.094 469.628V302.623H883.096V364.654H941.478V302.623H981.48V469.628H941.478V405.212H883.096V469.628H843.094Z" fill="url(#paint11_radial_265_2138)" fill-opacity="0.03"/>
<path d="M1009.49 469.628V302.623H1119.76V343.182H1049.49V469.628H1009.49Z" fill="url(#paint12_radial_265_2138)" fill-opacity="0.03"/>
<path d="M1114.32 469.628L1155.4 302.623H1228.92L1270 469.628H1228.92L1221.35 436.227H1162.97L1155.4 469.628H1114.32ZM1171.62 398.054H1212.7L1199.73 343.182H1184.59L1171.62 398.054Z" fill="url(#paint13_radial_265_2138)" fill-opacity="0.03"/>
<path d="M0 637.64V520.031H28.1705V577.995L25.8864 593.117H27.4091L66.2387 520.031H98.9774V637.64H70.8069V579.676L73.091 564.554H71.5683L32.7387 637.64H0Z" fill="url(#paint14_radial_265_2138)" fill-opacity="0.03"/>
<path d="M145.534 548.593V520.031H240.704V548.593H207.204V637.64H179.034V548.593H145.534Z" fill="url(#paint15_radial_265_2138)" fill-opacity="0.03"/>
<path d="M236.059 637.64L264.99 520.031H316.763L345.695 637.64H316.763L311.434 614.118H270.32L264.99 637.64H236.059ZM276.411 587.236H305.343L296.206 548.593H285.547L276.411 587.236Z" fill="url(#paint16_radial_265_2138)" fill-opacity="0.03"/>
<path d="M341.079 548.593V520.031H436.25V548.593H402.75V637.64H374.579V548.593H341.079Z" fill="url(#paint17_radial_265_2138)" fill-opacity="0.03"/>
<path d="M436.94 520.031H466.633L484.144 570.435H495.565L513.076 520.031H542.008L500.894 637.64H471.963L485.667 598.997H465.11L436.94 520.031Z" fill="url(#paint18_radial_265_2138)" fill-opacity="0.03"/>
<path d="M549.61 637.64V520.031H577.78V577.995L575.496 593.117H577.019L615.849 520.031H648.587V637.64H620.417V579.676L622.701 564.554H621.178L582.349 637.64H549.61Z" fill="url(#paint19_radial_265_2138)" fill-opacity="0.03"/>
<path d="M668.424 637.64V520.031H720.197C733.293 520.031 743.901 524.176 752.022 532.464C760.245 540.641 764.356 550.777 764.356 562.874C764.356 574.971 760.245 585.164 752.022 593.453C743.901 601.629 733.293 605.717 720.197 605.717H696.595V637.64H668.424ZM696.595 577.155H719.436C724.715 577.155 728.674 575.867 731.313 573.291C734.054 570.715 735.424 567.243 735.424 562.874C735.424 558.506 734.054 555.034 731.313 552.458C728.674 549.881 724.715 548.593 719.436 548.593H696.595V577.155Z" fill="url(#paint20_radial_265_2138)" fill-opacity="0.03"/>
<path d="M790.945 622.855C779.778 610.646 774.195 595.973 774.195 578.835C774.195 561.698 779.778 547.081 790.945 534.984C802.213 522.775 816.425 516.671 833.581 516.671C850.737 516.671 864.898 522.775 876.065 534.984C887.333 547.081 892.967 561.698 892.967 578.835C892.967 595.973 887.333 610.646 876.065 622.855C864.898 634.952 850.737 641 833.581 641C816.425 641 802.213 634.952 790.945 622.855ZM812.11 554.474C806.629 560.634 803.888 568.755 803.888 578.835C803.888 588.916 806.629 597.037 812.11 603.197C817.592 609.358 824.749 612.438 833.581 612.438C842.413 612.438 849.57 609.358 855.051 603.197C860.533 597.037 863.274 588.916 863.274 578.835C863.274 568.755 860.533 560.634 855.051 554.474C849.57 548.313 842.413 545.233 833.581 545.233C824.749 545.233 817.592 548.313 812.11 554.474Z" fill="url(#paint21_radial_265_2138)" fill-opacity="0.03"/>
<path d="M908.135 637.64V520.031H965.237C976.201 520.031 984.779 522.831 990.972 528.432C997.164 534.032 1000.26 541.033 1000.26 549.433C1000.26 557.834 997.469 564.442 991.885 569.259C989.246 571.275 986.454 572.787 983.51 573.795V574.635C987.368 575.867 990.769 577.603 993.713 579.844C1000.62 585.108 1004.07 592.892 1004.07 603.197C1004.07 613.278 1000.56 621.567 993.56 628.063C986.556 634.448 976.607 637.64 963.715 637.64H908.135ZM936.306 565.395H959.147C962.903 565.395 965.745 564.498 967.674 562.706C969.603 560.802 970.567 558.338 970.567 555.314C970.567 552.29 969.603 549.881 967.674 548.089C965.745 546.185 962.903 545.233 959.147 545.233H936.306V565.395ZM936.306 612.438H960.669C965.44 612.438 969.044 611.374 971.481 609.246C973.917 607.117 975.135 604.261 975.135 600.677C975.135 597.093 973.917 594.237 971.481 592.108C969.044 589.98 965.44 588.916 960.669 588.916H936.306V612.438Z" fill="url(#paint22_radial_265_2138)" fill-opacity="0.03"/>
<path d="M1031.55 622.855C1020.38 610.646 1014.8 595.973 1014.8 578.835C1014.8 561.698 1020.38 547.081 1031.55 534.984C1042.82 522.775 1057.03 516.671 1074.18 516.671C1091.34 516.671 1105.5 522.775 1116.67 534.984C1127.94 547.081 1133.57 561.698 1133.57 578.835C1133.57 595.973 1127.94 610.646 1116.67 622.855C1105.5 634.952 1091.34 641 1074.18 641C1057.03 641 1042.82 634.952 1031.55 622.855ZM1052.71 554.474C1047.23 560.634 1044.49 568.755 1044.49 578.835C1044.49 588.916 1047.23 597.037 1052.71 603.197C1058.2 609.358 1065.35 612.438 1074.18 612.438C1083.02 612.438 1090.17 609.358 1095.65 603.197C1101.14 597.037 1103.88 588.916 1103.88 578.835C1103.88 568.755 1101.14 560.634 1095.65 554.474C1090.17 548.313 1083.02 545.233 1074.18 545.233C1065.35 545.233 1058.2 548.313 1052.71 554.474Z" fill="url(#paint23_radial_265_2138)" fill-opacity="0.03"/>
<path d="M1148.74 637.64V520.031H1176.91V563.714H1189.09L1214.98 520.031H1246.95L1213.45 575.475L1249.24 637.64H1217.26L1190.61 592.276H1176.91V637.64H1148.74Z" fill="url(#paint24_radial_265_2138)" fill-opacity="0.03"/>
<defs>
<radialGradient id="paint0_radial_265_2138" cx="0" cy="0" r="1" gradientTransform="matrix(561.662 171.964 -476.251 2321.2 194.127 112.903)" gradientUnits="userSpaceOnUse">
<stop stop-color="#AD32AE"/>
<stop offset="1" stop-color="#3C49C2"/>
</radialGradient>
<radialGradient id="paint1_radial_265_2138" cx="0" cy="0" r="1" gradientTransform="matrix(561.662 171.964 -476.251 2321.2 194.127 112.903)" gradientUnits="userSpaceOnUse">
<stop stop-color="#AD32AE"/>
<stop offset="1" stop-color="#3C49C2"/>
</radialGradient>
<radialGradient id="paint2_radial_265_2138" cx="0" cy="0" r="1" gradientTransform="matrix(561.662 171.964 -476.251 2321.2 194.127 112.903)" gradientUnits="userSpaceOnUse">
<stop stop-color="#AD32AE"/>
<stop offset="1" stop-color="#3C49C2"/>
</radialGradient>
<radialGradient id="paint3_radial_265_2138" cx="0" cy="0" r="1" gradientTransform="matrix(561.662 171.964 -476.251 2321.2 194.127 112.903)" gradientUnits="userSpaceOnUse">
<stop stop-color="#AD32AE"/>
<stop offset="1" stop-color="#3C49C2"/>
</radialGradient>
<radialGradient id="paint4_radial_265_2138" cx="0" cy="0" r="1" gradientTransform="matrix(561.662 171.964 -476.251 2321.2 194.127 112.903)" gradientUnits="userSpaceOnUse">
<stop stop-color="#AD32AE"/>
<stop offset="1" stop-color="#3C49C2"/>
</radialGradient>
<radialGradient id="paint5_radial_265_2138" cx="0" cy="0" r="1" gradientTransform="matrix(561.662 171.964 -476.251 2321.2 194.127 112.903)" gradientUnits="userSpaceOnUse">
<stop stop-color="#AD32AE"/>
<stop offset="1" stop-color="#3C49C2"/>
</radialGradient>
<radialGradient id="paint6_radial_265_2138" cx="0" cy="0" r="1" gradientTransform="matrix(561.662 171.964 -476.251 2321.2 194.127 112.903)" gradientUnits="userSpaceOnUse">
<stop stop-color="#AD32AE"/>
<stop offset="1" stop-color="#3C49C2"/>
</radialGradient>
<radialGradient id="paint7_radial_265_2138" cx="0" cy="0" r="1" gradientTransform="matrix(561.662 171.964 -476.251 2321.2 194.127 112.903)" gradientUnits="userSpaceOnUse">
<stop stop-color="#AD32AE"/>
<stop offset="1" stop-color="#3C49C2"/>
</radialGradient>
<radialGradient id="paint8_radial_265_2138" cx="0" cy="0" r="1" gradientTransform="matrix(561.662 171.964 -476.251 2321.2 194.127 112.903)" gradientUnits="userSpaceOnUse">
<stop stop-color="#AD32AE"/>
<stop offset="1" stop-color="#3C49C2"/>
</radialGradient>
<radialGradient id="paint9_radial_265_2138" cx="0" cy="0" r="1" gradientTransform="matrix(561.662 171.964 -476.251 2321.2 194.127 112.903)" gradientUnits="userSpaceOnUse">
<stop stop-color="#AD32AE"/>
<stop offset="1" stop-color="#3C49C2"/>
</radialGradient>
<radialGradient id="paint10_radial_265_2138" cx="0" cy="0" r="1" gradientTransform="matrix(561.662 171.964 -476.251 2321.2 194.127 112.903)" gradientUnits="userSpaceOnUse">
<stop stop-color="#AD32AE"/>
<stop offset="1" stop-color="#3C49C2"/>
</radialGradient>
<radialGradient id="paint11_radial_265_2138" cx="0" cy="0" r="1" gradientTransform="matrix(561.662 171.964 -476.251 2321.2 194.127 112.903)" gradientUnits="userSpaceOnUse">
<stop stop-color="#AD32AE"/>
<stop offset="1" stop-color="#3C49C2"/>
</radialGradient>
<radialGradient id="paint12_radial_265_2138" cx="0" cy="0" r="1" gradientTransform="matrix(561.662 171.964 -476.251 2321.2 194.127 112.903)" gradientUnits="userSpaceOnUse">
<stop stop-color="#AD32AE"/>
<stop offset="1" stop-color="#3C49C2"/>
</radialGradient>
<radialGradient id="paint13_radial_265_2138" cx="0" cy="0" r="1" gradientTransform="matrix(561.662 171.964 -476.251 2321.2 194.127 112.903)" gradientUnits="userSpaceOnUse">
<stop stop-color="#AD32AE"/>
<stop offset="1" stop-color="#3C49C2"/>
</radialGradient>
<radialGradient id="paint14_radial_265_2138" cx="0" cy="0" r="1" gradientTransform="matrix(561.662 171.964 -476.251 2321.2 194.127 112.903)" gradientUnits="userSpaceOnUse">
<stop stop-color="#AD32AE"/>
<stop offset="1" stop-color="#3C49C2"/>
</radialGradient>
<radialGradient id="paint15_radial_265_2138" cx="0" cy="0" r="1" gradientTransform="matrix(561.662 171.964 -476.251 2321.2 194.127 112.903)" gradientUnits="userSpaceOnUse">
<stop stop-color="#AD32AE"/>
<stop offset="1" stop-color="#3C49C2"/>
</radialGradient>
<radialGradient id="paint16_radial_265_2138" cx="0" cy="0" r="1" gradientTransform="matrix(561.662 171.964 -476.251 2321.2 194.127 112.903)" gradientUnits="userSpaceOnUse">
<stop stop-color="#AD32AE"/>
<stop offset="1" stop-color="#3C49C2"/>
</radialGradient>
<radialGradient id="paint17_radial_265_2138" cx="0" cy="0" r="1" gradientTransform="matrix(561.662 171.964 -476.251 2321.2 194.127 112.903)" gradientUnits="userSpaceOnUse">
<stop stop-color="#AD32AE"/>
<stop offset="1" stop-color="#3C49C2"/>
</radialGradient>
<radialGradient id="paint18_radial_265_2138" cx="0" cy="0" r="1" gradientTransform="matrix(561.662 171.964 -476.251 2321.2 194.127 112.903)" gradientUnits="userSpaceOnUse">
<stop stop-color="#AD32AE"/>
<stop offset="1" stop-color="#3C49C2"/>
</radialGradient>
<radialGradient id="paint19_radial_265_2138" cx="0" cy="0" r="1" gradientTransform="matrix(561.662 171.964 -476.251 2321.2 194.127 112.903)" gradientUnits="userSpaceOnUse">
<stop stop-color="#AD32AE"/>
<stop offset="1" stop-color="#3C49C2"/>
</radialGradient>
<radialGradient id="paint20_radial_265_2138" cx="0" cy="0" r="1" gradientTransform="matrix(561.662 171.964 -476.251 2321.2 194.127 112.903)" gradientUnits="userSpaceOnUse">
<stop stop-color="#AD32AE"/>
<stop offset="1" stop-color="#3C49C2"/>
</radialGradient>
<radialGradient id="paint21_radial_265_2138" cx="0" cy="0" r="1" gradientTransform="matrix(561.662 171.964 -476.251 2321.2 194.127 112.903)" gradientUnits="userSpaceOnUse">
<stop stop-color="#AD32AE"/>
<stop offset="1" stop-color="#3C49C2"/>
</radialGradient>
<radialGradient id="paint22_radial_265_2138" cx="0" cy="0" r="1" gradientTransform="matrix(561.662 171.964 -476.251 2321.2 194.127 112.903)" gradientUnits="userSpaceOnUse">
<stop stop-color="#AD32AE"/>
<stop offset="1" stop-color="#3C49C2"/>
</radialGradient>
<radialGradient id="paint23_radial_265_2138" cx="0" cy="0" r="1" gradientTransform="matrix(561.662 171.964 -476.251 2321.2 194.127 112.903)" gradientUnits="userSpaceOnUse">
<stop stop-color="#AD32AE"/>
<stop offset="1" stop-color="#3C49C2"/>
</radialGradient>
<radialGradient id="paint24_radial_265_2138" cx="0" cy="0" r="1" gradientTransform="matrix(561.662 171.964 -476.251 2321.2 194.127 112.903)" gradientUnits="userSpaceOnUse">
<stop stop-color="#AD32AE"/>
<stop offset="1" stop-color="#3C49C2"/>
</radialGradient>
</defs>
</svg>
